STARTFONT 2.1
COMMENT
COMMENT Converted from OpenType font "UbuntuMono-Bold.ttf" by "otf2bdf 3.0".
COMMENT
FONT -FreeType-Ubuntu Mono-Bold-R-Normal--89-640-100-100-P-391-ISO10646-1
SIZE 64 100 100
FONTBOUNDINGBOX 93 89 -34 -15
STARTPROPERTIES 19
FOUNDRY "FreeType"
FAMILY_NAME "Ubuntu Mono"
WEIGHT_NAME "Bold"
SLANT "R"
SETWIDTH_NAME "Normal"
ADD_STYLE_NAME ""
PIXEL_SIZE 89
POINT_SIZE 640
RESOLUTION_X 100
RESOLUTION_Y 100
SPACING "P"
AVERAGE_WIDTH 391
CHARSET_REGISTRY "ISO10646"
CHARSET_ENCODING "1"
FONT_ASCENT 73
FONT_DESCENT 15
COPYRIGHT "Copyright 2011 Canonical Ltd.  Licensed under the Ubuntu Font Licence 1.0"
_OTF_FONTFILE "UbuntuMono-Bold.ttf"
_OTF_PSNAME "UbuntuMono-Bold"
ENDPROPERTIES
CHARS 1224
STARTCHAR 0000
ENCODING 0
SWIDTH 495 0
DWIDTH 44 0
BBX 0 0 0 0
BITMAP
ENDCHAR
STARTCHAR 0008
ENCODING 8
SWIDTH 495 0
DWIDTH 44 0
BBX 0 0 0 0
BITMAP
ENDCHAR
STARTCHAR 0009
ENCODING 9
SWIDTH 495 0
DWIDTH 44 0
BBX 0 0 0 0
BITMAP
ENDCHAR
STARTCHAR 000D
ENCODING 13
SWIDTH 495 0
DWIDTH 44 0
BBX 0 0 0 0
BITMAP
ENDCHAR
STARTCHAR 001D
ENCODING 29
SWIDTH 495 0
DWIDTH 44 0
BBX 0 0 0 0
BITMAP
ENDCHAR
STARTCHAR 0020
ENCODING 32
SWIDTH 495 0
DWIDTH 44 0
BBX 0 0 0 0
BITMAP
ENDCHAR
STARTCHAR 0021
ENCODING 33
SWIDTH 495 0
DWIDTH 44 0
BBX 15 56 15 -1
BITMAP
7FFC
7FFC
7FFC
7FFC
7FFC
7FFC
7FFC
7FFC
7FFC
7FFC
7FFC
7FFC
7FFC
7FFC
7FFC
7FFC
7FFC
7FF8
7FF8
7FF8
7FF8
7FF8
7FF8
7FF8
7FF8
7FF8
3FF8
3FF8
3FF8
3FF8
3FF0
3FF0
3FF0
1FF0
1FF0
0000
0000
0000
0000
0000
0000
0300
1FE0
3FF0
7FF8
FFFC
FFFC
FFFE
FFFE
FFFE
FFFC
FFFC
7FFC
7FF8
1FF0
0FC0
ENDCHAR
STARTCHAR 0022
ENCODING 34
SWIDTH 495 0
DWIDTH 44 0
BBX 29 25 8 35
BITMAP
FFE07FF8
FFE07FF8
FFE07FF8
FFE07FF8
FFE07FF8
FFE07FF8
FFE07FF8
FFE07FF8
FFE07FF8
FFE03FF8
FFE03FF0
FFE03FF0
FFE03FF0
7FE03FF0
7FC03FF0
7FC03FF0
7FC03FF0
7FC01FF0
7FC01FE0
7FC01FE0
3F801FE0
3F801FE0
3F801FE0
3F800FE0
3F800FC0
ENDCHAR
STARTCHAR 0023
ENCODING 35
SWIDTH 495 0
DWIDTH 44 0
BBX 41 55 2 0
BITMAP
0007FC07FC00
0007FC07FC00
000FF80FFC00
000FF80FF800
000FF80FF800
000FF80FF800
000FF80FF800
001FF01FF800
001FF01FF000
001FF01FF000
001FF01FF000
001FF01FF000
003FE01FF000
FFFFFFFFFF80
FFFFFFFFFF80
FFFFFFFFFF80
FFFFFFFFFF80
FFFFFFFFFF80
FFFFFFFFFF80
FFFFFFFFFF80
FFFFFFFFFF80
FFFFFFFFFF80
FFFFFFFFFF80
00FF80FF8000
00FF80FF8000
00FF80FF8000
00FF80FF8000
00FF80FF8000
01FF01FF8000
01FF01FF0000
01FF01FF0000
01FF01FF0000
FFFFFFFFFF80
FFFFFFFFFF80
FFFFFFFFFF80
FFFFFFFFFF80
FFFFFFFFFF80
FFFFFFFFFF80
FFFFFFFFFF80
FFFFFFFFFF80
FFFFFFFFFF80
07FC07FC0000
07FC07FC0000
07FC07FC0000
0FF80FFC0000
0FF80FF80000
0FF80FF80000
0FF80FF80000
0FF80FF80000
1FF01FF80000
1FF01FF00000
1FF01FF00000
1FF01FF00000
1FF01FF00000
3FF01FF00000
ENDCHAR
STARTCHAR 0024
ENCODING 36
SWIDTH 495 0
DWIDTH 44 0
BBX 39 71 3 -9
BITMAP
0003FF0000
0003FF0000
0003FF0000
0003FF0000
0003FF0000
0003FF0000
0003FF0000
0003FF0000
0003FF0000
0007FFFC00
003FFFFFC0
00FFFFFFF8
01FFFFFFF0
03FFFFFFF0
07FFFFFFF0
0FFFFFFFF0
1FFFFFFFE0
1FFFFFFFE0
1FFF001FE0
3FFE0001C0
3FFC000000
3FF8000000
3FF8000000
3FF8000000
3FF8000000
3FFC000000
3FFE000000
3FFF800000
1FFFE00000
1FFFFC0000
1FFFFF0000
0FFFFFE000
07FFFFF800
03FFFFFE00
01FFFFFF00
007FFFFF80
001FFFFFE0
0007FFFFE0
0000FFFFF0
00001FFFF8
000007FFF8
000001FFFC
0000007FFC
0000003FFC
0000001FFC
0000001FFC
0000001FFE
0000001FFC
0000001FFC
1C00003FFC
1F80007FFC
3FF801FFFC
3FFFFFFFF8
7FFFFFFFF8
7FFFFFFFF0
7FFFFFFFE0
FFFFFFFFE0
7FFFFFFF80
1FFFFFFF00
07FFFFFC00
007FFFE000
0003FF0000
0003FF0000
0003FF0000
0003FF0000
0003FF0000
0003FF0000
0003FF0000
0003FF0000
0003FF0000
0003FF0000
ENDCHAR
STARTCHAR 0025
ENCODING 37
SWIDTH 495 0
DWIDTH 44 0
BBX 44 57 0 -1
BITMAP
01FE00000000
07FF00000FF0
0FFFC0001FE0
1FFFC0001FE0
1FFFE0003FC0
3FFFE0007F80
3FFFF0007F80
3F8FF000FF00
7F87F001FE00
7F07F801FE00
7F07F803FC00
7F03F807F800
7F03F807F800
7F03F80FF000
7F03F81FE000
7F03F81FE000
7F07F83FC000
7F07F87F8000
7F87F07F8000
3F8FF0FF0000
3FFFF0FE0000
3FFFF1FE0000
1FFFE3FC0000
1FFFC3F80000
0FFFC7F80000
07FF8FF00000
01FE0FF00000
00001FE00000
00003FC00000
00003FC00000
00007F87FC00
0000FF0FFE00
0000FF1FFF00
0001FE3FFF80
0003FC7FFFC0
0003FC7FFFC0
0007F8FFBFE0
000FF0FF1FE0
000FF0FE0FE0
001FE0FE0FE0
003FC0FE0FE0
003FC0FE0FE0
007F80FE0FF0
00FF00FE0FF0
00FF00FE0FF0
01FE00FE0FE0
03FC00FE0FE0
03FC00FE0FE0
07F800FE0FE0
0FF000FF1FE0
0FF0007FFFE0
1FE0007FFFC0
3FC0007FFFC0
3FC0003FFF80
7F80001FFF00
FF00000FFE00
00000003F800
ENDCHAR
STARTCHAR 0026
ENCODING 38
SWIDTH 495 0
DWIDTH 44 0
BBX 41 57 2 -1
BITMAP
0007FE000000
001FFF800000
007FFFE00000
00FFFFF00000
01FFFFF80000
03FFFFF80000
03FFFFFC0000
07FFFFFC0000
07FE0FFE0000
0FFC07FE0000
0FFC03FE0000
0FF803FE0000
0FF803FE0000
0FF803FE0000
0FF803FE0000
0FF807FE0000
0FFC07FE0000
0FFC0FFC0000
0FFC0FFC0000
07FE1FF80000
07FE3FF80000
07FFFFF00000
03FFFFE00000
03FFFFC00000
01FFFF800000
00FFFF000000
00FFFC03F800
00FFF803FE00
03FFFC03FE00
07FFFC03FE00
0FFFFE07FE00
1FFFFF07FC00
1FFFFF87FC00
3FFBFFC7FC00
7FF1FFE7FC00
7FE0FFF7FC00
7FC07FFFF800
FFC03FFFF800
FF803FFFF800
FF801FFFF000
FF800FFFF000
FF8007FFF000
FF8003FFE000
FF8001FFE000
FFC000FFE000
FFC001FFF000
7FE003FFF000
7FF00FFFF800
7FFFFFFFFC00
3FFFFFFFFC00
3FFFFFFFFE00
1FFFFFFFFE00
0FFFFFE7FF00
07FFFF87FF00
01FFFF03FF00
007FFC03FF80
0007C0000000
ENDCHAR
STARTCHAR 0027
ENCODING 39
SWIDTH 495 0
DWIDTH 44 0
BBX 11 26 17 34
BITMAP
FFE0
FFE0
FFE0
FFE0
FFE0
FFE0
FFE0
FFE0
FFE0
FFE0
FFE0
FFE0
FFE0
FFE0
FFE0
FFC0
7FC0
7FC0
7FC0
7FC0
7FC0
7F80
3F80
3F80
3F80
3F80
ENDCHAR
STARTCHAR 0028
ENCODING 40
SWIDTH 495 0
DWIDTH 44 0
BBX 29 78 8 -15
BITMAP
00000100
00000780
00000FC0
00003FE0
00007FE0
0000FFF0
0001FFF8
0007FFF0
000FFFC0
001FFF80
001FFF00
003FFC00
007FF800
00FFF000
00FFE000
01FFE000
03FFC000
03FF8000
07FF0000
07FF0000
0FFE0000
0FFE0000
1FFC0000
1FFC0000
1FF80000
3FF80000
3FF00000
3FF00000
3FF00000
7FF00000
7FE00000
7FE00000
7FE00000
7FE00000
7FE00000
FFE00000
FFE00000
FFE00000
FFC00000
FFC00000
FFC00000
FFE00000
FFE00000
7FE00000
7FE00000
7FE00000
7FE00000
7FE00000
7FE00000
7FF00000
3FF00000
3FF00000
3FF80000
3FF80000
1FF80000
1FFC0000
0FFC0000
0FFE0000
0FFE0000
07FF0000
07FF8000
03FF8000
01FFC000
01FFE000
00FFF000
007FF800
007FFC00
003FFE00
001FFF00
000FFFC0
0007FFE0
0003FFF8
0001FFF0
00007FE0
00003FC0
00001FC0
00000780
00000100
ENDCHAR
STARTCHAR 0029
ENCODING 41
SWIDTH 495 0
DWIDTH 44 0
BBX 28 78 8 -15
BITMAP
0C000000
1E000000
1F800000
3FC00000
7FF00000
FFF80000
FFFC0000
7FFE0000
3FFF0000
0FFF8000
07FFC000
03FFE000
01FFF000
00FFF000
007FF800
003FFC00
001FFC00
001FFE00
000FFE00
0007FF00
0007FF00
0003FF80
0003FF80
0001FFC0
0001FFC0
0000FFC0
0000FFE0
0000FFE0
00007FE0
00007FE0
00007FE0
00007FF0
00003FF0
00003FF0
00003FF0
00003FF0
00003FF0
00003FF0
00003FF0
00003FF0
00003FF0
00003FF0
00003FF0
00003FF0
00003FF0
00003FF0
00003FF0
00007FF0
00007FE0
00007FE0
00007FE0
0000FFE0
0000FFC0
0000FFC0
0001FFC0
0001FF80
0003FF80
0003FF80
0007FF00
0007FF00
000FFE00
001FFE00
003FFC00
007FF800
007FF800
00FFF000
01FFE000
07FFC000
0FFFC000
1FFF8000
7FFF0000
FFFC0000
7FF80000
3FF00000
3FE00000
1F800000
0F000000
04000000
ENDCHAR
STARTCHAR 002A
ENCODING 42
SWIDTH 495 0
DWIDTH 44 0
BBX 37 35 4 20
BITMAP
0007FF0000
0007FF0000
0007FF0000
0007FF0000
0007FE0000
0003FE0000
0003FE0000
1803FE0040
1E03FE03C0
1F83FC0FC0
3FE1FC3FE0
3FF1FC7FE0
3FFDF9FFE0
7FFEFBFFF0
7FFFFFFFF0
7FFFFFFFF0
FFFFFFFFF8
3FFFFFFFE0
03FFFFFE00
0007FE0000
000FFF8000
001FFFC000
007FDFE000
00FFDFF000
01FFDFF800
03FF8FFC00
03FF8FFE00
07FF0FFF00
0FFF07FF80
07FF07FF00
03FE03FC00
00FE03F800
007C01F000
001800C000
0000008000
ENDCHAR
STARTCHAR 002B
ENCODING 43
SWIDTH 495 0
DWIDTH 44 0
BBX 37 40 4 3
BITMAP
0003FE0000
0003FE0000
0003FE0000
0003FE0000
0003FE0000
0003FE0000
0003FE0000
0003FE0000
0003FE0000
0003FE0000
0003FE0000
0003FE0000
0003FE0000
0003FE0000
0003FE0000
FFFFFFFFF8
FFFFFFFFF8
FFFFFFFFF8
FFFFFFFFF8
FFFFFFFFF8
FFFFFFFFF8
FFFFFFFFF8
FFFFFFFFF8
FFFFFFFFF8
0003FE0000
0003FE0000
0003FE0000
0003FE0000
0003FE0000
0003FE0000
0003FE0000
0003FE0000
0003FE0000
0003FE0000
0003FE0000
0003FE0000
0003FE0000
0003FE0000
0003FE0000
0003FE0000
ENDCHAR
STARTCHAR 002C
ENCODING 44
SWIDTH 495 0
DWIDTH 44 0
BBX 20 28 11 -14
BITMAP
003C00
01FF80
03FFC0
07FFC0
07FFE0
0FFFE0
0FFFF0
0FFFF0
0FFFF0
0FFFF0
0FFFF0
07FFF0
07FFF0
03FFE0
01FFE0
007FE0
001FE0
003FC0
007FC0
00FF80
07FF00
FFFF00
FFFE00
7FFC00
7FF000
7FE000
7F8000
7E0000
ENDCHAR
STARTCHAR 002D
ENCODING 45
SWIDTH 495 0
DWIDTH 44 0
BBX 24 11 10 17
BITMAP
FFFFFF
FFFFFF
FFFFFF
FFFFFF
FFFFFF
FFFFFF
FFFFFF
FFFFFF
FFFFFF
FFFFFF
FFFFFF
ENDCHAR
STARTCHAR 002E
ENCODING 46
SWIDTH 495 0
DWIDTH 44 0
BBX 16 16 14 -1
BITMAP
03E0
0FF8
3FFC
3FFE
7FFF
7FFF
FFFF
FFFF
FFFF
FFFF
7FFF
7FFF
3FFE
3FFC
1FF8
07E0
ENDCHAR
STARTCHAR 002F
ENCODING 47
SWIDTH 495 0
DWIDTH 44 0
BBX 36 77 4 -15
BITMAP
0000007FF0
0000007FF0
000000FFE0
000000FFE0
000000FFE0
000001FFC0
000001FFC0
000001FFC0
000003FFC0
000003FF80
000003FF80
000007FF80
000007FF00
000007FF00
00000FFF00
00000FFE00
00000FFE00
00001FFE00
00001FFC00
00001FFC00
00003FFC00
00003FF800
00003FF800
00007FF800
00007FF000
00007FF000
0000FFF000
0000FFE000
0000FFE000
0001FFE000
0001FFC000
0001FFC000
0003FFC000
0003FF8000
0003FF8000
0003FF8000
0007FF8000
0007FF0000
0007FF0000
000FFF0000
000FFE0000
000FFE0000
001FFE0000
001FFC0000
001FFC0000
003FFC0000
003FF80000
003FF80000
007FF80000
007FF00000
007FF00000
00FFF00000
00FFE00000
00FFE00000
01FFE00000
01FFC00000
01FFC00000
03FFC00000
03FF800000
03FF800000
07FF800000
07FF000000
07FF000000
0FFF000000
0FFE000000
0FFE000000
1FFE000000
1FFE000000
1FFC000000
3FFC000000
3FFC000000
3FF8000000
3FF8000000
7FF8000000
7FF0000000
7FF0000000
FFF0000000
ENDCHAR
STARTCHAR 0030
ENCODING 48
SWIDTH 495 0
DWIDTH 44 0
BBX 38 57 3 -1
BITMAP
0003FF8000
001FFFE000
007FFFF800
00FFFFFC00
01FFFFFF00
03FFFFFF00
07FFFFFF80
07FFFFFFC0
0FFFFFFFC0
1FFF83FFE0
1FFE01FFE0
1FFC00FFF0
3FF8007FF0
3FF8003FF8
3FF0003FF8
7FF0001FF8
7FE0001FF8
7FE0001FF8
7FE0000FFC
7FE0000FFC
7FE0000FFC
FFC0000FFC
FFC0FC0FFC
FFC1FE0FFC
FFC1FF0FFC
FFC1FF0FFC
FFC3FF0FFC
FFC3FF0FFC
FFC3FF0FFC
FFC1FF0FFC
FFC1FF0FFC
FFC0FE0FFC
FFC07C0FFC
FFC0000FFC
FFC0000FFC
FFC0000FFC
7FE0000FFC
7FE0000FFC
7FE0000FFC
7FE0001FF8
7FE0001FF8
7FF0001FF8
3FF0003FF8
3FF8003FF0
3FF8007FF0
1FFC00FFF0
1FFE01FFE0
1FFFC7FFE0
0FFFFFFFC0
07FFFFFFC0
07FFFFFF80
03FFFFFF00
01FFFFFE00
00FFFFFC00
007FFFF800
001FFFE000
0003FF0000
ENDCHAR
STARTCHAR 0031
ENCODING 49
SWIDTH 495 0
DWIDTH 44 0
BBX 37 55 4 0
BITMAP
00003FC000
00007FC000
0000FFC000
0003FFC000
0007FFC000
000FFFC000
003FFFC000
00FFFFC000
01FFFFC000
07FFFFC000
1FFFFFC000
FFFFFFC000
7FFFFFC000
7FFFFFC000
7FFFFFC000
3FFDFFC000
3FF9FFC000
1FE1FFC000
1F81FFC000
1C01FFC000
0001FFC000
0001FFC000
0001FFC000
0001FFC000
0001FFC000
0001FFC000
0001FFC000
0001FFC000
0001FFC000
0001FFC000
0001FFC000
0001FFC000
0001FFC000
0001FFC000
0001FFC000
0001FFC000
0001FFC000
0001FFC000
0001FFC000
0001FFC000
0001FFC000
0001FFC000
0001FFC000
0001FFC000
0001FFC000
0001FFC000
1FFFFFFFF8
1FFFFFFFF8
1FFFFFFFF8
1FFFFFFFF8
1FFFFFFFF8
1FFFFFFFF8
1FFFFFFFF8
1FFFFFFFF8
1FFFFFFFF8
ENDCHAR
STARTCHAR 0032
ENCODING 50
SWIDTH 495 0
DWIDTH 44 0
BBX 37 56 4 0
BITMAP
001FFE0000
00FFFFC000
03FFFFF000
0FFFFFF800
1FFFFFFC00
7FFFFFFE00
FFFFFFFF00
FFFFFFFF80
7FFFFFFF80
3FFC3FFFC0
3FE007FFC0
1F8003FFC0
0F0001FFC0
0C0001FFC0
000001FFE0
000001FFE0
000001FFE0
000001FFC0
000001FFC0
000001FFC0
000003FFC0
000007FF80
000007FF80
00000FFF00
00001FFF00
00003FFE00
00007FFC00
0000FFFC00
0001FFF800
0003FFF000
0007FFE000
000FFFC000
001FFF8000
003FFF0000
007FFE0000
00FFFC0000
01FFF80000
03FFF00000
03FFE00000
07FFC00000
0FFF800000
0FFF000000
1FFE000000
1FFE000000
3FFC000000
3FFC000000
3FF8000000
7FFFFFFFF8
7FFFFFFFF8
7FFFFFFFF8
7FFFFFFFF8
7FFFFFFFF8
7FFFFFFFF8
7FFFFFFFF8
7FFFFFFFF8
7FFFFFFFF8
ENDCHAR
STARTCHAR 0033
ENCODING 51
SWIDTH 495 0
DWIDTH 44 0
BBX 36 57 4 -1
BITMAP
003FFE0000
01FFFFC000
0FFFFFE000
3FFFFFF800
7FFFFFFC00
7FFFFFFE00
3FFFFFFF00
3FFFFFFF00
1FFFFFFF80
1FF01FFF80
1F8007FF80
0C0003FFC0
080003FFC0
000001FFC0
000001FFC0
000001FFC0
000001FFC0
000001FFC0
000003FF80
000003FF80
000007FF80
00001FFF00
0003FFFE00
007FFFFE00
007FFFFC00
007FFFF000
007FFFF000
007FFFFC00
007FFFFE00
007FFFFF00
007FFFFF80
007FFFFFC0
00001FFFC0
000003FFE0
000001FFE0
000000FFF0
000000FFF0
0000007FF0
0000007FF0
0000007FF0
0000007FF0
0000007FF0
000000FFF0
000000FFF0
000001FFF0
200001FFE0
7C0007FFE0
7FC03FFFE0
7FFFFFFFC0
7FFFFFFF80
FFFFFFFF80
FFFFFFFF00
FFFFFFFE00
FFFFFFF800
FFFFFFF000
0FFFFF8000
00FFFC0000
ENDCHAR
STARTCHAR 0034
ENCODING 52
SWIDTH 495 0
DWIDTH 44 0
BBX 40 55 2 0
BITMAP
000000FFC0
000001FFC0
000003FFC0
000007FFC0
00000FFFC0
00001FFFC0
00001FFFC0
00003FFFC0
00007FFFC0
0000FFFFC0
0001FFFFC0
0001FFFFC0
0003FFFFC0
0007FFFFC0
000FFFFFC0
000FFDFFC0
001FF9FFC0
003FF1FFC0
003FF1FFC0
007FE1FFC0
00FFC1FFC0
00FFC1FFC0
01FF81FFC0
03FF01FFC0
03FF01FFC0
07FE01FFC0
07FC01FFC0
0FFC01FFC0
1FF801FFC0
1FF801FFC0
3FF001FFC0
3FF001FFC0
7FE001FFC0
7FFFFFFFFF
FFFFFFFFFF
FFFFFFFFFF
FFFFFFFFFF
FFFFFFFFFF
FFFFFFFFFF
FFFFFFFFFF
FFFFFFFFFF
FFFFFFFFFF
000001FFC0
000001FFC0
000001FFC0
000001FFC0
000001FFC0
000001FFC0
000001FFC0
000001FFC0
000001FFC0
000001FFC0
000001FFC0
000001FFC0
000001FFC0
ENDCHAR
STARTCHAR 0035
ENCODING 53
SWIDTH 495 0
DWIDTH 44 0
BBX 37 56 3 -1
BITMAP
01FFFFFFE0
01FFFFFFE0
03FFFFFFE0
03FFFFFFE0
03FFFFFFE0
03FFFFFFE0
03FFFFFFE0
03FFFFFFE0
03FFFFFFE0
03FF000000
03FF000000
03FF000000
03FF000000
03FE000000
03FE000000
03FE000000
03FE000000
07FE000000
07FE000000
07FE000000
07FFE00000
07FFFF0000
07FFFFE000
07FFFFF800
07FFFFFC00
07FFFFFE00
07FFFFFF00
0FFFFFFF80
01FFFFFFC0
00007FFFE0
00000FFFE0
000003FFF0
000001FFF0
000000FFF0
0000007FF0
0000007FF8
0000007FF8
0000007FF8
0000003FF8
0000007FF8
0000007FF8
0000007FF0
0000007FF0
000000FFF0
200001FFF0
3C0003FFE0
3FC01FFFE0
3FFFFFFFC0
7FFFFFFFC0
7FFFFFFF80
7FFFFFFF00
7FFFFFFE00
FFFFFFF800
FFFFFFF000
1FFFFF8000
00FFFC0000
ENDCHAR
STARTCHAR 0036
ENCODING 54
SWIDTH 495 0
DWIDTH 44 0
BBX 36 56 4 -1
BITMAP
000000FF80
00000FFF80
00003FFF80
0000FFFFC0
0003FFFFC0
000FFFFFC0
001FFFFFC0
003FFFFFC0
007FFFFFC0
00FFFFF000
01FFFF0000
03FFF80000
07FFE00000
07FFC00000
0FFF800000
0FFF000000
1FFE000000
1FFC000000
3FFC000000
3FF8000000
3FF9FF8000
7FFFFFF000
7FFFFFF800
7FFFFFFE00
7FFFFFFF00
7FFFFFFF80
FFFFFFFFC0
FFFFFFFFC0
FFFFFFFFE0
FFF807FFE0
FFE001FFE0
FFE000FFF0
FFE0007FF0
FFE0007FF0
FFE0007FF0
FFE0003FF0
FFE0003FF0
FFE0003FF0
FFE0003FF0
7FE0003FF0
7FF0007FF0
7FF0007FF0
7FF0007FF0
7FF800FFF0
3FFC01FFE0
3FFE03FFE0
3FFF87FFC0
1FFFFFFFC0
0FFFFFFF80
0FFFFFFF80
07FFFFFF00
03FFFFFE00
01FFFFFC00
00FFFFF000
003FFFE000
0007FF0000
ENDCHAR
STARTCHAR 0037
ENCODING 55
SWIDTH 495 0
DWIDTH 44 0
BBX 36 55 4 0
BITMAP
FFFFFFFFF0
FFFFFFFFF0
FFFFFFFFF0
FFFFFFFFF0
FFFFFFFFF0
FFFFFFFFF0
FFFFFFFFF0
FFFFFFFFF0
FFFFFFFFF0
000001FFE0
000001FFC0
000003FFC0
000007FF80
000007FF00
00000FFF00
00000FFE00
00001FFE00
00001FFC00
00003FFC00
00003FF800
00007FF800
00007FF000
00007FF000
0000FFE000
0000FFE000
0001FFC000
0001FFC000
0001FFC000
0003FF8000
0003FF8000
0007FF0000
0007FF0000
0007FF0000
000FFE0000
000FFE0000
000FFE0000
001FFC0000
001FFC0000
001FFC0000
003FFC0000
003FF80000
003FF80000
003FF80000
007FF80000
007FF00000
007FF00000
007FF00000
007FF00000
00FFF00000
00FFE00000
00FFE00000
00FFE00000
00FFE00000
00FFE00000
00FFE00000
ENDCHAR
STARTCHAR 0038
ENCODING 56
SWIDTH 495 0
DWIDTH 44 0
BBX 38 57 3 -1
BITMAP
0007FFC000
003FFFF800
007FFFFE00
01FFFFFF00
03FFFFFF80
07FFFFFFC0
0FFFFFFFE0
0FFFFFFFE0
1FFFFFFFF0
1FFF01FFF0
1FFC007FF0
3FF8007FF0
3FF0003FF8
3FF0003FF8
3FF0003FF8
3FF0003FF8
3FF0003FF0
3FF0003FF0
3FF8003FF0
3FFC007FF0
3FFE007FE0
1FFF00FFE0
1FFFC1FFC0
0FFFF3FFC0
07FFFFFF80
03FFFFFF00
01FFFFFE00
00FFFFF800
00FFFFFC00
03FFFFFF00
07FFFFFF80
0FFFFFFFC0
1FFE3FFFE0
1FFC07FFF0
3FF801FFF0
3FF000FFF8
7FF0003FF8
7FE0001FFC
7FE0001FFC
7FE0000FFC
FFE0000FFC
FFE0000FFC
FFE0000FFC
FFE0001FFC
7FE0001FFC
7FF0003FFC
7FF8007FF8
7FFF01FFF8
3FFFFFFFF8
3FFFFFFFF0
1FFFFFFFE0
0FFFFFFFC0
07FFFFFF80
03FFFFFF00
01FFFFFE00
007FFFF000
0007FF8000
ENDCHAR
STARTCHAR 0039
ENCODING 57
SWIDTH 495 0
DWIDTH 44 0
BBX 37 56 4 0
BITMAP
000FFF0000
007FFFE000
00FFFFF000
01FFFFFC00
07FFFFFE00
07FFFFFE00
0FFFFFFF00
1FFFFFFF80
1FFFFFFF80
3FFE07FFC0
3FF803FFC0
7FF001FFE0
7FF000FFE0
7FE000FFE0
FFE0007FF0
FFE0007FF0
FFE0007FF0
FFE0003FF0
FFE0003FF0
FFE0003FF0
FFE0003FF8
FFE0003FF8
FFE0003FF8
7FF0003FF8
7FF8003FF8
7FFC003FF8
7FFF83FFF8
3FFFFFFFF0
3FFFFFFFF0
1FFFFFFFF0
0FFFFFFFF0
07FFFFFFF0
03FFFFFFF0
00FFFFFFE0
003FFFFFE0
0003F8FFE0
000001FFE0
000003FFC0
000003FFC0
000007FF80
00000FFF80
00001FFF00
00003FFF00
0000FFFE00
0003FFFC00
000FFFFC00
01FFFFF800
1FFFFFF000
1FFFFFE000
1FFFFFC000
0FFFFF0000
0FFFFE0000
0FFFF80000
0FFFE00000
0FFF000000
0FF0000000
ENDCHAR
STARTCHAR 003A
ENCODING 58
SWIDTH 495 0
DWIDTH 44 0
BBX 16 43 14 -1
BITMAP
03E0
0FF8
3FFC
3FFE
7FFF
7FFF
FFFF
FFFF
FFFF
FFFF
7FFF
7FFF
3FFE
3FFC
1FF8
07E0
0000
0000
0000
0000
0000
0000
0000
0000
0000
0000
0000
03E0
0FF8
3FFC
3FFE
7FFF
7FFF
FFFF
FFFF
FFFF
FFFF
7FFF
7FFF
3FFE
3FFC
1FF8
07E0
ENDCHAR
STARTCHAR 003B
ENCODING 59
SWIDTH 495 0
DWIDTH 44 0
BBX 20 55 10 -14
BITMAP
003E00
00FF80
03FFC0
03FFE0
07FFF0
07FFF0
0FFFF0
0FFFF0
0FFFF0
0FFFF0
07FFF0
07FFF0
03FFE0
03FFC0
01FF80
007E00
000000
000000
000000
000000
000000
000000
000000
000000
000000
000000
000000
003E00
00FF80
03FFC0
03FFE0
07FFE0
07FFF0
0FFFF0
0FFFF0
0FFFF0
0FFFF0
07FFF0
07FFF0
03FFF0
03FFF0
01FFE0
007FE0
001FE0
003FC0
003FC0
00FF80
07FF80
FFFF00
7FFE00
7FFC00
7FF800
7FE000
7F8000
3E0000
ENDCHAR
STARTCHAR 003C
ENCODING 60
SWIDTH 495 0
DWIDTH 44 0
BBX 37 38 4 4
BITMAP
0000000040
00000003E0
0000000FE0
0000007FE0
000001FFF0
000007FFF0
00003FFFF0
0000FFFFF8
0003FFFFF8
001FFFFFF8
007FFFFFE0
03FFFFFF00
0FFFFFF800
3FFFFFE000
FFFFFF0000
FFFFFC0000
FFFFE00000
FFFF800000
FFFC000000
FFF8000000
FFFF000000
FFFFC00000
FFFFF80000
FFFFFE0000
7FFFFFC000
1FFFFFF800
03FFFFFE00
00FFFFFFC0
001FFFFFF0
0007FFFFF8
0001FFFFF8
00003FFFF0
00000FFFF0
000003FFF0
0000007FE0
0000001FE0
00000007E0
00000000C0
ENDCHAR
STARTCHAR 003D
ENCODING 61
SWIDTH 495 0
DWIDTH 44 0
BBX 37 27 4 10
BITMAP
FFFFFFFFF8
FFFFFFFFF8
FFFFFFFFF8
FFFFFFFFF8
FFFFFFFFF8
FFFFFFFFF8
FFFFFFFFF8
FFFFFFFFF8
FFFFFFFFF8
FFFFFFFFF8
0000000000
0000000000
0000000000
0000000000
0000000000
0000000000
0000000000
0000000000
FFFFFFFFF8
FFFFFFFFF8
FFFFFFFFF8
FFFFFFFFF8
FFFFFFFFF8
FFFFFFFFF8
FFFFFFFFF8
FFFFFFFFF8
FFFFFFFFF8
ENDCHAR
STARTCHAR 003E
ENCODING 62
SWIDTH 495 0
DWIDTH 44 0
BBX 37 38 4 3
BITMAP
3000000000
3C00000000
3F80000000
3FE0000000
7FFC000000
7FFF000000
7FFFC00000
FFFFF80000
FFFFFE0000
FFFFFF8000
3FFFFFF000
07FFFFFC00
01FFFFFF80
003FFFFFE0
000FFFFFF8
0001FFFFF8
00007FFFF8
00000FFFF8
000001FFF8
000000FFF8
000007FFF8
00001FFFF8
0000FFFFF8
0003FFFFF8
001FFFFFF0
00FFFFFFC0
03FFFFFE00
1FFFFFF800
7FFFFFC000
FFFFFF0000
FFFFFC0000
FFFFE00000
7FFF800000
7FFE000000
7FF0000000
3FC0000000
3E00000000
3800000000
ENDCHAR
STARTCHAR 003F
ENCODING 63
SWIDTH 495 0
DWIDTH 44 0
BBX 33 57 6 -1
BITMAP
007FFC0000
07FFFF8000
1FFFFFE000
7FFFFFF000
FFFFFFF800
7FFFFFFC00
7FFFFFFE00
7FFFFFFE00
3FFFFFFF00
3FC07FFF00
1E001FFF00
18000FFF00
000007FF80
000007FF80
000007FF80
000007FF00
000007FF00
00000FFF00
00001FFF00
00003FFE00
00007FFC00
0000FFFC00
0001FFF800
0003FFF000
0007FFE000
000FFFC000
001FFF8000
001FFF0000
003FFE0000
003FFC0000
007FF80000
007FF00000
007FF00000
007FE00000
007FE00000
007FE00000
0000000000
0000000000
0000000000
0000000000
0000000000
0000000000
0002000000
003FC00000
007FF00000
00FFF80000
00FFF80000
01FFFC0000
01FFFC0000
01FFFC0000
01FFFC0000
01FFFC0000
01FFF80000
00FFF80000
007FF00000
003FE00000
001F800000
ENDCHAR
STARTCHAR 0040
ENCODING 64
SWIDTH 495 0
DWIDTH 44 0
BBX 40 68 2 -12
BITMAP
0000FFF000
0007FFFC00
001FFFFF00
003FFFFF80
007FFFFFC0
00FFFFFFE0
01FFFFFFF0
03FFFFFFF8
07FF803FF8
07FE000FFC
0FFC0007FC
0FF80007FC
1FF00003FE
1FF00003FE
3FE00003FE
3FE00003FE
3FC00003FE
7FC007FFFF
7FC01FFFFF
7F803FFFFF
7F807FFFFF
7F80FFFFFF
FF81FFFFFF
FF01FFFFFF
FF03FFFFFF
FF03FFFFFF
FF03FF83FF
FF07FF03FF
FF07FE03FF
FF07FE03FF
FF07FC03FF
FF07FC03FF
FF07FC03FF
FF07FC03FF
FF07FC03FF
FF07FC03FF
FF07FC03FF
FF07FC03FF
FF07FC03FF
FF07FE03FF
FF07FE03FF
FF07FF03FF
FF03FF03FF
FF03FFC3FF
FF03FFFFFF
7F81FFFFFF
7F81FFFFFF
7F80FFFFFF
7F807FFFFF
7FC03FFFFF
3FC01FFFFF
3FE007FFFE
3FE000FFC0
1FF0000000
1FF8000000
0FF8000000
0FFE000000
07FF000000
03FFC00000
03FFF80018
01FFFFFFF8
00FFFFFFF8
007FFFFFF8
003FFFFFFC
000FFFFFFC
0003FFFFFC
00007FFFFC
000007FFC0
ENDCHAR
STARTCHAR 0041
ENCODING 65
SWIDTH 495 0
DWIDTH 44 0
BBX 43 55 1 0
BITMAP
0001FFF00000
0001FFF00000
0001FFF00000
0003FFF00000
0003FFF80000
0003FFF80000
0007FFF80000
0007FFFC0000
0007FFFC0000
000FFFFC0000
000FFFFE0000
000FFFFE0000
000FFBFE0000
001FF3FF0000
001FF3FF0000
001FF3FF0000
003FF1FF0000
003FE1FF8000
003FE1FF8000
007FE0FF8000
007FC0FFC000
007FC0FFC000
007FC0FFC000
00FFC07FE000
00FFC07FE000
00FF807FE000
01FF807FE000
01FF807FF000
01FF803FF000
03FF003FF000
03FF003FF000
03FF003FF800
03FF003FF800
07FFFFFFF800
07FFFFFFFC00
07FFFFFFFC00
07FFFFFFFC00
0FFFFFFFFC00
0FFFFFFFFE00
0FFFFFFFFE00
1FFFFFFFFE00
1FFFFFFFFE00
1FFC000FFF00
1FF80007FF00
3FF80007FF00
3FF80007FF00
3FF80007FF80
3FF80007FF80
7FF00003FF80
7FF00003FF80
7FF00003FFC0
7FF00003FFC0
FFF00003FFC0
FFE00001FFC0
FFE00001FFE0
ENDCHAR
STARTCHAR 0042
ENCODING 66
SWIDTH 495 0
DWIDTH 44 0
BBX 37 57 5 -1
BITMAP
001FC00000
7FFFFF0000
FFFFFFC000
FFFFFFF000
FFFFFFFC00
FFFFFFFE00
FFFFFFFF00
FFFFFFFF00
FFFFFFFF80
FFFFFFFF80
FFE00FFFC0
FFE003FFC0
FFE001FFC0
FFE001FFC0
FFE001FFC0
FFE001FFC0
FFE001FFC0
FFE001FFC0
FFE001FFC0
FFE001FF80
FFE003FF80
FFE007FF00
FFE03FFF00
FFFFFFFE00
FFFFFFFC00
FFFFFFF800
FFFFFFE000
FFFFFFF800
FFFFFFFE00
FFFFFFFF00
FFFFFFFFC0
FFFFFFFFC0
FFE007FFE0
FFE001FFE0
FFE000FFF0
FFE0007FF0
FFE0007FF0
FFE0003FF8
FFE0003FF8
FFE0003FF8
FFE0003FF8
FFE0003FF8
FFE0007FF0
FFE0007FF0
FFE000FFF0
FFE001FFF0
FFE007FFF0
FFFFFFFFE0
FFFFFFFFE0
FFFFFFFFC0
FFFFFFFF80
FFFFFFFF00
FFFFFFFE00
FFFFFFFC00
FFFFFFF000
3FFFFF8000
001FF00000
ENDCHAR
STARTCHAR 0043
ENCODING 67
SWIDTH 495 0
DWIDTH 44 0
BBX 39 57 2 -1
BITMAP
00001FFF00
0000FFFFE0
0003FFFFF8
000FFFFFFE
003FFFFFFE
007FFFFFFE
00FFFFFFFE
01FFFFFFFC
03FFFFFFFC
03FFFE07FC
07FFE00078
0FFFC00018
0FFF800000
1FFF000000
1FFE000000
1FFC000000
3FFC000000
3FF8000000
3FF8000000
7FF8000000
7FF0000000
7FF0000000
7FF0000000
7FF0000000
7FF0000000
FFF0000000
FFF0000000
FFF0000000
FFF0000000
FFF0000000
FFF0000000
FFF0000000
7FF0000000
7FF0000000
7FF0000000
7FF0000000
7FF0000000
7FF8000000
7FF8000000
3FF8000000
3FFC000000
3FFC000000
1FFE000000
1FFE000000
1FFF000000
0FFFC00018
0FFFE0007C
07FFFF0FFC
03FFFFFFFC
03FFFFFFFC
01FFFFFFFE
00FFFFFFFE
007FFFFFFE
001FFFFFFE
000FFFFFF8
0001FFFFE0
00003FFE00
ENDCHAR
STARTCHAR 0044
ENCODING 68
SWIDTH 495 0
DWIDTH 44 0
BBX 37 57 5 -1
BITMAP
003E000000
7FFFF80000
FFFFFF0000
FFFFFFC000
FFFFFFF000
FFFFFFF800
FFFFFFFC00
FFFFFFFE00
FFFFFFFF00
FFFFFFFF00
FFE03FFF80
FFE00FFFC0
FFE007FFC0
FFE003FFC0
FFE001FFE0
FFE001FFE0
FFE000FFF0
FFE000FFF0
FFE0007FF0
FFE0007FF0
FFE0007FF0
FFE0007FF8
FFE0003FF8
FFE0003FF8
FFE0003FF8
FFE0003FF8
FFE0003FF8
FFE0003FF8
FFE0003FF8
FFE0003FF8
FFE0003FF8
FFE0003FF8
FFE0003FF8
FFE0003FF8
FFE0007FF8
FFE0007FF8
FFE0007FF0
FFE0007FF0
FFE0007FF0
FFE000FFF0
FFE000FFE0
FFE001FFE0
FFE001FFE0
FFE003FFC0
FFE007FFC0
FFE01FFF80
FFE07FFF80
FFFFFFFF00
FFFFFFFE00
FFFFFFFE00
FFFFFFFC00
FFFFFFF000
FFFFFFE000
FFFFFFC000
FFFFFE0000
FFFFF80000
00FE000000
ENDCHAR
STARTCHAR 0045
ENCODING 69
SWIDTH 495 0
DWIDTH 44 0
BBX 35 55 6 0
BITMAP
FFFFFFFF80
FFFFFFFF80
FFFFFFFF80
FFFFFFFF80
FFFFFFFF80
FFFFFFFF80
FFFFFFFF80
FFFFFFFF80
FFFFFFFF80
FFE0000000
FFE0000000
FFE0000000
FFE0000000
FFE0000000
FFE0000000
FFE0000000
FFE0000000
FFE0000000
FFE0000000
FFE0000000
FFE0000000
FFFFFFFC00
FFFFFFFC00
FFFFFFFC00
FFFFFFFC00
FFFFFFFC00
FFFFFFFC00
FFFFFFFC00
FFFFFFFC00
FFFFFFFC00
FFE0000000
FFE0000000
FFE0000000
FFE0000000
FFE0000000
FFE0000000
FFE0000000
FFE0000000
FFE0000000
FFE0000000
FFE0000000
FFE0000000
FFE0000000
FFE0000000
FFE0000000
FFE0000000
FFFFFFFFE0
FFFFFFFFE0
FFFFFFFFE0
FFFFFFFFE0
FFFFFFFFE0
FFFFFFFFE0
FFFFFFFFE0
FFFFFFFFE0
FFFFFFFFE0
ENDCHAR
STARTCHAR 0046
ENCODING 70
SWIDTH 495 0
DWIDTH 44 0
BBX 33 55 6 0
BITMAP
FFFFFFFF80
FFFFFFFF80
FFFFFFFF80
FFFFFFFF80
FFFFFFFF80
FFFFFFFF80
FFFFFFFF80
FFFFFFFF80
FFFFFFFF80
FFE0000000
FFE0000000
FFE0000000
FFE0000000
FFE0000000
FFE0000000
FFE0000000
FFE0000000
FFE0000000
FFE0000000
FFE0000000
FFE0000000
FFE0000000
FFFFFFFC00
FFFFFFFC00
FFFFFFFC00
FFFFFFFC00
FFFFFFFC00
FFFFFFFC00
FFFFFFFC00
FFFFFFFC00
FFFFFFFC00
FFE0000000
FFE0000000
FFE0000000
FFE0000000
FFE0000000
FFE0000000
FFE0000000
FFE0000000
FFE0000000
FFE0000000
FFE0000000
FFE0000000
FFE0000000
FFE0000000
FFE0000000
FFE0000000
FFE0000000
FFE0000000
FFE0000000
FFE0000000
FFE0000000
FFE0000000
FFE0000000
FFE0000000
ENDCHAR
STARTCHAR 0047
ENCODING 71
SWIDTH 495 0
DWIDTH 44 0
BBX 39 57 2 -1
BITMAP
00003FFE00
0001FFFFE0
0007FFFFF8
001FFFFFFE
003FFFFFFE
007FFFFFFE
00FFFFFFFC
01FFFFFFFC
03FFFFFFFC
07FFFE07F8
07FFF000F8
0FFFC00018
0FFF800000
1FFF000000
1FFE000000
3FFC000000
3FFC000000
3FF8000000
3FF8000000
7FF8000000
7FF0000000
7FF0000000
7FF0000000
7FF0000000
7FF0000000
FFF0000000
FFF0000000
FFF0000FFE
FFF0000FFE
FFF0000FFE
FFF0000FFE
FFF0000FFE
7FF0000FFE
7FF0000FFE
7FF0000FFE
7FF0000FFE
7FF0000FFE
7FF0000FFE
7FF8000FFE
3FF8000FFE
3FF8000FFE
3FFC000FFE
3FFC000FFE
1FFE000FFE
1FFF000FFE
0FFF800FFE
0FFFE00FFE
07FFFC3FFE
07FFFFFFFE
03FFFFFFFE
01FFFFFFFE
00FFFFFFFE
007FFFFFFE
003FFFFFFE
000FFFFFFE
0003FFFFF0
00007FFF00
ENDCHAR
STARTCHAR 0048
ENCODING 72
SWIDTH 495 0
DWIDTH 44 0
BBX 36 55 4 0
BITMAP
FFE0003FF0
FFE0003FF0
FFE0003FF0
FFE0003FF0
FFE0003FF0
FFE0003FF0
FFE0003FF0
FFE0003FF0
FFE0003FF0
FFE0003FF0
FFE0003FF0
FFE0003FF0
FFE0003FF0
FFE0003FF0
FFE0003FF0
FFE0003FF0
FFE0003FF0
FFE0003FF0
FFE0003FF0
FFE0003FF0
FFE0003FF0
FFE0003FF0
FFFFFFFFF0
FFFFFFFFF0
FFFFFFFFF0
FFFFFFFFF0
FFFFFFFFF0
FFFFFFFFF0
FFFFFFFFF0
FFFFFFFFF0
FFFFFFFFF0
FFE0003FF0
FFE0003FF0
FFE0003FF0
FFE0003FF0
FFE0003FF0
FFE0003FF0
FFE0003FF0
FFE0003FF0
FFE0003FF0
FFE0003FF0
FFE0003FF0
FFE0003FF0
FFE0003FF0
FFE0003FF0
FFE0003FF0
FFE0003FF0
FFE0003FF0
FFE0003FF0
FFE0003FF0
FFE0003FF0
FFE0003FF0
FFE0003FF0
FFE0003FF0
FFE0003FF0
ENDCHAR
STARTCHAR 0049
ENCODING 73
SWIDTH 495 0
DWIDTH 44 0
BBX 35 55 5 0
BITMAP
FFFFFFFFE0
FFFFFFFFE0
FFFFFFFFE0
FFFFFFFFE0
FFFFFFFFE0
FFFFFFFFE0
FFFFFFFFE0
FFFFFFFFE0
FFFFFFFFE0
000FFE0000
000FFE0000
000FFE0000
000FFE0000
000FFE0000
000FFE0000
000FFE0000
000FFE0000
000FFE0000
000FFE0000
000FFE0000
000FFE0000
000FFE0000
000FFE0000
000FFE0000
000FFE0000
000FFE0000
000FFE0000
000FFE0000
000FFE0000
000FFE0000
000FFE0000
000FFE0000
000FFE0000
000FFE0000
000FFE0000
000FFE0000
000FFE0000
000FFE0000
000FFE0000
000FFE0000
000FFE0000
000FFE0000
000FFE0000
000FFE0000
000FFE0000
000FFE0000
FFFFFFFFE0
FFFFFFFFE0
FFFFFFFFE0
FFFFFFFFE0
FFFFFFFFE0
FFFFFFFFE0
FFFFFFFFE0
FFFFFFFFE0
FFFFFFFFE0
ENDCHAR
STARTCHAR 004A
ENCODING 74
SWIDTH 495 0
DWIDTH 44 0
BBX 35 56 4 -1
BITMAP
03FFFFFFE0
03FFFFFFE0
03FFFFFFE0
03FFFFFFE0
03FFFFFFE0
03FFFFFFE0
03FFFFFFE0
03FFFFFFE0
03FFFFFFE0
000000FFE0
000000FFE0
000000FFE0
000000FFE0
000000FFE0
000000FFE0
000000FFE0
000000FFE0
000000FFE0
000000FFE0
000000FFE0
000000FFE0
000000FFE0
000000FFE0
000000FFE0
000000FFE0
000000FFE0
000000FFE0
000000FFE0
000000FFE0
000000FFE0
000000FFE0
000000FFE0
000000FFE0
000000FFE0
000000FFE0
000000FFE0
000000FFE0
000000FFE0
000000FFE0
000000FFE0
000001FFE0
000001FFE0
000001FFC0
180003FFC0
1E0007FFC0
3F800FFF80
3FF8FFFF80
3FFFFFFF80
7FFFFFFF00
7FFFFFFE00
FFFFFFFC00
FFFFFFF800
7FFFFFF000
1FFFFFE000
07FFFF8000
00FFFC0000
ENDCHAR
STARTCHAR 004B
ENCODING 75
SWIDTH 495 0
DWIDTH 44 0
BBX 39 55 4 0
BITMAP
FFE0007FF8
FFE0007FF8
FFE000FFF0
FFE000FFF0
FFE001FFE0
FFE003FFE0
FFE003FFC0
FFE007FF80
FFE007FF80
FFE00FFF00
FFE00FFF00
FFE01FFE00
FFE03FFC00
FFE03FFC00
FFE07FF800
FFE0FFF000
FFE0FFE000
FFE1FFE000
FFE3FFC000
FFE7FF8000
FFE7FF8000
FFEFFF0000
FFFFFE0000
FFFFFC0000
FFFFF80000
FFFFF80000
FFFFFC0000
FFFFFE0000
FFFFFF0000
FFFFFF8000
FFEFFF8000
FFE7FFC000
FFE3FFE000
FFE3FFF000
FFE1FFF800
FFE0FFF800
FFE07FFC00
FFE03FFE00
FFE03FFE00
FFE01FFF00
FFE00FFF80
FFE00FFF80
FFE007FFC0
FFE003FFC0
FFE003FFE0
FFE001FFE0
FFE001FFF0
FFE000FFF0
FFE000FFF8
FFE0007FF8
FFE0007FFC
FFE0003FFC
FFE0003FFE
FFE0001FFE
FFE0001FFE
ENDCHAR
STARTCHAR 004C
ENCODING 76
SWIDTH 495 0
DWIDTH 44 0
BBX 35 55 6 0
BITMAP
FFE0000000
FFE0000000
FFE0000000
FFE0000000
FFE0000000
FFE0000000
FFE0000000
FFE0000000
FFE0000000
FFE0000000
FFE0000000
FFE0000000
FFE0000000
FFE0000000
FFE0000000
FFE0000000
FFE0000000
FFE0000000
FFE0000000
FFE0000000
FFE0000000
FFE0000000
FFE0000000
FFE0000000
FFE0000000
FFE0000000
FFE0000000
FFE0000000
FFE0000000
FFE0000000
FFE0000000
FFE0000000
FFE0000000
FFE0000000
FFE0000000
FFE0000000
FFE0000000
FFE0000000
FFE0000000
FFE0000000
FFE0000000
FFE0000000
FFE0000000
FFE0000000
FFE0000000
FFE0000000
FFFFFFFFE0
FFFFFFFFE0
FFFFFFFFE0
FFFFFFFFE0
FFFFFFFFE0
FFFFFFFFE0
FFFFFFFFE0
FFFFFFFFE0
FFFFFFFFE0
ENDCHAR
STARTCHAR 004D
ENCODING 77
SWIDTH 495 0
DWIDTH 44 0
BBX 40 55 2 0
BITMAP
1FF0000FF8
1FF8001FF8
1FF8001FF8
1FF8001FF8
1FFC003FF8
1FFC003FFC
1FFC003FFC
1FFE003FFC
3FFE007FFC
3FFE007FFC
3FFF007FFC
3FFF00FFFC
3FFF00FFFC
3FFF80FFFC
3FFF81FDFC
3FDF81FDFC
3FDFC1FDFC
3FDFC3F9FE
3FDFC3F9FE
3FCFC3F9FE
3FCFE7F9FE
3FCFE7F1FE
7FCFE7F1FE
7FC7FFF1FE
7FC7FFE1FE
7FC7FFE1FE
7FC3FFE1FE
7FC3FFC1FE
7FC3FFC1FE
7FC3FFC1FE
7FC1FFC1FE
7FC1FF81FE
7FC1FF81FF
7FC0FF81FF
7FC0FF01FF
7FC0FF01FF
7FC00001FF
7FC00001FF
7FC00001FF
7FC00001FF
7FC00001FF
7FC00001FF
7FC00003FF
FFC00003FF
FFC00003FF
FFC00003FF
FFC00003FF
FFC00003FF
FFC00003FF
FFC00003FF
FFC00003FF
FFC00003FF
FFC00003FF
FFC00003FF
FFC00003FF
ENDCHAR
STARTCHAR 004E
ENCODING 78
SWIDTH 495 0
DWIDTH 44 0
BBX 36 55 4 0
BITMAP
FF80003FF0
FFC0003FF0
FFC0003FF0
FFE0003FF0
FFF0003FF0
FFF0003FF0
FFF8003FF0
FFF8003FF0
FFFC003FF0
FFFC003FF0
FFFE003FF0
FFFE003FF0
FFFF003FF0
FFFF803FF0
FFFF803FF0
FFFFC03FF0
FFFFC03FF0
FFFFE03FF0
FFFFE03FF0
FFDFF03FF0
FFDFF03FF0
FFCFF83FF0
FFCFF83FF0
FFC7FC3FF0
FFC7FC3FF0
FFC3FE3FF0
FFC3FE3FF0
FFC1FF3FF0
FFC1FF3FF0
FFC0FFBFF0
FFC0FFBFF0
FFC07FBFF0
FFC07FFFF0
FFC03FFFF0
FFC03FFFF0
FFC01FFFF0
FFC01FFFF0
FFC00FFFF0
FFC00FFFF0
FFC007FFF0
FFC007FFF0
FFC003FFF0
FFC003FFF0
FFC001FFF0
FFC001FFF0
FFC001FFF0
FFC000FFF0
FFC000FFF0
FFC0007FF0
FFC0007FF0
FFC0003FF0
FFC0003FF0
FFC0001FF0
FFC0001FF0
FFC0001FF0
ENDCHAR
STARTCHAR 004F
ENCODING 79
SWIDTH 495 0
DWIDTH 44 0
BBX 40 57 2 -1
BITMAP
0001FFC000
000FFFF800
003FFFFC00
007FFFFF00
00FFFFFF80
01FFFFFFC0
03FFFFFFE0
07FFFFFFE0
07FFFFFFF0
0FFFE3FFF0
0FFF00FFF8
1FFE007FF8
1FFC003FFC
3FFC001FFC
3FF8001FFC
3FF8000FFE
3FF8000FFE
7FF0000FFE
7FF0000FFE
7FF0000FFE
7FF00007FF
7FF00007FF
7FF00007FF
7FF00007FF
FFF00007FF
FFF00007FF
FFF00007FF
FFF00007FF
FFF00007FF
FFF00007FF
FFF00007FF
FFF00007FF
7FF00007FF
7FF00007FF
7FF00007FF
7FF00007FF
7FF00007FF
7FF0000FFE
7FF0000FFE
7FF0000FFE
3FF8000FFE
3FF8000FFE
3FF8001FFC
3FFC001FFC
1FFC003FFC
1FFE007FF8
0FFF00FFF8
0FFFE7FFF0
07FFFFFFF0
07FFFFFFE0
03FFFFFFC0
01FFFFFFC0
00FFFFFF80
007FFFFF00
003FFFFC00
000FFFF000
0001FFC000
ENDCHAR
STARTCHAR 0050
ENCODING 80
SWIDTH 495 0
DWIDTH 44 0
BBX 37 56 5 0
BITMAP
003FC00000
7FFFFF0000
FFFFFFE000
FFFFFFF800
FFFFFFFE00
FFFFFFFF00
FFFFFFFF80
FFFFFFFFC0
FFFFFFFFE0
FFFFFFFFE0
FFE00FFFF0
FFE001FFF0
FFE000FFF0
FFE0007FF0
FFE0007FF8
FFE0007FF8
FFE0003FF8
FFE0003FF8
FFE0003FF8
FFE0003FF8
FFE0003FF8
FFE0007FF8
FFE0007FF8
FFE0007FF8
FFE000FFF0
FFE001FFF0
FFE003FFF0
FFE01FFFE0
FFFFFFFFE0
FFFFFFFFC0
FFFFFFFFC0
FFFFFFFF80
FFFFFFFF00
FFFFFFFE00
FFFFFFF800
FFFFFFE000
FFFFFE0000
FFE0000000
FFE0000000
FFE0000000
FFE0000000
FFE0000000
FFE0000000
FFE0000000
FFE0000000
FFE0000000
FFE0000000
FFE0000000
FFE0000000
FFE0000000
FFE0000000
FFE0000000
FFE0000000
FFE0000000
FFE0000000
FFE0000000
ENDCHAR
STARTCHAR 0051
ENCODING 81
SWIDTH 495 0
DWIDTH 44 0
BBX 40 71 2 -15
BITMAP
0000FF8000
0007FFF000
001FFFFC00
007FFFFE00
00FFFFFF80
01FFFFFFC0
03FFFFFFC0
07FFFFFFE0
07FFFFFFF0
0FFFFFFFF0
0FFF00FFF8
1FFE007FF8
1FFC003FFC
3FFC001FFC
3FF8001FFC
3FF8001FFE
3FF8000FFE
7FF0000FFE
7FF0000FFE
7FF0000FFE
7FF00007FF
7FF00007FF
7FF00007FF
7FF00007FF
FFF00007FF
FFF00007FF
FFF00007FF
FFF00007FF
FFF00007FF
FFF00007FF
FFF00007FF
FFF00007FF
FFF00007FF
7FF00007FF
7FF00007FF
7FF00007FF
7FF00007FF
7FF0000FFE
7FF0000FFE
7FF0000FFE
3FF8000FFE
3FF8000FFE
3FF8001FFC
3FFC001FFC
1FFC003FFC
1FFE003FF8
0FFF007FF8
0FFFC1FFF0
07FFFFFFF0
07FFFFFFE0
03FFFFFFE0
01FFFFFFC0
00FFFFFF80
007FFFFF00
003FFFFC00
000FFFF800
0003FFC000
0001FF8000
0000FFC000
0000FFE000
0000FFF800
00007FFF00
00007FFFF0
00003FFFFF
00001FFFFE
00000FFFFE
000003FFFE
000000FFFC
0000003FFC
00000007FC
0000000038
ENDCHAR
STARTCHAR 0052
ENCODING 82
SWIDTH 495 0
DWIDTH 44 0
BBX 38 56 5 0
BITMAP
003F000000
7FFFFE0000
FFFFFFC000
FFFFFFE000
FFFFFFF800
FFFFFFFC00
FFFFFFFE00
FFFFFFFF00
FFFFFFFF00
FFFFFFFF80
FFE03FFF80
FFE00FFFC0
FFE003FFC0
FFE003FFC0
FFE001FFE0
FFE001FFE0
FFE000FFE0
FFE000FFE0
FFE000FFE0
FFE000FFE0
FFE001FFE0
FFE001FFE0
FFE001FFC0
FFE003FFC0
FFE007FFC0
FFE00FFFC0
FFE0FFFF80
FFFFFFFF80
FFFFFFFF00
FFFFFFFE00
FFFFFFFC00
FFFFFFF800
FFFFFFE000
FFFFFFE000
FFFFFFE000
FFFFFFF000
FFE07FF800
FFE07FF800
FFE03FFC00
FFE01FFC00
FFE01FFE00
FFE00FFE00
FFE00FFF00
FFE007FF80
FFE003FF80
FFE003FFC0
FFE001FFC0
FFE001FFE0
FFE000FFE0
FFE000FFF0
FFE0007FF0
FFE0007FF8
FFE0003FF8
FFE0003FF8
FFE0003FFC
FFE0001FFC
ENDCHAR
STARTCHAR 0053
ENCODING 83
SWIDTH 495 0
DWIDTH 44 0
BBX 37 57 4 -1
BITMAP
0007FFE000
003FFFFC00
00FFFFFF00
03FFFFFFC0
07FFFFFFC0
0FFFFFFFC0
1FFFFFFF80
3FFFFFFF80
3FFFFFFF80
3FFF007F00
7FF8000F00
7FF0000200
7FF0000000
7FE0000000
FFE0000000
FFE0000000
FFE0000000
FFF0000000
FFF8000000
7FFC000000
7FFE000000
7FFF800000
3FFFE00000
3FFFFC0000
1FFFFF0000
0FFFFFE000
07FFFFF800
03FFFFFC00
01FFFFFF00
007FFFFF80
001FFFFF80
0003FFFFC0
0000FFFFE0
00001FFFE0
000007FFF0
000003FFF0
000000FFF0
0000007FF8
0000007FF8
0000003FF8
0000003FF8
0000003FF8
0000003FF8
0000003FF8
0000007FF8
380000FFF0
3F0001FFF0
3FE007FFF0
7FFFFFFFE0
7FFFFFFFE0
FFFFFFFFC0
FFFFFFFF80
FFFFFFFF00
FFFFFFFE00
1FFFFFFC00
07FFFFE000
007FFF0000
ENDCHAR
STARTCHAR 0054
ENCODING 84
SWIDTH 495 0
DWIDTH 44 0
BBX 40 55 2 0
BITMAP
FFFFFFFFFF
FFFFFFFFFF
FFFFFFFFFF
FFFFFFFFFF
FFFFFFFFFF
FFFFFFFFFF
FFFFFFFFFF
FFFFFFFFFF
FFFFFFFFFF
0001FFC000
0001FFC000
0001FFC000
0001FFC000
0001FFC000
0001FFC000
0001FFC000
0001FFC000
0001FFC000
0001FFC000
0001FFC000
0001FFC000
0001FFC000
0001FFC000
0001FFC000
0001FFC000
0001FFC000
0001FFC000
0001FFC000
0001FFC000
0001FFC000
0001FFC000
0001FFC000
0001FFC000
0001FFC000
0001FFC000
0001FFC000
0001FFC000
0001FFC000
0001FFC000
0001FFC000
0001FFC000
0001FFC000
0001FFC000
0001FFC000
0001FFC000
0001FFC000
0001FFC000
0001FFC000
0001FFC000
0001FFC000
0001FFC000
0001FFC000
0001FFC000
0001FFC000
0001FFC000
ENDCHAR
STARTCHAR 0055
ENCODING 85
SWIDTH 495 0
DWIDTH 44 0
BBX 38 56 3 -1
BITMAP
FFE0001FFC
FFE0001FFC
FFE0001FFC
FFE0001FFC
FFE0001FFC
FFE0001FFC
FFE0001FFC
FFE0001FFC
FFE0001FFC
FFE0001FFC
FFE0001FFC
FFE0001FFC
FFE0001FFC
FFE0001FFC
FFE0001FFC
FFE0001FFC
FFE0001FFC
FFE0001FFC
FFE0001FFC
FFE0001FFC
FFE0001FFC
FFE0001FFC
FFE0001FFC
FFE0001FFC
FFE0001FFC
FFE0001FFC
FFE0001FFC
FFE0001FFC
FFE0001FFC
FFE0001FFC
FFE0001FFC
FFE0001FFC
FFE0001FFC
FFE0001FFC
FFE0001FFC
FFE0001FFC
FFF0001FFC
7FF0001FFC
7FF0001FFC
7FF0001FFC
7FF0001FFC
7FF0003FFC
7FF0003FF8
7FF8003FF8
3FF8007FF8
3FFC00FFF8
3FFF87FFF0
1FFFFFFFF0
1FFFFFFFE0
0FFFFFFFE0
0FFFFFFFC0
07FFFFFF80
03FFFFFF00
00FFFFFC00
003FFFF800
0007FF8000
ENDCHAR
STARTCHAR 0056
ENCODING 86
SWIDTH 495 0
DWIDTH 44 0
BBX 42 55 1 0
BITMAP
FFF00001FFC0
FFF00001FFC0
7FF00003FFC0
7FF00003FFC0
7FF00003FF80
7FF80003FF80
3FF80003FF80
3FF80003FF80
3FF80007FF80
3FF80007FF00
3FF80007FF00
1FFC0007FF00
1FFC0007FF00
1FFC000FFE00
1FFC000FFE00
0FFC000FFE00
0FFE000FFE00
0FFE000FFC00
0FFE001FFC00
07FE001FFC00
07FE001FFC00
07FF001FF800
03FF001FF800
03FF003FF800
03FF003FF800
03FF803FF000
01FF803FF000
01FF803FF000
01FF807FE000
00FF807FE000
00FFC07FE000
00FFC07FE000
00FFC0FFC000
007FC0FFC000
007FE0FFC000
007FE0FF8000
003FE1FF8000
003FE1FF8000
003FF1FF0000
003FF1FF0000
001FF3FF0000
001FFBFE0000
001FFBFE0000
000FFFFE0000
000FFFFC0000
000FFFFC0000
0007FFFC0000
0007FFF80000
0007FFF80000
0003FFF80000
0003FFF00000
0003FFF00000
0001FFF00000
0001FFE00000
0001FFE00000
ENDCHAR
STARTCHAR 0057
ENCODING 87
SWIDTH 495 0
DWIDTH 44 0
BBX 40 55 2 0
BITMAP
FFC00003FF
FFC00003FF
FFC00003FF
FFC00003FF
FFC00003FF
FFC00003FF
FFC00003FF
FFC00003FF
FFC00003FF
FFC00003FF
FFC00003FF
FFC00003FF
FFC00003FF
FFC00003FF
7FC00003FF
7FC00003FF
7FC00003FF
7FC00003FF
7FC00003FF
7FC0FF03FF
7FC0FF83FF
7FC0FF81FF
7FC1FF81FE
7FC1FF81FE
7FC1FFC1FE
7FC1FFC1FE
7FC3FFC1FE
7FC3FFC1FE
7FC3FFE1FE
7FC7FFE1FE
7FC7FFE1FE
7FC7F7F1FE
7FC7F7F1FE
7FCFE7F1FE
3FCFE3F1FE
3FCFE3F9FE
3FDFC3F9FE
3FDFC1F9FE
3FDFC1FDFE
3FFF81FDFE
3FFF80FDFE
3FFF80FDFC
3FFF00FFFC
3FFF00FFFC
3FFF007FFC
3FFE007FFC
3FFE007FFC
1FFE003FFC
1FFC003FFC
1FFC003FFC
1FFC001FFC
1FFC001FFC
1FF8001FFC
1FF8000FF8
1FF8000FF8
ENDCHAR
STARTCHAR 0058
ENCODING 88
SWIDTH 495 0
DWIDTH 44 0
BBX 42 55 1 0
BITMAP
7FF80003FF80
3FF80003FF80
3FFC0007FF00
1FFC0007FF00
1FFE000FFE00
0FFE000FFE00
0FFF001FFC00
07FF001FF800
03FF803FF800
03FF803FF000
01FFC07FF000
01FFC07FE000
00FFE0FFE000
00FFE0FFC000
007FF1FFC000
007FF3FF8000
003FFBFF8000
001FFFFF0000
001FFFFE0000
000FFFFE0000
000FFFFC0000
0007FFFC0000
0007FFF80000
0003FFF80000
0003FFF00000
0001FFF00000
0001FFF00000
0003FFF80000
0003FFF80000
0007FFFC0000
0007FFFC0000
000FFFFE0000
000FFFFF0000
001FFFFF0000
003FFBFF8000
003FFBFF8000
007FF1FFC000
007FF1FFC000
00FFE0FFE000
00FFE0FFE000
01FFC0FFF000
01FFC07FF000
03FF807FF800
03FF803FF800
07FF003FFC00
07FF001FFC00
0FFE001FFE00
1FFE000FFE00
1FFE000FFF00
3FFC000FFF00
3FFC0007FF80
7FF80007FF80
7FF80003FF80
7FF00003FFC0
FFF00003FFC0
ENDCHAR
STARTCHAR 0059
ENCODING 89
SWIDTH 495 0
DWIDTH 44 0
BBX 42 55 1 0
BITMAP
FFF00001FFC0
7FF00001FFC0
7FF80003FF80
7FF80003FF80
3FF80003FF80
3FFC0007FF00
1FFC0007FF00
1FFC0007FF00
1FFE000FFE00
0FFE000FFE00
0FFE001FFC00
07FF001FFC00
07FF001FF800
03FF803FF800
03FF803FF800
03FF803FF000
01FFC07FF000
01FFC07FE000
00FFE0FFE000
00FFE0FFC000
007FE0FFC000
007FF1FF8000
003FF1FF8000
003FFBFF0000
001FFBFF0000
001FFFFE0000
000FFFFE0000
000FFFFC0000
0007FFFC0000
0007FFF80000
0003FFF80000
0003FFF00000
0001FFF00000
0001FFE00000
0000FFE00000
0000FFE00000
0000FFE00000
0000FFE00000
0000FFE00000
0000FFE00000
0000FFE00000
0000FFE00000
0000FFE00000
0000FFE00000
0000FFE00000
0000FFE00000
0000FFE00000
0000FFE00000
0000FFE00000
0000FFE00000
0000FFE00000
0000FFE00000
0000FFE00000
0000FFE00000
0000FFE00000
ENDCHAR
STARTCHAR 005A
ENCODING 90
SWIDTH 495 0
DWIDTH 44 0
BBX 36 55 4 0
BITMAP
7FFFFFFFF0
7FFFFFFFF0
7FFFFFFFF0
7FFFFFFFF0
7FFFFFFFF0
7FFFFFFFF0
7FFFFFFFF0
7FFFFFFFF0
7FFFFFFFE0
000003FFC0
000003FFC0
000007FF80
00000FFF00
00000FFF00
00001FFE00
00001FFC00
00003FFC00
00007FF800
00007FF800
0000FFF000
0000FFE000
0001FFE000
0003FFC000
0003FFC000
0007FF8000
0007FF0000
000FFF0000
000FFE0000
001FFE0000
003FFC0000
003FF80000
007FF80000
007FF00000
00FFF00000
00FFE00000
01FFE00000
03FFC00000
03FF800000
07FF800000
07FF000000
0FFF000000
0FFE000000
1FFE000000
1FFC000000
3FF8000000
3FF8000000
7FFFFFFFF0
7FFFFFFFF0
FFFFFFFFF0
FFFFFFFFF0
FFFFFFFFF0
FFFFFFFFF0
FFFFFFFFF0
FFFFFFFFF0
FFFFFFFFF0
ENDCHAR
STARTCHAR 005B
ENCODING 91
SWIDTH 495 0
DWIDTH 44 0
BBX 25 77 10 -15
BITMAP
FFFFFF80
FFFFFF80
FFFFFF80
FFFFFF80
FFFFFF80
FFFFFF80
FFFFFF80
FFFFFF80
FFC00000
FFC00000
FFC00000
FFC00000
FFC00000
FFC00000
FFC00000
FFC00000
FFC00000
FFC00000
FFC00000
FFC00000
FFC00000
FFC00000
FFC00000
FFC00000
FFC00000
FFC00000
FFC00000
FFC00000
FFC00000
FFC00000
FFC00000
FFC00000
FFC00000
FFC00000
FFC00000
FFC00000
FFC00000
FFC00000
FFC00000
FFC00000
FFC00000
FFC00000
FFC00000
FFC00000
FFC00000
FFC00000
FFC00000
FFC00000
FFC00000
FFC00000
FFC00000
FFC00000
FFC00000
FFC00000
FFC00000
FFC00000
FFC00000
FFC00000
FFC00000
FFC00000
FFC00000
FFC00000
FFC00000
FFC00000
FFC00000
FFC00000
FFC00000
FFC00000
FFFFFF80
FFFFFF80
FFFFFF80
FFFFFF80
FFFFFF80
FFFFFF80
FFFFFF80
FFFFFF80
FFFFFF80
ENDCHAR
STARTCHAR 005C
ENCODING 92
SWIDTH 495 0
DWIDTH 44 0
BBX 35 77 5 -15
BITMAP
FFE0000000
FFE0000000
FFE0000000
7FF0000000
7FF0000000
7FF0000000
7FF8000000
3FF8000000
3FF8000000
3FFC000000
1FFC000000
1FFC000000
1FFE000000
0FFE000000
0FFE000000
0FFF000000
07FF000000
07FF000000
07FF800000
03FF800000
03FF800000
03FFC00000
01FFC00000
01FFC00000
01FFE00000
00FFE00000
00FFE00000
00FFF00000
007FF00000
007FF00000
007FF00000
003FF80000
003FF80000
003FF80000
001FFC0000
001FFC0000
001FFC0000
000FFE0000
000FFE0000
000FFE0000
000FFF0000
0007FF0000
0007FF0000
0007FF8000
0003FF8000
0003FF8000
0003FFC000
0001FFC000
0001FFC000
0001FFE000
0000FFE000
0000FFE000
0000FFF000
00007FF000
00007FF000
00007FF800
00003FF800
00003FF800
00003FFC00
00001FFC00
00001FFC00
00001FFE00
00000FFE00
00000FFE00
00000FFF00
000007FF00
000007FF00
000007FF00
000003FF80
000003FF80
000003FF80
000003FFC0
000001FFC0
000001FFC0
000001FFE0
000000FFE0
000000FFE0
ENDCHAR
STARTCHAR 005D
ENCODING 93
SWIDTH 495 0
DWIDTH 44 0
BBX 24 77 10 -15
BITMAP
FFFFFF
FFFFFF
FFFFFF
FFFFFF
FFFFFF
FFFFFF
FFFFFF
FFFFFF
0003FF
0003FF
0003FF
0003FF
0003FF
0003FF
0003FF
0003FF
0003FF
0003FF
0003FF
0003FF
0003FF
0003FF
0003FF
0003FF
0003FF
0003FF
0003FF
0003FF
0003FF
0003FF
0003FF
0003FF
0003FF
0003FF
0003FF
0003FF
0003FF
0003FF
0003FF
0003FF
0003FF
0003FF
0003FF
0003FF
0003FF
0003FF
0003FF
0003FF
0003FF
0003FF
0003FF
0003FF
0003FF
0003FF
0003FF
0003FF
0003FF
0003FF
0003FF
0003FF
0003FF
0003FF
0003FF
0003FF
0003FF
0003FF
0003FF
0003FF
FFFFFF
FFFFFF
FFFFFF
FFFFFF
FFFFFF
FFFFFF
FFFFFF
FFFFFF
FFFFFF
ENDCHAR
STARTCHAR 005E
ENCODING 94
SWIDTH 495 0
DWIDTH 44 0
BBX 43 32 1 23
BITMAP
00007FE00000
0000FFE00000
0001FFF00000
0001FFF00000
0003FFF80000
0003FFFC0000
0007FFFC0000
000FFFFE0000
000FFFFE0000
001FFFFF0000
001FFFFF0000
003FFFFF8000
007FFFFFC000
007FFBFFC000
00FFFBFFE000
00FFF1FFE000
01FFF0FFF000
03FFE0FFF800
03FFC07FF800
07FFC07FFC00
07FF803FFC00
0FFF801FFE00
1FFF001FFF00
1FFE000FFF00
3FFE000FFF80
3FFC0007FF80
7FFC0007FFC0
FFF80003FFE0
3FF80001FF80
0FF00001FE00
01E00000F800
00600000E000
ENDCHAR
STARTCHAR 005F
ENCODING 95
SWIDTH 495 0
DWIDTH 44 0
BBX 43 10 1 -15
BITMAP
FFFFFFFFFFE0
FFFFFFFFFFE0
FFFFFFFFFFE0
FFFFFFFFFFE0
FFFFFFFFFFE0
FFFFFFFFFFE0
FFFFFFFFFFE0
FFFFFFFFFFE0
FFFFFFFFFFE0
FFFFFFFFFFE0
ENDCHAR
STARTCHAR 0060
ENCODING 96
SWIDTH 495 0
DWIDTH 44 0
BBX 19 15 14 46
BITMAP
0C0000
0F0000
1F8000
3FE000
3FF000
7FF800
FFFE00
FFFF00
7FFFC0
1FFFE0
07FFC0
01FFC0
007F80
001F00
000700
ENDCHAR
STARTCHAR 0061
ENCODING 97
SWIDTH 495 0
DWIDTH 44 0
BBX 35 44 4 -1
BITMAP
001FFC0000
03FFFFC000
0FFFFFF000
0FFFFFFC00
0FFFFFFE00
0FFFFFFF00
07FFFFFF80
07FFFFFF80
07FFFFFFC0
07FC3FFFC0
040003FFC0
000001FFE0
000000FFE0
000000FFE0
000000FFE0
0000007FE0
0000007FE0
0007FC7FE0
007FFFFFE0
03FFFFFFE0
07FFFFFFE0
1FFFFFFFE0
3FFFFFFFE0
3FFFFFFFE0
7FFFFFFFE0
7FFC007FE0
FFF0007FE0
FFE0007FE0
FFE0007FE0
FFE0007FE0
FFE0007FE0
FFE0007FE0
FFE0007FE0
FFF0007FE0
FFFC007FE0
7FFFFFFFE0
7FFFFFFFE0
3FFFFFFFE0
3FFFFFFFE0
1FFFFFFFE0
0FFFFFFFE0
03FFFFFFE0
00FFFFFF80
001FFFE000
ENDCHAR
STARTCHAR 0062
ENCODING 98
SWIDTH 495 0
DWIDTH 44 0
BBX 36 63 6 -1
BITMAP
0040000000
1FC0000000
FFC0000000
FFC0000000
FFC0000000
FFC0000000
FFC0000000
FFC0000000
FFC0000000
FFC0000000
FFC0000000
FFC0000000
FFC0000000
FFC0000000
FFC0000000
FFC0000000
FFC0000000
FFC0000000
FFC0000000
FFC0F80000
FFCFFFC000
FFFFFFE000
FFFFFFF800
FFFFFFFC00
FFFFFFFE00
FFFFFFFF00
FFFFFFFF00
FFFFFFFF80
FFFFFFFF80
FFF80FFFC0
FFC003FFC0
FFC003FFC0
FFC001FFE0
FFC000FFE0
FFC000FFE0
FFC000FFE0
FFC000FFF0
FFC000FFF0
FFC0007FF0
FFC0007FF0
FFC0007FF0
FFC0007FF0
FFC0007FF0
FFC0007FF0
FFC000FFF0
FFC000FFE0
FFC000FFE0
FFC000FFE0
FFC001FFE0
FFC001FFE0
FFC003FFC0
FFC007FFC0
FFC00FFF80
FFFCFFFF80
FFFFFFFF00
FFFFFFFF00
FFFFFFFE00
FFFFFFFC00
FFFFFFF800
FFFFFFF000
FFFFFFC000
3FFFFF0000
00FFF80000
ENDCHAR
STARTCHAR 0063
ENCODING 99
SWIDTH 495 0
DWIDTH 44 0
BBX 37 44 4 -1
BITMAP
00001FF800
0003FFFFC0
000FFFFFF8
003FFFFFF0
00FFFFFFF0
01FFFFFFF0
03FFFFFFF0
07FFFFFFE0
0FFFFFFFE0
1FFFFFFFE0
1FFFE000E0
3FFF000000
3FFE000000
7FFC000000
7FF8000000
7FF0000000
FFF0000000
FFF0000000
FFE0000000
FFE0000000
FFE0000000
FFE0000000
FFE0000000
FFE0000000
FFE0000000
FFE0000000
FFF0000000
FFF0000000
7FF0000000
7FF8000000
7FFC000000
3FFE000000
3FFF000000
3FFFC00030
1FFFFFFFF0
0FFFFFFFF0
0FFFFFFFF0
07FFFFFFF8
03FFFFFFF8
00FFFFFFF8
007FFFFFF8
001FFFFFF8
0003FFFFF0
00003FFE00
ENDCHAR
STARTCHAR 0064
ENCODING 100
SWIDTH 495 0
DWIDTH 44 0
BBX 36 63 2 -1
BITMAP
0000000010
00000007F0
0000007FF0
0000007FF0
0000007FF0
0000007FF0
0000007FF0
0000007FF0
0000007FF0
0000007FF0
0000007FF0
0000007FF0
0000007FF0
0000007FF0
0000007FF0
0000007FF0
0000007FF0
0000007FF0
0000007FF0
0001F07FF0
001FFF7FF0
007FFFFFF0
01FFFFFFF0
03FFFFFFF0
07FFFFFFF0
07FFFFFFF0
0FFFFFFFF0
1FFFFFFFF0
1FFFFFFFF0
3FFF01FFF0
3FFC007FF0
3FFC007FF0
7FF8007FF0
7FF8007FF0
7FF0007FF0
7FF0007FF0
7FF0007FF0
7FF0007FF0
7FF0007FF0
7FF0007FF0
FFF0007FF0
FFF0007FF0
FFF0007FF0
7FF0007FF0
7FF0007FF0
7FF0007FF0
7FF0007FF0
7FF8007FF0
7FF8007FF0
7FF8007FF0
3FFC007FF0
3FFE007FF0
1FFF007FF0
1FFFF3FFF0
0FFFFFFFF0
0FFFFFFFF0
07FFFFFFF0
03FFFFFFF0
01FFFFFFF0
00FFFFFFF0
007FFFFFF0
000FFFFF80
0001FFF000
ENDCHAR
STARTCHAR 0065
ENCODING 101
SWIDTH 495 0
DWIDTH 44 0
BBX 38 44 3 -1
BITMAP
0000FF0000
000FFFF000
003FFFFC00
007FFFFE00
01FFFFFF00
03FFFFFF80
07FFFFFFC0
0FFFFFFFE0
0FFFFFFFF0
1FFFC3FFF0
3FFE00FFF0
3FFC007FF8
3FF8003FF8
7FF0001FF8
7FF0001FFC
7FF0001FFC
FFE0000FFC
FFE0000FFC
FFFFFFFFFC
FFFFFFFFFC
FFFFFFFFFC
FFFFFFFFFC
FFFFFFFFFC
FFFFFFFFFC
FFFFFFFFFC
FFFFFFFFFC
FFE0000000
FFE0000000
FFF0000000
7FF0000000
7FF8000000
7FFC000000
3FFE000000
3FFF8003E0
1FFFFFFFE0
1FFFFFFFE0
0FFFFFFFE0
07FFFFFFE0
03FFFFFFE0
01FFFFFFF0
007FFFFFF0
003FFFFFF0
0007FFFF80
00007FF800
ENDCHAR
STARTCHAR 0066
ENCODING 102
SWIDTH 495 0
DWIDTH 44 0
BBX 41 62 3 0
BITMAP
000000380000
00000FFFF000
00007FFFFE00
0000FFFFFF80
0003FFFFFF00
0007FFFFFF00
000FFFFFFF00
000FFFFFFF00
001FFFFFFF00
001FFFFFFE00
003FFF003E00
003FFC000600
003FFC000000
003FF8000000
003FF8000000
007FF8000000
007FF0000000
007FF0000000
007FF0000000
007FF0000000
FFFFFFFFFC00
FFFFFFFFFC00
FFFFFFFFFC00
FFFFFFFFFC00
FFFFFFFFFC00
FFFFFFFFFC00
FFFFFFFFFC00
FFFFFFFFFC00
FFFFFFFFFC00
007FF0000000
007FF0000000
007FF0000000
007FF0000000
007FF0000000
007FF0000000
007FF0000000
007FF0000000
007FF0000000
007FF0000000
007FF0000000
007FF0000000
007FF0000000
007FF0000000
007FF0000000
007FF0000000
007FF0000000
007FF0000000
007FF0000000
007FF0000000
007FF0000000
007FF0000000
007FF0000000
007FF0000000
007FF0000000
007FF0000000
007FF0000000
007FF0000000
007FF0000000
007FF0000000
007FF0000000
007FF0000000
007FF0000000
ENDCHAR
STARTCHAR 0067
ENCODING 103
SWIDTH 495 0
DWIDTH 44 0
BBX 36 58 3 -15
BITMAP
00001F8000
0007FFFF00
003FFFFFF0
00FFFFFFF0
01FFFFFFF0
03FFFFFFF0
07FFFFFFF0
0FFFFFFFF0
1FFFFFFFF0
3FFFC0FFF0
3FFE007FF0
7FFC007FF0
7FF8007FF0
7FF0007FF0
7FF0007FF0
FFF0007FF0
FFE0007FF0
FFE0007FF0
FFE0007FF0
FFE0007FF0
FFE0007FF0
FFE0007FF0
FFE0007FF0
FFE0007FF0
FFE0007FF0
FFF0007FF0
FFF0007FF0
7FF0007FF0
7FF8007FF0
7FFC007FF0
3FFE01FFF0
3FFFFFFFF0
3FFFFFFFF0
1FFFFFFFF0
0FFFFFFFF0
0FFFFFFFF0
07FFFFFFF0
01FFFFFFF0
00FFFFFFF0
001FFC7FF0
0000007FF0
0000007FF0
0000007FF0
000000FFE0
000000FFE0
000001FFE0
100001FFE0
3E0007FFC0
3FF03FFFC0
3FFFFFFFC0
3FFFFFFF80
3FFFFFFF00
7FFFFFFF00
7FFFFFFC00
7FFFFFF800
7FFFFFF000
07FFFF8000
007FF80000
ENDCHAR
STARTCHAR 0068
ENCODING 104
SWIDTH 495 0
DWIDTH 44 0
BBX 33 62 6 0
BITMAP
0060000000
0FE0000000
FFE0000000
FFE0000000
FFE0000000
FFE0000000
FFE0000000
FFE0000000
FFE0000000
FFE0000000
FFE0000000
FFE0000000
FFE0000000
FFE0000000
FFE0000000
FFE0000000
FFE0000000
FFE0000000
FFE0000000
FFE0E00000
FFFFFF0000
FFFFFFC000
FFFFFFF000
FFFFFFF800
FFFFFFFC00
FFFFFFFC00
FFFFFFFE00
FFFFFFFE00
FFFFFFFF00
FFF01FFF00
FFE00FFF00
FFE007FF80
FFE007FF80
FFE003FF80
FFE003FF80
FFE003FF80
FFE003FF80
FFE003FF80
FFE003FF80
FFE003FF80
FFE003FF80
FFE003FF80
FFE003FF80
FFE003FF80
FFE003FF80
FFE003FF80
FFE003FF80
FFE003FF80
FFE003FF80
FFE003FF80
FFE003FF80
FFE003FF80
FFE003FF80
FFE003FF80
FFE003FF80
FFE003FF80
FFE003FF80
FFE003FF80
FFE003FF80
FFE003FF80
FFE003FF80
FFE003FF80
ENDCHAR
STARTCHAR 0069
ENCODING 105
SWIDTH 495 0
DWIDTH 44 0
BBX 38 62 3 -1
BITMAP
0003800000
001FE00000
003FF80000
007FF80000
007FFC0000
007FFC0000
00FFFC0000
00FFFC0000
007FFC0000
007FFC0000
007FFC0000
003FF80000
001FF00000
000FC00000
0000000000
0000000000
0000000000
0000000000
0000000000
FFFFFE0000
FFFFFE0000
FFFFFE0000
FFFFFE0000
FFFFFE0000
FFFFFE0000
FFFFFE0000
FFFFFE0000
FFFFFE0000
000FFE0000
000FFE0000
000FFE0000
000FFE0000
000FFE0000
000FFE0000
000FFE0000
000FFE0000
000FFE0000
000FFE0000
000FFE0000
000FFE0000
000FFE0000
000FFE0000
000FFE0000
000FFE0000
000FFE0000
000FFE0000
000FFE0000
000FFE0000
000FFE0000
000FFE0000
000FFF0000
000FFF8038
0007FFFFF8
0007FFFFFC
0007FFFFFC
0003FFFFFC
0003FFFFFC
0001FFFFFC
0000FFFFFC
00007FFFFC
00001FFFF0
000003FF00
ENDCHAR
STARTCHAR 006A
ENCODING 106
SWIDTH 495 0
DWIDTH 44 0
BBX 31 76 5 -15
BITMAP
00000700
00003FC0
00007FF0
0000FFF0
0000FFF8
0000FFF8
0001FFF8
0001FFF8
0000FFF8
0000FFF8
0000FFF8
00007FF0
00003FE0
00001F80
00000000
00000000
00000000
00000000
00000000
1FFFFFFE
1FFFFFFE
1FFFFFFE
1FFFFFFE
1FFFFFFE
1FFFFFFE
1FFFFFFE
1FFFFFFE
1FFFFFFE
00000FFE
00000FFE
00000FFE
00000FFE
00000FFE
00000FFE
00000FFE
00000FFE
00000FFE
00000FFE
00000FFE
00000FFE
00000FFE
00000FFE
00000FFE
00000FFE
00000FFE
00000FFE
00000FFE
00000FFE
00000FFE
00000FFE
00000FFE
00000FFE
00000FFE
00000FFE
00000FFE
00000FFE
00000FFE
00000FFE
00000FFE
00000FFE
00000FFC
00001FFC
00001FFC
10001FFC
3C003FFC
3F007FFC
7FFFFFF8
7FFFFFF8
7FFFFFF8
FFFFFFF0
FFFFFFE0
FFFFFFE0
FFFFFFC0
3FFFFF00
07FFFE00
00FFF000
ENDCHAR
STARTCHAR 006B
ENCODING 107
SWIDTH 495 0
DWIDTH 44 0
BBX 37 62 6 0
BITMAP
0060000000
0FE0000000
FFE0000000
FFE0000000
FFE0000000
FFE0000000
FFE0000000
FFE0000000
FFE0000000
FFE0000000
FFE0000000
FFE0000000
FFE0000000
FFE0000000
FFE0000000
FFE0000000
FFE0000000
FFE0000000
FFE0000000
FFE0000000
FFE003FFE0
FFE003FFE0
FFE007FFC0
FFE00FFF80
FFE00FFF00
FFE01FFE00
FFE03FFE00
FFE03FFC00
FFE07FF800
FFE0FFF000
FFE0FFE000
FFE1FFC000
FFE3FF8000
FFE7FF0000
FFEFFE0000
FFEFFC0000
FFFFFC0000
FFFFF80000
FFFFF00000
FFFFF00000
FFFFF80000
FFFFFC0000
FFFFFE0000
FFEFFF0000
FFE7FF8000
FFE3FFC000
FFE3FFE000
FFE1FFE000
FFE0FFF000
FFE07FF800
FFE03FFC00
FFE03FFE00
FFE01FFE00
FFE00FFF00
FFE00FFF80
FFE007FF80
FFE003FFC0
FFE003FFE0
FFE001FFE0
FFE001FFF0
FFE000FFF0
FFE000FFF8
ENDCHAR
STARTCHAR 006C
ENCODING 108
SWIDTH 495 0
DWIDTH 44 0
BBX 38 62 3 -1
BITMAP
FFFFFE0000
FFFFFE0000
FFFFFE0000
FFFFFE0000
FFFFFE0000
FFFFFE0000
FFFFFE0000
FFFFFE0000
FFFFFE0000
000FFE0000
000FFE0000
000FFE0000
000FFE0000
000FFE0000
000FFE0000
000FFE0000
000FFE0000
000FFE0000
000FFE0000
000FFE0000
000FFE0000
000FFE0000
000FFE0000
000FFE0000
000FFE0000
000FFE0000
000FFE0000
000FFE0000
000FFE0000
000FFE0000
000FFE0000
000FFE0000
000FFE0000
000FFE0000
000FFE0000
000FFE0000
000FFE0000
000FFE0000
000FFE0000
000FFE0000
000FFE0000
000FFE0000
000FFE0000
000FFE0000
000FFE0000
000FFE0000
000FFE0000
000FFE0000
000FFE0000
000FFE0000
000FFF0000
000FFF8038
0007FFFFF8
0007FFFFFC
0007FFFFFC
0003FFFFFC
0001FFFFFC
0001FFFFFC
0000FFFFFC
00007FFFFC
00001FFFF0
000003FF00
ENDCHAR
STARTCHAR 006D
ENCODING 109
SWIDTH 495 0
DWIDTH 44 0
BBX 39 42 3 0
BITMAP
07FF81FF00
7FFFE7FFC0
FFFFFFFFE0
FFFFFFFFF0
FFFFFFFFF8
FFFFFFFFF8
FFFFFFFFFC
FFFFFFFFFC
FFFFFFFFFC
FF07FE0FFC
FF03FE07FE
FF03FE07FE
FF03FE03FE
FF01FF03FE
FF01FF03FE
FF01FF03FE
FF01FF03FE
FF01FF03FE
FF01FF03FE
FF01FF03FE
FF01FF03FE
FF01FF03FE
FF01FF03FE
FF01FF03FE
FF01FF03FE
FF01FF03FE
FF000003FE
FF000003FE
FF000003FE
FF000003FE
FF000003FE
FF000003FE
FF000003FE
FF000003FE
FF000003FE
FF000003FE
FF000003FE
FF000003FE
FF000003FE
FF000003FE
FF000003FE
FF000003FE
ENDCHAR
STARTCHAR 006E
ENCODING 110
SWIDTH 495 0
DWIDTH 44 0
BBX 33 43 6 0
BITMAP
000FC00000
0FFFFF0000
FFFFFFC000
FFFFFFF000
FFFFFFF800
FFFFFFFC00
FFFFFFFC00
FFFFFFFE00
FFFFFFFE00
FFFFFFFF00
FFE01FFF00
FFE00FFF00
FFE007FF80
FFE007FF80
FFE003FF80
FFE003FF80
FFE003FF80
FFE003FF80
FFE003FF80
FFE003FF80
FFE003FF80
FFE003FF80
FFE003FF80
FFE003FF80
FFE003FF80
FFE003FF80
FFE003FF80
FFE003FF80
FFE003FF80
FFE003FF80
FFE003FF80
FFE003FF80
FFE003FF80
FFE003FF80
FFE003FF80
FFE003FF80
FFE003FF80
FFE003FF80
FFE003FF80
FFE003FF80
FFE003FF80
FFE003FF80
FFE003FF80
ENDCHAR
STARTCHAR 006F
ENCODING 111
SWIDTH 495 0
DWIDTH 44 0
BBX 39 44 3 -1
BITMAP
0001FE0000
000FFFE000
003FFFF800
00FFFFFC00
01FFFFFF00
03FFFFFF80
07FFFFFFC0
0FFFFFFFE0
1FFFFFFFE0
1FFFFFFFF0
3FFF01FFF0
3FFC00FFF8
7FF8007FF8
7FF8003FFC
7FF0003FFC
FFF0001FFC
FFE0001FFC
FFE0001FFE
FFE0001FFE
FFE0000FFE
FFE0000FFE
FFE0000FFE
FFE0000FFE
FFE0000FFE
FFE0000FFE
FFE0001FFE
FFE0001FFE
FFE0001FFC
FFF0001FFC
FFF0003FFC
7FF0003FFC
7FF8007FF8
3FFC007FF8
3FFE01FFF0
1FFFCFFFF0
1FFFFFFFE0
0FFFFFFFE0
07FFFFFFC0
07FFFFFF80
03FFFFFF00
00FFFFFE00
007FFFF800
001FFFE000
0003FF8000
ENDCHAR
STARTCHAR 0070
ENCODING 112
SWIDTH 495 0
DWIDTH 44 0
BBX 36 58 6 -15
BITMAP
001FC00000
0FFFFE0000
FFFFFFC000
FFFFFFE000
FFFFFFF800
FFFFFFFC00
FFFFFFFE00
FFFFFFFF00
FFFFFFFF00
FFFFFFFF80
FFE01FFF80
FFE007FFC0
FFE003FFC0
FFE003FFE0
FFE001FFE0
FFE001FFE0
FFE000FFE0
FFE000FFE0
FFE000FFE0
FFE000FFF0
FFE000FFF0
FFE0007FF0
FFE0007FF0
FFE0007FF0
FFE000FFF0
FFE000FFF0
FFE000FFE0
FFE000FFE0
FFE000FFE0
FFE000FFE0
FFE001FFE0
FFE001FFC0
FFE003FFC0
FFF007FFC0
FFFF3FFF80
FFFFFFFF80
FFFFFFFF00
FFFFFFFF00
FFFFFFFE00
FFFFFFFC00
FFFFFFF800
FFFFFFF000
FFEFFFC000
FFE1FE0000
FFE0000000
FFE0000000
FFE0000000
FFE0000000
FFE0000000
FFE0000000
FFE0000000
FFE0000000
FFE0000000
FFE0000000
FFE0000000
FFE0000000
FFE0000000
FFE0000000
ENDCHAR
STARTCHAR 0071
ENCODING 113
SWIDTH 495 0
DWIDTH 44 0
BBX 36 58 3 -15
BITMAP
00003F0000
000FFFFF00
003FFFFFF0
00FFFFFFF0
01FFFFFFF0
03FFFFFFF0
07FFFFFFF0
0FFFFFFFF0
1FFFFFFFF0
1FFFFFFFF0
3FFF007FF0
3FFE007FF0
7FFC007FF0
7FF8007FF0
7FF0007FF0
FFF0007FF0
FFF0007FF0
FFE0007FF0
FFE0007FF0
FFE0007FF0
FFE0007FF0
FFE0007FF0
FFE0007FF0
FFE0007FF0
FFE0007FF0
FFE0007FF0
FFE0007FF0
FFE0007FF0
FFF0007FF0
FFF0007FF0
7FF0007FF0
7FF8007FF0
7FFC007FF0
3FFE00FFF0
3FFFDFFFF0
3FFFFFFFF0
1FFFFFFFF0
0FFFFFFFF0
0FFFFFFFF0
07FFFFFFF0
03FFFFFFF0
00FFFFFFF0
007FFE7FF0
000FF07FF0
0000007FF0
0000007FF0
0000007FF0
0000007FF0
0000007FF0
0000007FF0
0000007FF0
0000007FF0
0000007FF0
0000007FF0
0000007FF0
0000007FF0
0000007FF0
0000007FF0
ENDCHAR
STARTCHAR 0072
ENCODING 114
SWIDTH 495 0
DWIDTH 44 0
BBX 33 43 8 0
BITMAP
0000BC0000
00FFFFFC00
0FFFFFFF80
7FFFFFFF80
FFFFFFFF00
FFFFFFFF00
FFFFFFFF00
FFFFFFFF00
FFFFFFFF00
FFFFFFFE00
FFFFFFFE00
FFF8003E00
FFE0000000
FFE0000000
FFE0000000
FFE0000000
FFE0000000
FFE0000000
FFE0000000
FFE0000000
FFE0000000
FFE0000000
FFE0000000
FFE0000000
FFE0000000
FFE0000000
FFE0000000
FFE0000000
FFE0000000
FFE0000000
FFE0000000
FFE0000000
FFE0000000
FFE0000000
FFE0000000
FFE0000000
FFE0000000
FFE0000000
FFE0000000
FFE0000000
FFE0000000
FFE0000000
FFE0000000
ENDCHAR
STARTCHAR 0073
ENCODING 115
SWIDTH 495 0
DWIDTH 44 0
BBX 34 44 5 -1
BITMAP
0003FF8000
003FFFF800
01FFFFFF00
03FFFFFF00
07FFFFFF00
0FFFFFFF00
1FFFFFFF00
3FFFFFFF00
3FFFFFFE00
7FFF03FE00
7FF8003E00
7FF0000200
7FF0000000
7FF0000000
7FF8000000
7FFC000000
7FFF000000
3FFFE00000
3FFFFC0000
1FFFFF0000
0FFFFFE000
07FFFFF800
03FFFFFC00
00FFFFFE00
003FFFFF00
000FFFFF80
0000FFFF80
00001FFFC0
000007FFC0
000001FFC0
000001FFC0
400000FFC0
780001FFC0
7F0001FFC0
7FF01FFFC0
7FFFFFFFC0
7FFFFFFF80
FFFFFFFF80
FFFFFFFF00
FFFFFFFE00
FFFFFFFC00
3FFFFFF000
07FFFFC000
007FFC0000
ENDCHAR
STARTCHAR 0074
ENCODING 116
SWIDTH 495 0
DWIDTH 44 0
BBX 39 55 3 -1
BITMAP
0000780000
001FF80000
003FF80000
003FF80000
003FF80000
003FF80000
003FF80000
003FF80000
003FF80000
003FF80000
003FF80000
003FF80000
FFFFFFFFFC
FFFFFFFFFC
FFFFFFFFFC
FFFFFFFFFC
FFFFFFFFFC
FFFFFFFFFC
FFFFFFFFFC
FFFFFFFFFC
FFFFFFFFFC
003FF80000
003FF80000
003FF80000
003FF80000
003FF80000
003FF80000
003FF80000
003FF80000
003FF80000
003FF80000
003FF80000
003FF80000
003FF80000
003FF80000
003FF80000
003FF80000
003FF80000
003FF80000
003FF80000
003FF80000
003FF80000
003FF80000
003FFC0000
003FFE003C
003FFFFFFC
001FFFFFFC
001FFFFFFC
001FFFFFFC
000FFFFFFC
0007FFFFFE
0007FFFFFE
0001FFFFFE
0000FFFFF8
00001FFF00
ENDCHAR
STARTCHAR 0075
ENCODING 117
SWIDTH 495 0
DWIDTH 44 0
BBX 34 43 5 -1
BITMAP
FFE001FFC0
FFE001FFC0
FFE001FFC0
FFE001FFC0
FFE001FFC0
FFE001FFC0
FFE001FFC0
FFE001FFC0
FFE001FFC0
FFE001FFC0
FFE001FFC0
FFE001FFC0
FFE001FFC0
FFE001FFC0
FFE001FFC0
FFE001FFC0
FFE001FFC0
FFE001FFC0
FFE001FFC0
FFE001FFC0
FFE001FFC0
FFE001FFC0
FFE001FFC0
FFE001FFC0
FFE001FFC0
FFE001FFC0
FFE001FFC0
FFF001FFC0
7FF001FFC0
7FF001FFC0
7FF001FFC0
7FF801FFC0
7FFC01FFC0
7FFFFFFFC0
3FFFFFFFC0
3FFFFFFFC0
1FFFFFFFC0
0FFFFFFFC0
0FFFFFFFC0
07FFFFFFC0
01FFFFFFC0
007FFFFC00
000FFF8000
ENDCHAR
STARTCHAR 0076
ENCODING 118
SWIDTH 495 0
DWIDTH 44 0
BBX 42 42 1 0
BITMAP
FFF00001FFC0
7FF00001FFC0
7FF00003FFC0
7FF80003FF80
3FF80003FF80
3FF80003FF80
3FF80007FF00
3FFC0007FF00
1FFC0007FF00
1FFC000FFE00
1FFE000FFE00
0FFE000FFE00
0FFE001FFC00
0FFE001FFC00
07FF001FF800
07FF003FF800
03FF003FF800
03FF807FF000
03FF807FF000
01FF807FF000
01FFC0FFE000
01FFC0FFE000
00FFC0FFC000
00FFE1FFC000
00FFE1FF8000
007FF3FF8000
007FF3FF8000
003FF3FF0000
003FFFFF0000
001FFFFE0000
001FFFFE0000
001FFFFC0000
000FFFFC0000
000FFFF80000
0007FFF80000
0007FFF80000
0003FFF00000
0003FFF00000
0001FFE00000
0001FFE00000
0001FFC00000
0000FFC00000
ENDCHAR
STARTCHAR 0077
ENCODING 119
SWIDTH 495 0
DWIDTH 44 0
BBX 42 42 1 0
BITMAP
FF8000007FC0
FF8000007FC0
FF8000007FC0
FF8000007FC0
FF8000007FC0
FFC000007FC0
7FC000007FC0
7FC000007FC0
7FC000007FC0
7FC07FC07FC0
7FC07FC07F80
7FC07FC07F80
7FC07FC07F80
7FC0FFC07F80
7FC0FFE0FF80
7FC0FFE0FF80
3FC0FFE0FF80
3FC1FFE0FF80
3FC1FFF0FF00
3FC1FFF0FF00
3FC1FFF0FF00
3FC3FFF0FF00
3FE3FFF8FF00
1FE3FFF8FF00
1FE7FBF8FF00
1FE7F3FCFE00
1FE7F3FDFE00
1FE7F1FDFE00
1FEFE1FDFE00
0FEFE1FFFE00
0FFFE0FFFC00
0FFFC0FFFC00
0FFFC0FFFC00
0FFFC07FFC00
07FF807FFC00
07FF807FF800
07FF803FF800
07FF003FF800
07FF003FF800
03FF001FF800
03FE001FF000
03FE001FF000
ENDCHAR
STARTCHAR 0078
ENCODING 120
SWIDTH 495 0
DWIDTH 44 0
BBX 41 42 2 0
BITMAP
FFF00007FF00
7FF0000FFE00
3FF8000FFE00
3FFC001FFC00
1FFC003FF800
0FFE003FF800
0FFF007FF000
07FF00FFE000
03FF80FFE000
01FFC1FFC000
01FFE3FF8000
00FFE3FF8000
007FF7FF0000
007FFFFE0000
003FFFFE0000
001FFFFC0000
000FFFF80000
000FFFF80000
0007FFF00000
0003FFE00000
0001FFE00000
0003FFF00000
0007FFF00000
000FFFF80000
001FFFFC0000
001FFFFE0000
003FFFFE0000
007FFFFF0000
00FFE7FF8000
00FFE7FF8000
01FFC3FFC000
03FF81FFE000
03FF00FFE000
07FF00FFF000
0FFE007FF800
0FFE003FF800
1FFC003FFC00
3FF8001FFC00
3FF8001FFE00
7FF0000FFE00
7FF00007FF00
FFE00007FF80
ENDCHAR
STARTCHAR 0079
ENCODING 121
SWIDTH 495 0
DWIDTH 44 0
BBX 40 57 2 -15
BITMAP
7FF80007FF
3FF8000FFF
3FF8000FFE
3FF8000FFE
3FFC000FFE
1FFC000FFC
1FFC001FFC
1FFE001FFC
0FFE001FFC
0FFE001FF8
0FFE003FF8
07FF003FF8
07FF003FF8
07FF003FF0
07FF803FF0
03FF807FF0
03FF807FE0
01FFC07FE0
01FFC07FE0
01FFC0FFC0
00FFE0FFC0
00FFE0FFC0
00FFE1FFC0
007FF1FF80
007FF1FF80
003FF1FF80
003FFBFF00
003FFBFF00
001FFFFF00
001FFFFE00
000FFFFE00
000FFFFE00
000FFFFC00
0007FFFC00
0007FFF800
0003FFF800
0003FFF800
0001FFF000
0001FFF000
0000FFE000
0000FFE000
0000FFE000
0001FFC000
0001FFC000
0003FF8000
0007FF8000
200FFF0000
3E7FFF0000
7FFFFE0000
7FFFFC0000
7FFFFC0000
7FFFF80000
FFFFF00000
FFFFE00000
FFFFC00000
FFFF000000
1FF8000000
ENDCHAR
STARTCHAR 007A
ENCODING 122
SWIDTH 495 0
DWIDTH 44 0
BBX 33 42 6 0
BITMAP
7FFFFFFF00
7FFFFFFF00
7FFFFFFF00
7FFFFFFF00
7FFFFFFF00
7FFFFFFF00
7FFFFFFF00
7FFFFFFF00
7FFFFFFF00
00003FFE00
00007FFC00
0000FFF800
0000FFF000
0001FFE000
0003FFE000
0007FFC000
0007FF8000
000FFF0000
001FFE0000
001FFE0000
003FFC0000
007FF80000
00FFF00000
00FFF00000
01FFE00000
03FFC00000
03FF800000
07FF800000
0FFF000000
0FFE000000
1FFE000000
3FFC000000
3FF8000000
7FFFFFFF80
FFFFFFFF80
FFFFFFFF80
FFFFFFFF80
FFFFFFFF80
FFFFFFFF80
FFFFFFFF80
FFFFFFFF80
FFFFFFFF80
ENDCHAR
STARTCHAR 007B
ENCODING 123
SWIDTH 495 0
DWIDTH 44 0
BBX 33 77 6 -15
BITMAP
00003FFF80
0001FFFF80
0007FFFF80
000FFFFF80
000FFFFF80
001FFFFF80
001FFFFF80
003FFFFF80
003FFF0000
003FF80000
003FF00000
003FF00000
007FF00000
007FF00000
007FF00000
007FF00000
007FF00000
007FF00000
007FF00000
007FF00000
007FF00000
007FF00000
007FF00000
007FF00000
007FF00000
007FF00000
007FF00000
007FF00000
007FE00000
007FE00000
007FE00000
007FE00000
00FFC00000
01FFC00000
FFFF800000
FFFF000000
FFFE000000
FFF8000000
FFE0000000
FFFC000000
FFFF000000
FFFF800000
FFFFC00000
01FFC00000
00FFE00000
007FE00000
007FE00000
007FE00000
007FE00000
007FF00000
007FF00000
007FF00000
007FF00000
007FF00000
007FF00000
007FF00000
007FF00000
007FF00000
007FF00000
007FF00000
007FF00000
007FF00000
007FF00000
007FF00000
007FF00000
003FF00000
003FF80000
003FFC0000
003FFFFF80
003FFFFF80
001FFFFF80
001FFFFF80
000FFFFF80
0007FFFF80
0003FFFF80
0000FFFF80
00000FFF80
ENDCHAR
STARTCHAR 007C
ENCODING 124
SWIDTH 495 0
DWIDTH 44 0
BBX 11 77 17 -15
BITMAP
FFE0
FFE0
FFE0
FFE0
FFE0
FFE0
FFE0
FFE0
FFE0
FFE0
FFE0
FFE0
FFE0
FFE0
FFE0
FFE0
FFE0
FFE0
FFE0
FFE0
FFE0
FFE0
FFE0
FFE0
FFE0
FFE0
FFE0
FFE0
FFE0
FFE0
FFE0
FFE0
FFE0
FFE0
FFE0
FFE0
FFE0
FFE0
FFE0
FFE0
FFE0
FFE0
FFE0
FFE0
FFE0
FFE0
FFE0
FFE0
FFE0
FFE0
FFE0
FFE0
FFE0
FFE0
FFE0
FFE0
FFE0
FFE0
FFE0
FFE0
FFE0
FFE0
FFE0
FFE0
FFE0
FFE0
FFE0
FFE0
FFE0
FFE0
FFE0
FFE0
FFE0
FFE0
FFE0
FFE0
FFE0
ENDCHAR
STARTCHAR 007D
ENCODING 125
SWIDTH 495 0
DWIDTH 44 0
BBX 33 77 6 -15
BITMAP
FFFE000000
FFFF800000
FFFFE00000
FFFFF00000
FFFFF80000
FFFFF80000
FFFFFC0000
FFFFFC0000
00FFFC0000
001FFE0000
000FFE0000
000FFE0000
000FFE0000
0007FE0000
0007FE0000
0007FE0000
0007FE0000
0007FE0000
0007FE0000
0007FE0000
0007FE0000
0007FE0000
0007FE0000
0007FE0000
0007FE0000
0007FE0000
0007FE0000
0007FE0000
0007FE0000
0007FE0000
0007FE0000
0003FF0000
0003FF0000
0003FFC000
0001FFFF80
0000FFFF80
00007FFF80
00001FFF80
000007FF80
00003FFF80
00007FFF80
0001FFFF80
0001FFFF80
0003FF8000
0003FF0000
0007FF0000
0007FE0000
0007FE0000
0007FE0000
0007FE0000
0007FE0000
0007FE0000
0007FE0000
0007FE0000
0007FE0000
0007FE0000
0007FE0000
0007FE0000
0007FE0000
0007FE0000
0007FE0000
0007FE0000
0007FE0000
0007FE0000
000FFE0000
000FFE0000
000FFE0000
001FFE0000
FFFFFC0000
FFFFFC0000
FFFFFC0000
FFFFF80000
FFFFF00000
FFFFF00000
FFFFC00000
FFFF000000
FFE0000000
ENDCHAR
STARTCHAR 007E
ENCODING 126
SWIDTH 495 0
DWIDTH 44 0
BBX 41 17 2 15
BITMAP
001C00000000
00FF80007800
03FFE0007F00
07FFF800FF80
0FFFFE00FF80
1FFFFF81FF80
1FFFFFFFFF00
3FFFFFFFFF00
3FFFFFFFFF00
7FFFFFFFFE00
7FFFFFFFFE00
FFC0FFFFFC00
FFC03FFFF800
FF800FFFF000
FF8007FFE000
0F0001FFC000
0000003E0000
ENDCHAR
STARTCHAR 00A0
ENCODING 160
SWIDTH 495 0
DWIDTH 44 0
BBX 0 0 0 0
BITMAP
ENDCHAR
STARTCHAR 00A1
ENCODING 161
SWIDTH 495 0
DWIDTH 44 0
BBX 15 56 15 -15
BITMAP
0FE0
3FF0
7FF8
7FFC
FFFC
FFFC
FFFE
FFFE
FFFC
FFFC
7FFC
7FF8
3FF0
0FE0
0000
0000
0000
0000
0000
0000
0000
3FF0
3FF0
3FF0
3FF0
3FF0
3FF0
3FF8
3FF8
7FF8
7FF8
7FF8
7FF8
7FF8
7FF8
7FF8
7FF8
7FF8
7FF8
7FFC
7FFC
7FFC
7FFC
7FFC
7FFC
7FFC
7FFC
7FFC
7FFC
7FFC
7FFC
7FFC
7FFC
7FFC
7FFC
7FFC
ENDCHAR
STARTCHAR 00A2
ENCODING 162
SWIDTH 495 0
DWIDTH 44 0
BBX 36 64 4 -9
BITMAP
00007FF000
00007FF000
00007FF000
00007FF000
00007FF000
00007FF000
00007FF000
00007FF000
00007FF000
00007FF000
00007FF000
0000FFFE00
0007FFFFC0
003FFFFFF0
007FFFFFE0
01FFFFFFE0
03FFFFFFE0
07FFFFFFE0
0FFFFFFFC0
1FFFFFFFC0
1FFFFFFFC0
3FFFC001C0
3FFE000000
7FFC000000
7FF8000000
7FF8000000
7FF0000000
FFF0000000
FFF0000000
FFE0000000
FFE0000000
FFE0000000
FFE0000000
FFE0000000
FFF0000000
FFF0000000
FFF0000000
7FF8000000
7FF8000000
7FFC000000
3FFE000000
3FFF800020
1FFFF80FE0
1FFFFFFFE0
0FFFFFFFE0
07FFFFFFF0
07FFFFFFF0
03FFFFFFF0
00FFFFFFF0
007FFFFFF0
001FFFFFF0
0003FFFFC0
00007FF000
00007FF000
00007FF000
00007FF000
00007FF000
00007FF000
00007FF000
00007FF000
00007FF000
00007FF000
00007FF000
00007FF000
ENDCHAR
STARTCHAR 00A3
ENCODING 163
SWIDTH 495 0
DWIDTH 44 0
BBX 37 56 3 0
BITMAP
00001FFE00
0000FFFFE0
0003FFFFF8
0007FFFFF0
000FFFFFF0
001FFFFFF0
003FFFFFE0
003FFFFFE0
007FFFFFE0
007FFF07C0
007FF80040
00FFF00000
00FFE00000
00FFE00000
00FFC00000
01FFC00000
01FFC00000
01FFC00000
01FFC00000
01FFC00000
01FFC00000
01FFC00000
01FFC00000
01FFC00000
01FFC00000
FFFFFFFE00
FFFFFFFE00
FFFFFFFE00
FFFFFFFE00
FFFFFFFE00
FFFFFFFE00
FFFFFFFE00
FFFFFFFE00
FFFFFFFE00
01FFC00000
01FFC00000
01FFC00000
01FFC00000
01FFC00000
01FFC00000
01FFC00000
01FF800000
01FF800000
01FF800000
01FF800000
03FF800000
03FF800000
03FFFFFFF8
03FFFFFFF8
03FFFFFFF8
03FFFFFFF8
03FFFFFFF8
07FFFFFFF8
07FFFFFFF8
07FFFFFFF8
07FFFFFFF8
ENDCHAR
STARTCHAR 00A4
ENCODING 164
SWIDTH 495 0
DWIDTH 44 0
BBX 41 39 2 8
BITMAP
030000004000
07800001E000
0FC00003F000
1FE00007F800
3FF1FFCFFC00
7FFFFFFFFE00
FFFFFFFFFF80
FFFFFFFFFF00
7FFFFFFFFE00
1FFFFFFFFC00
0FFFFFFFF800
07FFFFFFF000
07FFFFFFE000
07FF80FFF000
0FFF007FF000
0FFE003FF000
0FFC003FF800
0FFC001FF800
0FFC001FF800
0FFC001FF800
0FFC001FF800
0FFC001FF800
0FFC003FF800
0FFE003FF000
07FF007FF000
07FF80FFF000
07FFFFFFE000
0FFFFFFFF000
1FFFFFFFF800
3FFFFFFFFC00
7FFFFFFFFE00
FFFFFFFFFF00
FFFFFFFFFF00
7FFFFFFFFE00
3FF1FF8FFC00
1FE00007F800
0FC00003F000
07800001E000
03000000C000
ENDCHAR
STARTCHAR 00A5
ENCODING 165
SWIDTH 495 0
DWIDTH 44 0
BBX 42 55 1 0
BITMAP
FFF00001FFC0
7FF00001FFC0
7FF80003FF80
7FF80003FF80
3FF80003FF80
3FFC0007FF00
1FFC0007FF00
1FFC0007FE00
0FFE000FFE00
0FFE000FFC00
07FF001FFC00
07FF001FFC00
03FF001FF800
03FF803FF800
01FF803FF000
01FFC07FF000
00FFC07FE000
00FFE0FFE000
007FE0FFC000
007FE1FFC000
003FF1FF8000
001FF1FF8000
001FFBFF0000
000FFBFE0000
000FFFFE0000
0FFFFFFFFE00
0FFFFFFFFE00
0FFFFFFFFE00
0FFFFFFFFE00
0FFFFFFFFE00
0FFFFFFFFE00
0FFFFFFFFE00
0FFFFFFFFE00
0000FFE00000
0000FFE00000
0000FFE00000
0000FFE00000
0000FFE00000
0FFFFFFFFE00
0FFFFFFFFE00
0FFFFFFFFE00
0FFFFFFFFE00
0FFFFFFFFE00
0FFFFFFFFE00
0FFFFFFFFE00
0FFFFFFFFE00
0000FFE00000
0000FFE00000
0000FFE00000
0000FFE00000
0000FFE00000
0000FFE00000
0000FFE00000
0000FFE00000
0000FFE00000
ENDCHAR
STARTCHAR 00A6
ENCODING 166
SWIDTH 495 0
DWIDTH 44 0
BBX 11 77 17 -15
BITMAP
FFE0
FFE0
FFE0
FFE0
FFE0
FFE0
FFE0
FFE0
FFE0
FFE0
FFE0
FFE0
FFE0
FFE0
FFE0
FFE0
FFE0
FFE0
FFE0
FFE0
FFE0
FFE0
FFE0
FFE0
FFE0
FFE0
FFE0
FFE0
FFE0
FFE0
FFE0
0000
0000
0000
0000
0000
0000
0000
0000
0000
0000
0000
0000
0000
0000
FFE0
FFE0
FFE0
FFE0
FFE0
FFE0
FFE0
FFE0
FFE0
FFE0
FFE0
FFE0
FFE0
FFE0
FFE0
FFE0
FFE0
FFE0
FFE0
FFE0
FFE0
FFE0
FFE0
FFE0
FFE0
FFE0
FFE0
FFE0
FFE0
FFE0
FFE0
FFE0
ENDCHAR
STARTCHAR 00A7
ENCODING 167
SWIDTH 495 0
DWIDTH 44 0
BBX 35 65 5 -9
BITMAP
000FFFE000
007FFFFE00
00FFFFFFC0
03FFFFFFC0
07FFFFFF80
0FFFFFFF80
0FFFFFFF80
1FFFFFFF00
1FFFFFFF00
1FFF007F00
3FFE000600
3FFC000000
3FFC000000
3FFC000000
1FFE000000
1FFF000000
1FFFC00000
0FFFF80000
0FFFFF0000
07FFFFC000
03FFFFF000
07FFFFFC00
0FFFFFFE00
1FFFFFFF00
3FFFFFFF80
3FF0FFFF80
7FE01FFFC0
7FE007FFC0
FFC001FFE0
FFC000FFE0
FFC0007FE0
FFC0007FE0
FFC0007FE0
FFC0007FE0
FFE0007FE0
FFF0007FC0
7FF800FFC0
7FFE00FF80
3FFFC1FF80
3FFFFBFF00
1FFFFFFE00
0FFFFFFC00
07FFFFF800
01FFFFFC00
007FFFFE00
001FFFFF00
0003FFFF80
00007FFF80
00001FFF80
000007FFC0
000003FFC0
000003FFC0
000003FFC0
380003FFC0
3F000FFFC0
7FFFFFFF80
7FFFFFFF80
7FFFFFFF80
FFFFFFFF00
FFFFFFFE00
FFFFFFFE00
FFFFFFF800
3FFFFFF000
03FFFF8000
000FF80000
ENDCHAR
STARTCHAR 00A8
ENCODING 168
SWIDTH 495 0
DWIDTH 44 0
BBX 30 12 7 48
BITMAP
078003C0
1FC00FF0
7FE01FF8
7FF01FFC
7FF03FFC
FFF83FFC
FFF83FFC
FFF83FFC
7FF03FFC
7FF01FF8
3FE00FF8
0FC007E0
ENDCHAR
STARTCHAR 00A9
ENCODING 169
SWIDTH 495 0
DWIDTH 44 0
BBX 40 43 2 -1
BITMAP
0001FFC000
000FFFF800
003FFFFE00
00FFFFFF00
01FFFFFFC0
03FFE7FFE0
07FE007FE0
0FF8001FF0
0FF00007F8
1FE00003FC
1FC03F01FC
3F80FFE1FE
3F03FFE0FE
7F07FFC07E
7E07FFC07F
7E0FFF807F
7E0FC0003F
FE1F80003F
FC1F80003F
FC1F00003F
FC1F00003F
FC1F00003F
FC1F00003F
FC1F00003F
FC1F80003F
FE1F80003F
7E1FC0003F
7E0FFFC07F
7E0FFFC07F
7F07FFC07E
3F03FFE0FE
3F80FFE1FC
1FC03F01FC
1FE00003F8
0FF00007F8
0FF8001FF0
07FE007FE0
03FFFFFFC0
01FFFFFF80
007FFFFF00
003FFFFC00
000FFFF800
0001FF8000
ENDCHAR
STARTCHAR 00AA
ENCODING 170
SWIDTH 495 0
DWIDTH 44 0
BBX 27 32 9 24
BITMAP
01FFE000
1FFFFC00
1FFFFE00
0FFFFF80
0FFFFF80
0FFFFFC0
0FFFFFC0
0F00FFC0
00007FE0
00003FE0
00003FE0
00001FE0
007FDFE0
07FFFFE0
0FFFFFE0
3FFFFFE0
3FFFFFE0
7FFFFFE0
7FE01FE0
FFC01FE0
FF801FE0
FF801FE0
FF801FE0
FFC01FE0
7FF01FE0
7FFFFFE0
7FFFFFE0
3FFFFFE0
1FFFFFE0
0FFFFFE0
03FFFF80
000E0000
ENDCHAR
STARTCHAR 00AB
ENCODING 171
SWIDTH 495 0
DWIDTH 44 0
BBX 35 37 5 4
BITMAP
0010000400
003C000F00
003F000F80
007F801FE0
007F803FE0
00FF003FC0
01FF007F80
01FE00FF80
03FC00FF00
07FC01FF00
07F803FE00
0FF803FE00
1FF007FC00
1FF00FFC00
3FE00FF800
7FE01FF000
7FC03FF000
FF803FE000
FF807FE000
FFC03FE000
7FC01FF000
3FE01FF800
3FE00FF800
1FF007FC00
0FF007FC00
0FF803FE00
07FC01FE00
03FC01FF00
03FE00FF80
01FE007F80
01FF007FC0
00FF003FC0
007F801FE0
007F801FE0
003E000F80
001C000F00
0010000400
ENDCHAR
STARTCHAR 00AC
ENCODING 172
SWIDTH 495 0
DWIDTH 44 0
BBX 36 28 4 4
BITMAP
FFFFFFFFF0
FFFFFFFFF0
FFFFFFFFF0
FFFFFFFFF0
FFFFFFFFF0
FFFFFFFFF0
FFFFFFFFF0
FFFFFFFFF0
FFFFFFFFF0
0000003FF0
0000003FF0
0000003FF0
0000003FF0
0000003FF0
0000003FF0
0000003FF0
0000003FF0
0000003FF0
0000003FF0
0000003FF0
0000003FF0
0000003FF0
0000003FF0
0000003FF0
0000003FF0
0000003FF0
0000003FF0
0000003FF0
ENDCHAR
STARTCHAR 00AD
ENCODING 173
SWIDTH 495 0
DWIDTH 44 0
BBX 24 11 10 17
BITMAP
FFFFFF
FFFFFF
FFFFFF
FFFFFF
FFFFFF
FFFFFF
FFFFFF
FFFFFF
FFFFFF
FFFFFF
FFFFFF
ENDCHAR
STARTCHAR 00AE
ENCODING 174
SWIDTH 495 0
DWIDTH 44 0
BBX 40 43 2 -1
BITMAP
0001FFC000
000FFFF800
003FFFFE00
00FFFFFF00
01FFFFFFC0
03FFE7FFE0
07FE007FE0
0FF8001FF0
0FF00007F8
1FE00003FC
1FC1F801FC
3F87FF81FE
3F07FFE0FE
7F07FFE07E
7E07FFF07F
7E07C1F07F
7E07C0F83F
FE07C0F83F
FC07C0F83F
FC07C1F83F
FC07C3F03F
FC07FFF03F
FC07FFE03F
FC07FFC03F
FC07FF803F
FE07C7C03F
7E07C7E03F
7E07C3E07F
7E07C1F07F
7F07C1F07E
3F07C0F8FE
3F87C0F9FC
1FC00001FC
1FE00003F8
0FF00007F8
0FF8001FF0
07FE007FE0
03FFFFFFC0
01FFFFFF80
007FFFFF00
003FFFFC00
000FFFF800
0001FF8000
ENDCHAR
STARTCHAR 00AF
ENCODING 175
SWIDTH 495 0
DWIDTH 44 0
BBX 25 8 10 50
BITMAP
FFFFFF80
FFFFFF80
FFFFFF80
FFFFFF80
FFFFFF80
FFFFFF80
FFFFFF80
FFFFFF80
ENDCHAR
STARTCHAR 00B0
ENCODING 176
SWIDTH 495 0
DWIDTH 44 0
BBX 25 25 10 37
BITMAP
00FF8000
03FFE000
0FFFF800
1FFFFC00
3FFFFE00
7FFFFE00
7FFFFF00
FFF7FF00
FF80FF80
FF007F80
FF007F80
FF007F80
FF007F80
FF007F80
FF007F80
FF80FF80
FFC1FF80
FFFFFF00
7FFFFF00
7FFFFE00
3FFFFC00
1FFFF800
0FFFF000
03FFC000
00180000
ENDCHAR
STARTCHAR 00B1
ENCODING 177
SWIDTH 495 0
DWIDTH 44 0
BBX 37 50 4 0
BITMAP
0003FE0000
0003FE0000
0003FE0000
0003FE0000
0003FE0000
0003FE0000
0003FE0000
0003FE0000
0003FE0000
0003FE0000
0003FE0000
0003FE0000
0003FE0000
0003FE0000
FFFFFFFFF8
FFFFFFFFF8
FFFFFFFFF8
FFFFFFFFF8
FFFFFFFFF8
FFFFFFFFF8
FFFFFFFFF8
FFFFFFFFF8
FFFFFFFFF8
0003FE0000
0003FE0000
0003FE0000
0003FE0000
0003FE0000
0003FE0000
0003FE0000
0003FE0000
0003FE0000
0003FE0000
0003FE0000
0003FE0000
0003FE0000
0003FE0000
0000000000
0000000000
0000000000
0000000000
FFFFFFFFF8
FFFFFFFFF8
FFFFFFFFF8
FFFFFFFFF8
FFFFFFFFF8
FFFFFFFFF8
FFFFFFFFF8
FFFFFFFFF8
FFFFFFFFF8
ENDCHAR
STARTCHAR 00B2
ENCODING 178
SWIDTH 495 0
DWIDTH 44 0
BBX 24 32 10 24
BITMAP
01FFC0
07FFF0
1FFFF8
7FFFFC
FFFFFC
7FFFFE
7FFFFE
3FFFFE
1F03FE
1C03FF
0003FE
0003FE
0003FE
0007FE
000FFC
001FF8
007FF0
00FFE0
01FFC0
03FF80
07FF00
0FFE00
0FFC00
1FF800
1FF000
3FFFFF
3FFFFF
3FFFFF
3FFFFF
7FFFFF
7FFFFF
7FFFFF
ENDCHAR
STARTCHAR 00B3
ENCODING 179
SWIDTH 495 0
DWIDTH 44 0
BBX 24 33 10 23
BITMAP
03FF80
1FFFE0
7FFFF0
7FFFF8
7FFFFC
3FFFFC
3FFFFC
1F07FE
1803FE
0003FE
0003FC
0007FC
003FF8
01FFF8
01FFF0
01FFF8
01FFFC
01FFFE
01FFFE
0007FF
0001FF
0000FF
0000FF
0001FF
3803FF
7FFFFF
7FFFFE
7FFFFE
7FFFFC
FFFFF8
FFFFF0
3FFFC0
00FC00
ENDCHAR
STARTCHAR 00B4
ENCODING 180
SWIDTH 495 0
DWIDTH 44 0
BBX 19 15 14 46
BITMAP
000C00
001E00
007E00
00FF00
01FF80
07FF80
0FFFC0
3FFFE0
7FFFC0
FFFF00
FFFC00
7FF000
3FC000
3E0000
180000
ENDCHAR
STARTCHAR 00B5
ENCODING 181
SWIDTH 495 0
DWIDTH 44 0
BBX 34 57 5 -15
BITMAP
FFE001FFC0
FFE001FFC0
FFE001FFC0
FFE001FFC0
FFE001FFC0
FFE001FFC0
FFE001FFC0
FFE001FFC0
FFE001FFC0
FFE001FFC0
FFE001FFC0
FFE001FFC0
FFE001FFC0
FFE001FFC0
FFE001FFC0
FFE001FFC0
FFE001FFC0
FFE001FFC0
FFE001FFC0
FFE001FFC0
FFE001FFC0
FFE001FFC0
FFE001FFC0
FFE001FFC0
FFE001FFC0
FFE001FFC0
FFE001FFC0
FFE001FFC0
FFF001FFC0
FFF001FFC0
FFF001FFC0
FFF801FFC0
FFFC01FFC0
FFFFFFFFC0
FFFFFFFFC0
FFFFFFFFC0
FFFFFFFFC0
FFFFFFFFC0
FFFFFFFFC0
FFFFFFFFC0
FFFFFFFFC0
FFFFFFFC00
FFE3FF8000
FFE0000000
FFE0000000
FFE0000000
FFE0000000
FFE0000000
FFE0000000
FFE0000000
FFE0000000
FFE0000000
FFE0000000
FFE0000000
FFE0000000
FFE0000000
FFE0000000
ENDCHAR
STARTCHAR 00B6
ENCODING 182
SWIDTH 495 0
DWIDTH 44 0
BBX 38 71 2 -15
BITMAP
00000F0000
0007FFFFE0
003FFFFFFC
00FFFFFFFC
03FFFFFFFC
07FFFFFFFC
0FFFFFFFFC
1FFFFFFFFC
3FFFFFFFFC
3FFFFC0FFC
7FFFFC07FC
7FFFFC07FC
FFFFFC07FC
FFFFFC07FC
FFFFFC07FC
FFFFFC07FC
FFFFFC07FC
FFFFFC07FC
FFFFFC07FC
FFFFFC07FC
FFFFFC07FC
FFFFFC07FC
FFFFFC07FC
FFFFFC07FC
FFFFFC07FC
7FFFFC07FC
7FFFFC07FC
3FFFFC07FC
3FFFFC07FC
1FFFFC07FC
0FFFFC07FC
07FFFC07FC
03FFFC07FC
00FFFC07FC
003FFC07FC
0007FC07FC
0007FC07FC
0007FC07FC
0007FC07FC
0007FC07FC
0007FC07FC
0007FC07FC
0007FC07FC
0007FC07FC
0007FC07FC
0007FC07FC
0007FC07FC
0007FC07FC
0007FC07FC
0007FC07FC
0007FC07FC
0007FC07FC
0007FC07FC
0007FC07FC
0007FC07FC
0007FC07FC
0007FC07FC
0007FC07FC
0007FC07FC
0007FC07FC
0007FC07FC
0007FC07FC
0007FC07FC
0007FC07FC
0007FC07FC
0007FC07FC
0007FC07FC
0007FC07FC
0007FC07FC
0007FC07FC
0007FC07FC
ENDCHAR
STARTCHAR 00B7
ENCODING 183
SWIDTH 495 0
DWIDTH 44 0
BBX 16 15 14 16
BITMAP
0FF0
1FFC
3FFE
7FFE
7FFF
FFFF
FFFF
FFFF
FFFF
7FFF
7FFF
7FFE
3FFE
1FFC
0FF0
ENDCHAR
STARTCHAR 00B8
ENCODING 184
SWIDTH 495 0
DWIDTH 44 0
BBX 18 17 14 -15
BITMAP
01FC00
01FC00
03F800
03F800
07FC00
07FF00
01FF80
007F80
003FC0
003FC0
007FC0
7FFFC0
7FFF80
7FFF80
FFFF00
FFFE00
7FF000
ENDCHAR
STARTCHAR 00B9
ENCODING 185
SWIDTH 495 0
DWIDTH 44 0
BBX 26 32 12 24
BITMAP
001FC000
003FC000
00FFC000
01FFC000
07FFC000
1FFFC000
7FFFC000
FFFFC000
FFFFC000
FFFFC000
7FFFC000
7F7FC000
787FC000
207FC000
007FC000
007FC000
007FC000
007FC000
007FC000
007FC000
007FC000
007FC000
007FC000
007FC000
007FC000
FFFFFFC0
FFFFFFC0
FFFFFFC0
FFFFFFC0
FFFFFFC0
FFFFFFC0
FFFFFFC0
ENDCHAR
STARTCHAR 00BA
ENCODING 186
SWIDTH 495 0
DWIDTH 44 0
BBX 31 32 7 24
BITMAP
003FF000
01FFFE00
03FFFF80
0FFFFFC0
1FFFFFE0
1FFFFFF0
3FFFFFF0
7FFFFFF8
7FF03FF8
7FE00FFC
FFC00FFC
FF8007FC
FF8007FC
FF8007FC
FF8007FE
FF8003FE
FF8007FE
FF8007FE
FF8007FC
FF8007FC
FFC007FC
FFC00FFC
7FE01FF8
7FF87FF8
3FFFFFF8
3FFFFFF0
1FFFFFE0
0FFFFFC0
07FFFF80
01FFFF00
007FFC00
000FC000
ENDCHAR
STARTCHAR 00BB
ENCODING 187
SWIDTH 495 0
DWIDTH 44 0
BBX 35 37 5 4
BITMAP
0C00020000
1C000F0000
7E001F8000
FE007F8000
FF003FC000
7F803FE000
7F801FE000
3FC01FF000
3FE00FF800
1FE007F800
1FF007FC00
0FF803FE00
0FF803FE00
07FC01FF00
03FE01FF00
03FE00FF80
01FF00FFC0
01FF807FC0
00FF803FE0
01FF807FC0
01FF00FFC0
03FE00FF80
07FE01FF00
07FC01FF00
0FF803FE00
0FF803FC00
1FF007FC00
1FE00FF800
3FE00FF800
3FC01FF000
7F801FE000
FF803FE000
FF003FC000
FF007F8000
7E001F8000
1C00070000
0400020000
ENDCHAR
STARTCHAR 00BC
ENCODING 188
SWIDTH 495 0
DWIDTH 44 0
BBX 44 56 0 0
BITMAP
003E00000000
007E0001FF00
01FE0003FE00
03FE0003FE00
0FFE0007FC00
3FFE0007FC00
FFFE000FF800
FFFE000FF800
7FFE001FF000
7EFE001FE000
78FE003FE000
20FE003FC000
00FE007FC000
00FE007F8000
00FE00FF8000
00FE01FF0000
00FE01FF0000
00FE03FE0000
00FE03FE0000
00FE07FC0000
00FE07FC0000
00FE0FF80000
00FE0FF80000
00001FF00000
00001FF00000
00003FE00000
00003FE00000
00007FC00000
00007FC00000
0000FF800000
0000FF800000
0001FF000000
0001FF000000
0003FE000000
0003FE01FF80
0007FC03FF80
0007FC03FF80
000FF807FF80
000FF80FFF80
001FF00FFF80
001FF01FBF80
003FE01F3F80
003FE03F3F80
007FC07E3F80
007FC07C3F80
00FF80FC3F80
00FF80F83F80
01FF01FFFFF0
01FE01FFFFF0
03FE01FFFFF0
03FC01FFFFF0
07FC01FFFFF0
07F801FFFFF0
0FF800003F80
1FF000003F80
1FF000003F80
ENDCHAR
STARTCHAR 00BD
ENCODING 189
SWIDTH 495 0
DWIDTH 44 0
BBX 44 56 0 0
BITMAP
003E00000000
007E0001FF00
01FE0003FE00
03FE0003FE00
0FFE0007FC00
3FFE0007FC00
FFFE000FF800
FFFE000FF800
7FFE001FF000
7EFE001FE000
78FE003FE000
20FE003FC000
00FE007FC000
00FE007F8000
00FE00FF8000
00FE01FF0000
00FE01FF0000
00FE03FE0000
00FE03FE0000
00FE07FC0000
00FE07FC0000
00FE0FF80000
00FE0FF80000
00001FF00000
00001FF00000
00003FE00000
00003FE00000
00007FC00000
00007FC00000
0000FF800000
0000FF800000
0001FF000000
0001FF000000
0003FE03FC00
0003FE0FFF00
0007FC3FFF80
0007FC7FFFC0
000FF87FFFE0
000FF83FFFE0
001FF03F1FE0
001FF01C0FE0
003FE0080FE0
003FE0001FE0
007FC0001FE0
007FC0007FC0
00FF8000FF80
00FF8003FF00
01FF0007FE00
01FE001FF800
03FE003FE000
03FC003FFFF0
07FC007FFFF0
07F8007FFFF0
0FF8007FFFF0
1FF0007FFFF0
1FF0007FFFF0
ENDCHAR
STARTCHAR 00BE
ENCODING 190
SWIDTH 495 0
DWIDTH 44 0
BBX 43 56 1 0
BITMAP
0FFE00000000
7FFF0001FF00
7FFF8001FF00
7FFFC003FE00
3FFFC003FE00
3E3FE007FC00
001FE007FC00
001FC00FF800
01FFC00FF800
07FF801FF000
07FF001FF000
07FF803FE000
07FFC03FE000
07FFE07FC000
001FE07FC000
000FF0FF8000
000FF0FF0000
7C3FF1FF0000
7FFFE1FE0000
7FFFE3FE0000
FFFFC3FC0000
FFFF87FC0000
3FFE0FF80000
00000FF80000
00001FF00000
00001FF00000
00003FE00000
00003FE00000
00007FC00000
00007FC00000
0000FF800000
0000FF800000
0001FF000000
0001FF000000
0003FE03FF00
0003FE07FF00
0007FC07FF00
0007FC0FFF00
000FF81FFF00
000FF81FFF00
001FF03F7F00
001FF03E7F00
003FE07E7F00
003FE0FC7F00
007FC0F87F00
007FC1F87F00
00FF81F07F00
00FF83FFFFE0
01FF03FFFFE0
01FF03FFFFE0
03FE03FFFFE0
03FE03FFFFE0
07FC03FFFFE0
07FC00007F00
0FF800007F00
0FF800007F00
ENDCHAR
STARTCHAR 00BF
ENCODING 191
SWIDTH 495 0
DWIDTH 44 0
BBX 32 56 6 -15
BITMAP
0001FC00
0007FE00
000FFF00
000FFF80
001FFF80
001FFFC0
001FFFC0
001FFFC0
001FFFC0
001FFF80
000FFF80
000FFF00
0007FE00
0001FC00
00000000
00000000
00000000
00000000
00000000
00000000
00000000
0003FF00
0003FF00
0007FF00
0007FF00
000FFF00
001FFE00
003FFE00
007FFC00
00FFFC00
01FFF800
03FFF000
07FFE000
0FFFC000
1FFF8000
3FFF0000
3FFE0000
7FFC0000
7FF80000
FFF00000
FFF00000
FFF00000
FFF00000
FFF00000
FFF8000C
7FFC007C
7FFF03FE
7FFFFFFE
3FFFFFFE
3FFFFFFF
1FFFFFFF
0FFFFFFF
07FFFFFF
03FFFFFC
00FFFFE0
001FFE00
ENDCHAR
STARTCHAR 00C0
ENCODING 192
SWIDTH 495 0
DWIDTH 44 0
BBX 43 74 1 0
BITMAP
000080000000
0000C0000000
0001F0000000
0003F8000000
0003FE000000
0007FF000000
000FFF800000
000FFFE00000
001FFFF00000
0007FFFC0000
0001FFFC0000
00007FFC0000
00001FF80000
000007F00000
000001F00000
000000600000
000000000000
000000000000
000000000000
0001FFF00000
0001FFF00000
0001FFF00000
0003FFF00000
0003FFF80000
0003FFF80000
0007FFF80000
0007FFFC0000
0007FFFC0000
000FFFFC0000
000FFFFE0000
000FFFFE0000
000FFBFE0000
001FF3FF0000
001FF3FF0000
001FF3FF0000
003FF1FF0000
003FE1FF8000
003FE1FF8000
007FE0FF8000
007FC0FFC000
007FC0FFC000
007FC0FFC000
00FFC07FE000
00FFC07FE000
00FF807FE000
01FF807FE000
01FF807FF000
01FF803FF000
03FF003FF000
03FF003FF000
03FF003FF800
03FF003FF800
07FFFFFFF800
07FFFFFFFC00
07FFFFFFFC00
07FFFFFFFC00
0FFFFFFFFC00
0FFFFFFFFE00
0FFFFFFFFE00
1FFFFFFFFE00
1FFFFFFFFE00
1FFC000FFF00
1FF80007FF00
3FF80007FF00
3FF80007FF00
3FF80007FF80
3FF80007FF80
7FF00003FF80
7FF00003FF80
7FF00003FFC0
7FF00003FFC0
FFF00003FFC0
FFE00001FFC0
FFE00001FFE0
ENDCHAR
STARTCHAR 00C1
ENCODING 193
SWIDTH 495 0
DWIDTH 44 0
BBX 43 74 1 0
BITMAP
000000400000
000000C00000
000003E00000
000007F00000
00001FF00000
00003FF80000
00007FFC0000
0001FFFC0000
0003FFFE0000
000FFFF80000
000FFFE00000
000FFF800000
0007FE000000
0003F8000000
0003E0000000
000180000000
000000000000
000000000000
000000000000
0001FFF00000
0001FFF00000
0001FFF00000
0003FFF00000
0003FFF80000
0003FFF80000
0007FFF80000
0007FFFC0000
0007FFFC0000
000FFFFC0000
000FFFFE0000
000FFFFE0000
000FFBFE0000
001FF3FF0000
001FF3FF0000
001FF3FF0000
003FF1FF0000
003FE1FF8000
003FE1FF8000
007FE0FF8000
007FC0FFC000
007FC0FFC000
007FC0FFC000
00FFC07FE000
00FFC07FE000
00FF807FE000
01FF807FE000
01FF807FF000
01FF803FF000
03FF003FF000
03FF003FF000
03FF003FF800
03FF003FF800
07FFFFFFF800
07FFFFFFFC00
07FFFFFFFC00
07FFFFFFFC00
0FFFFFFFFC00
0FFFFFFFFE00
0FFFFFFFFE00
1FFFFFFFFE00
1FFFFFFFFE00
1FFC000FFF00
1FF80007FF00
3FF80007FF00
3FF80007FF00
3FF80007FF80
3FF80007FF80
7FF00003FF80
7FF00003FF80
7FF00003FFC0
7FF00003FFC0
FFF00003FFC0
FFE00001FFC0
FFE00001FFE0
ENDCHAR
STARTCHAR 00C2
ENCODING 194
SWIDTH 495 0
DWIDTH 44 0
BBX 43 74 1 0
BITMAP
000004000000
00000E000000
00001F000000
00003F800000
0000FFC00000
0001FFE00000
0003FFF80000
0007FFFC0000
000FFFFE0000
001FFFFF0000
003FFBFF8000
007FF1FF8000
003FC0FF0000
001F803F0000
000F001E0000
0006000C0000
000000000000
000000000000
000000000000
0001FFF00000
0001FFF00000
0001FFF00000
0003FFF00000
0003FFF80000
0003FFF80000
0007FFF80000
0007FFFC0000
0007FFFC0000
000FFFFC0000
000FFFFE0000
000FFFFE0000
000FFBFE0000
001FF3FF0000
001FF3FF0000
001FF3FF0000
003FF1FF0000
003FE1FF8000
003FE1FF8000
007FE0FF8000
007FC0FFC000
007FC0FFC000
007FC0FFC000
00FFC07FE000
00FFC07FE000
00FF807FE000
01FF807FE000
01FF807FF000
01FF803FF000
03FF003FF000
03FF003FF000
03FF003FF800
03FF003FF800
07FFFFFFF800
07FFFFFFFC00
07FFFFFFFC00
07FFFFFFFC00
0FFFFFFFFC00
0FFFFFFFFE00
0FFFFFFFFE00
1FFFFFFFFE00
1FFFFFFFFE00
1FFC000FFF00
1FF80007FF00
3FF80007FF00
3FF80007FF00
3FF80007FF80
3FF80007FF80
7FF00003FF80
7FF00003FF80
7FF00003FFC0
7FF00003FFC0
FFF00003FFC0
FFE00001FFC0
FFE00001FFE0
ENDCHAR
STARTCHAR 00C3
ENCODING 195
SWIDTH 495 0
DWIDTH 44 0
BBX 43 72 1 0
BITMAP
000180020000
0007F8078000
001FFE0FC000
003FFFFFF000
007FFFFFE000
00FFFFFFE000
00FFFFFFC000
01FFFFFF8000
01FFFFFF8000
00FC0FFE0000
003803FC0000
001000000000
000000000000
000000000000
000000000000
000000000000
000000000000
0001FFF00000
0001FFF00000
0001FFF00000
0003FFF00000
0003FFF80000
0003FFF80000
0007FFF80000
0007FFFC0000
0007FFFC0000
000FFFFC0000
000FFFFE0000
000FFFFE0000
000FFBFE0000
001FF3FF0000
001FF3FF0000
001FF3FF0000
003FF1FF0000
003FE1FF8000
003FE1FF8000
007FE0FF8000
007FC0FFC000
007FC0FFC000
007FC0FFC000
00FFC07FE000
00FFC07FE000
00FF807FE000
01FF807FE000
01FF807FF000
01FF803FF000
03FF003FF000
03FF003FF000
03FF003FF800
03FF003FF800
07FFFFFFF800
07FFFFFFFC00
07FFFFFFFC00
07FFFFFFFC00
0FFFFFFFFC00
0FFFFFFFFE00
0FFFFFFFFE00
1FFFFFFFFE00
1FFFFFFFFE00
1FFC000FFF00
1FF80007FF00
3FF80007FF00
3FF80007FF00
3FF80007FF80
3FF80007FF80
7FF00003FF80
7FF00003FF80
7FF00003FFC0
7FF00003FFC0
FFF00003FFC0
FFE00001FFC0
FFE00001FFE0
ENDCHAR
STARTCHAR 00C4
ENCODING 196
SWIDTH 495 0
DWIDTH 44 0
BBX 43 72 1 0
BITMAP
003E001F8000
00FF803FE000
01FFC07FE000
01FFC0FFF000
03FFE0FFF000
03FFE0FFF000
03FFE0FFF000
01FFC0FFF000
01FFC07FF000
01FFC07FE000
00FF003FC000
001C000F0000
000000000000
000000000000
000000000000
000000000000
000000000000
0001FFF00000
0001FFF00000
0001FFF00000
0003FFF00000
0003FFF80000
0003FFF80000
0007FFF80000
0007FFFC0000
0007FFFC0000
000FFFFC0000
000FFFFE0000
000FFFFE0000
000FFBFE0000
001FF3FF0000
001FF3FF0000
001FF3FF0000
003FF1FF0000
003FE1FF8000
003FE1FF8000
007FE0FF8000
007FC0FFC000
007FC0FFC000
007FC0FFC000
00FFC07FE000
00FFC07FE000
00FF807FE000
01FF807FE000
01FF807FF000
01FF803FF000
03FF003FF000
03FF003FF000
03FF003FF800
03FF003FF800
07FFFFFFF800
07FFFFFFFC00
07FFFFFFFC00
07FFFFFFFC00
0FFFFFFFFC00
0FFFFFFFFE00
0FFFFFFFFE00
1FFFFFFFFE00
1FFFFFFFFE00
1FFC000FFF00
1FF80007FF00
3FF80007FF00
3FF80007FF00
3FF80007FF80
3FF80007FF80
7FF00003FF80
7FF00003FF80
7FF00003FFC0
7FF00003FFC0
FFF00003FFC0
FFE00001FFC0
FFE00001FFE0
ENDCHAR
STARTCHAR 00C5
ENCODING 197
SWIDTH 495 0
DWIDTH 44 0
BBX 43 70 1 0
BITMAP
00003F800000
0000FFE00000
0003FFF00000
0003FFF80000
0007FFFC0000
000FF3FC0000
000FC0FC0000
000FC07C0000
000FC07E0000
000FC07E0000
000FC07C0000
000FC0FC0000
000FF1FC0000
0007FFFC0000
0007FFF80000
0003FFF00000
0001FFF00000
0001FFF00000
0003FFF00000
0003FFF80000
0003FFF80000
0007FFF80000
0007FFFC0000
0007FFFC0000
000FFFFC0000
000FFFFE0000
000FFFFE0000
000FFBFE0000
001FF3FE0000
001FF3FF0000
001FF3FF0000
003FF1FF0000
003FE1FF8000
003FE1FF8000
007FE0FF8000
007FC0FFC000
007FC0FFC000
007FC0FFC000
00FFC07FC000
00FFC07FE000
00FF807FE000
01FF807FE000
01FF807FF000
01FF803FF000
03FF003FF000
03FF003FF000
03FF003FF800
03FF003FF800
07FFFFFFF800
07FFFFFFFC00
07FFFFFFFC00
07FFFFFFFC00
0FFFFFFFFC00
0FFFFFFFFE00
0FFFFFFFFE00
1FFFFFFFFE00
1FFFFFFFFE00
1FFC000FFF00
1FF80007FF00
3FF80007FF00
3FF80007FF00
3FF80007FF80
3FF80007FF80
7FF00003FF80
7FF00003FF80
7FF00003FFC0
7FF00003FFC0
FFF00003FFC0
FFE00001FFC0
FFE00001FFE0
ENDCHAR
STARTCHAR 00C6
ENCODING 198
SWIDTH 495 0
DWIDTH 44 0
BBX 43 55 1 0
BITMAP
0000FFFFFF80
0000FFFFFF80
0000FFFFFF80
0001FFFFFF80
0001FFFFFF80
0001FFFFFF80
0003FFFFFF80
0003FFFFFF80
0007FBFFFF80
0007FBFF0000
0007FBFF0000
000FFBFF0000
000FF3FF0000
000FF3FF0000
001FF3FF0000
001FF3FF0000
001FE3FF0000
003FE3FF0000
003FE3FF0000
003FE3FF0000
007FC3FF0000
007FC3FFFE00
007FC3FFFE00
00FFC3FFFE00
00FF83FFFE00
00FF83FFFE00
01FF83FFFE00
01FF83FFFE00
01FF83FFFE00
01FF03FFFE00
03FF03FF0000
03FF03FF0000
03FF03FF0000
07FFFFFF0000
07FFFFFF0000
07FFFFFF0000
07FFFFFF0000
0FFFFFFF0000
0FFFFFFF0000
0FFFFFFF0000
1FFFFFFF0000
1FFFFFFF0000
1FFC03FF0000
1FF803FF0000
3FF803FF0000
3FF803FF0000
3FF803FFFFE0
3FF803FFFFE0
7FF003FFFFE0
7FF003FFFFE0
7FF003FFFFE0
7FF003FFFFE0
FFF003FFFFE0
FFE003FFFFE0
FFE003FFFFE0
ENDCHAR
STARTCHAR 00C7
ENCODING 199
SWIDTH 495 0
DWIDTH 44 0
BBX 39 71 2 -15
BITMAP
00001FFF00
0000FFFFE0
0003FFFFF8
000FFFFFFE
003FFFFFFE
007FFFFFFE
00FFFFFFFE
01FFFFFFFC
03FFFFFFFC
03FFFE07FC
07FFE00078
0FFFC00018
0FFF800000
1FFF000000
1FFE000000
1FFC000000
3FFC000000
3FF8000000
3FF8000000
7FF8000000
7FF0000000
7FF0000000
7FF0000000
7FF0000000
7FF0000000
FFF0000000
FFF0000000
FFF0000000
FFF0000000
FFF0000000
FFF0000000
FFF0000000
7FF0000000
7FF0000000
7FF0000000
7FF0000000
7FF0000000
7FF8000000
7FF8000000
3FF8000000
3FFC000000
3FFC000000
1FFE000000
1FFE000000
1FFF000000
0FFFC00018
0FFFE0007C
07FFFF0FFC
03FFFFFFFC
03FFFFFFFC
01FFFFFFFE
00FFFFFFFE
007FFFFFFE
001FFFFFFE
000FFFFFF8
0001FFFFE0
00003FFE00
00003F8000
00007FC000
00007FF000
00001FF800
000007F800
000003FC00
000003FC00
000007FC00
0007FFFC00
0007FFF800
0007FFF800
000FFFF000
000FFFE000
0007FF0000
ENDCHAR
STARTCHAR 00C8
ENCODING 200
SWIDTH 495 0
DWIDTH 44 0
BBX 35 74 6 0
BITMAP
0010000000
0018000000
003E000000
007F000000
007FC00000
00FFE00000
01FFF00000
01FFFC0000
03FFFE0000
00FFFF8000
003FFF8000
000FFF8000
0003FF0000
0000FE0000
00003E0000
00000C0000
0000000000
0000000000
0000000000
FFFFFFFF80
FFFFFFFF80
FFFFFFFF80
FFFFFFFF80
FFFFFFFF80
FFFFFFFF80
FFFFFFFF80
FFFFFFFF80
FFFFFFFF80
FFE0000000
FFE0000000
FFE0000000
FFE0000000
FFE0000000
FFE0000000
FFE0000000
FFE0000000
FFE0000000
FFE0000000
FFE0000000
FFE0000000
FFFFFFFC00
FFFFFFFC00
FFFFFFFC00
FFFFFFFC00
FFFFFFFC00
FFFFFFFC00
FFFFFFFC00
FFFFFFFC00
FFFFFFFC00
FFE0000000
FFE0000000
FFE0000000
FFE0000000
FFE0000000
FFE0000000
FFE0000000
FFE0000000
FFE0000000
FFE0000000
FFE0000000
FFE0000000
FFE0000000
FFE0000000
FFE0000000
FFE0000000
FFFFFFFFE0
FFFFFFFFE0
FFFFFFFFE0
FFFFFFFFE0
FFFFFFFFE0
FFFFFFFFE0
FFFFFFFFE0
FFFFFFFFE0
FFFFFFFFE0
ENDCHAR
STARTCHAR 00C9
ENCODING 201
SWIDTH 495 0
DWIDTH 44 0
BBX 35 74 6 0
BITMAP
0000080000
0000180000
00007C0000
0000FE0000
0003FE0000
0007FF0000
000FFF8000
003FFF8000
007FFFC000
01FFFF0000
01FFFC0000
01FFF00000
00FFC00000
007F000000
007C000000
0030000000
0000000000
0000000000
0000000000
FFFFFFFF80
FFFFFFFF80
FFFFFFFF80
FFFFFFFF80
FFFFFFFF80
FFFFFFFF80
FFFFFFFF80
FFFFFFFF80
FFFFFFFF80
FFE0000000
FFE0000000
FFE0000000
FFE0000000
FFE0000000
FFE0000000
FFE0000000
FFE0000000
FFE0000000
FFE0000000
FFE0000000
FFE0000000
FFFFFFFC00
FFFFFFFC00
FFFFFFFC00
FFFFFFFC00
FFFFFFFC00
FFFFFFFC00
FFFFFFFC00
FFFFFFFC00
FFFFFFFC00
FFE0000000
FFE0000000
FFE0000000
FFE0000000
FFE0000000
FFE0000000
FFE0000000
FFE0000000
FFE0000000
FFE0000000
FFE0000000
FFE0000000
FFE0000000
FFE0000000
FFE0000000
FFE0000000
FFFFFFFFE0
FFFFFFFFE0
FFFFFFFFE0
FFFFFFFFE0
FFFFFFFFE0
FFFFFFFFE0
FFFFFFFFE0
FFFFFFFFE0
FFFFFFFFE0
ENDCHAR
STARTCHAR 00CA
ENCODING 202
SWIDTH 495 0
DWIDTH 44 0
BBX 35 74 6 0
BITMAP
0000800000
0001C00000
0003E00000
0007F00000
001FF80000
003FFC0000
007FFF0000
00FFFF8000
01FFFFC000
03FFFFE000
07FF7FF000
0FFE3FF000
07F81FE000
03F007E000
01E003C000
00C0018000
0000000000
0000000000
0000000000
FFFFFFFF80
FFFFFFFF80
FFFFFFFF80
FFFFFFFF80
FFFFFFFF80
FFFFFFFF80
FFFFFFFF80
FFFFFFFF80
FFFFFFFF80
FFE0000000
FFE0000000
FFE0000000
FFE0000000
FFE0000000
FFE0000000
FFE0000000
FFE0000000
FFE0000000
FFE0000000
FFE0000000
FFE0000000
FFFFFFFC00
FFFFFFFC00
FFFFFFFC00
FFFFFFFC00
FFFFFFFC00
FFFFFFFC00
FFFFFFFC00
FFFFFFFC00
FFFFFFFC00
FFE0000000
FFE0000000
FFE0000000
FFE0000000
FFE0000000
FFE0000000
FFE0000000
FFE0000000
FFE0000000
FFE0000000
FFE0000000
FFE0000000
FFE0000000
FFE0000000
FFE0000000
FFE0000000
FFFFFFFFE0
FFFFFFFFE0
FFFFFFFFE0
FFFFFFFFE0
FFFFFFFFE0
FFFFFFFFE0
FFFFFFFFE0
FFFFFFFFE0
FFFFFFFFE0
ENDCHAR
STARTCHAR 00CB
ENCODING 203
SWIDTH 495 0
DWIDTH 44 0
BBX 35 72 6 0
BITMAP
07C003F000
1FF007FC00
3FF80FFC00
3FF81FFE00
7FFC1FFE00
7FFC1FFE00
7FFC1FFE00
3FF81FFE00
3FF80FFE00
3FF80FFC00
1FE007F800
038001E000
0000000000
0000000000
0000000000
0000000000
0000000000
FFFFFFFF80
FFFFFFFF80
FFFFFFFF80
FFFFFFFF80
FFFFFFFF80
FFFFFFFF80
FFFFFFFF80
FFFFFFFF80
FFFFFFFF80
FFE0000000
FFE0000000
FFE0000000
FFE0000000
FFE0000000
FFE0000000
FFE0000000
FFE0000000
FFE0000000
FFE0000000
FFE0000000
FFE0000000
FFFFFFFC00
FFFFFFFC00
FFFFFFFC00
FFFFFFFC00
FFFFFFFC00
FFFFFFFC00
FFFFFFFC00
FFFFFFFC00
FFFFFFFC00
FFE0000000
FFE0000000
FFE0000000
FFE0000000
FFE0000000
FFE0000000
FFE0000000
FFE0000000
FFE0000000
FFE0000000
FFE0000000
FFE0000000
FFE0000000
FFE0000000
FFE0000000
FFE0000000
FFFFFFFFE0
FFFFFFFFE0
FFFFFFFFE0
FFFFFFFFE0
FFFFFFFFE0
FFFFFFFFE0
FFFFFFFFE0
FFFFFFFFE0
FFFFFFFFE0
ENDCHAR
STARTCHAR 00CC
ENCODING 204
SWIDTH 495 0
DWIDTH 44 0
BBX 35 74 5 0
BITMAP
0008000000
000C000000
001F000000
003F800000
003FE00000
007FF00000
00FFF80000
00FFFE0000
01FFFF0000
007FFFC000
001FFFC000
0007FFC000
0001FF8000
00007F0000
00001F0000
0000060000
0000000000
0000000000
0000000000
FFFFFFFFE0
FFFFFFFFE0
FFFFFFFFE0
FFFFFFFFE0
FFFFFFFFE0
FFFFFFFFE0
FFFFFFFFE0
FFFFFFFFE0
FFFFFFFFE0
000FFE0000
000FFE0000
000FFE0000
000FFE0000
000FFE0000
000FFE0000
000FFE0000
000FFE0000
000FFE0000
000FFE0000
000FFE0000
000FFE0000
000FFE0000
000FFE0000
000FFE0000
000FFE0000
000FFE0000
000FFE0000
000FFE0000
000FFE0000
000FFE0000
000FFE0000
000FFE0000
000FFE0000
000FFE0000
000FFE0000
000FFE0000
000FFE0000
000FFE0000
000FFE0000
000FFE0000
000FFE0000
000FFE0000
000FFE0000
000FFE0000
000FFE0000
000FFE0000
FFFFFFFFE0
FFFFFFFFE0
FFFFFFFFE0
FFFFFFFFE0
FFFFFFFFE0
FFFFFFFFE0
FFFFFFFFE0
FFFFFFFFE0
FFFFFFFFE0
ENDCHAR
STARTCHAR 00CD
ENCODING 205
SWIDTH 495 0
DWIDTH 44 0
BBX 35 74 5 0
BITMAP
0000040000
00000C0000
00003E0000
00007F0000
0001FF0000
0003FF8000
0007FFC000
001FFFC000
003FFFE000
00FFFF8000
00FFFE0000
00FFF80000
007FE00000
003F800000
003E000000
0018000000
0000000000
0000000000
0000000000
FFFFFFFFE0
FFFFFFFFE0
FFFFFFFFE0
FFFFFFFFE0
FFFFFFFFE0
FFFFFFFFE0
FFFFFFFFE0
FFFFFFFFE0
FFFFFFFFE0
000FFE0000
000FFE0000
000FFE0000
000FFE0000
000FFE0000
000FFE0000
000FFE0000
000FFE0000
000FFE0000
000FFE0000
000FFE0000
000FFE0000
000FFE0000
000FFE0000
000FFE0000
000FFE0000
000FFE0000
000FFE0000
000FFE0000
000FFE0000
000FFE0000
000FFE0000
000FFE0000
000FFE0000
000FFE0000
000FFE0000
000FFE0000
000FFE0000
000FFE0000
000FFE0000
000FFE0000
000FFE0000
000FFE0000
000FFE0000
000FFE0000
000FFE0000
000FFE0000
FFFFFFFFE0
FFFFFFFFE0
FFFFFFFFE0
FFFFFFFFE0
FFFFFFFFE0
FFFFFFFFE0
FFFFFFFFE0
FFFFFFFFE0
FFFFFFFFE0
ENDCHAR
STARTCHAR 00CE
ENCODING 206
SWIDTH 495 0
DWIDTH 44 0
BBX 35 74 5 0
BITMAP
0000400000
0000E00000
0001F00000
0003F80000
000FFC0000
001FFE0000
003FFF8000
007FFFC000
00FFFFE000
01FFFFF000
03FFBFF800
07FF1FF800
03FC0FF000
01F803F000
00F001E000
006000C000
0000000000
0000000000
0000000000
FFFFFFFFE0
FFFFFFFFE0
FFFFFFFFE0
FFFFFFFFE0
FFFFFFFFE0
FFFFFFFFE0
FFFFFFFFE0
FFFFFFFFE0
FFFFFFFFE0
000FFE0000
000FFE0000
000FFE0000
000FFE0000
000FFE0000
000FFE0000
000FFE0000
000FFE0000
000FFE0000
000FFE0000
000FFE0000
000FFE0000
000FFE0000
000FFE0000
000FFE0000
000FFE0000
000FFE0000
000FFE0000
000FFE0000
000FFE0000
000FFE0000
000FFE0000
000FFE0000
000FFE0000
000FFE0000
000FFE0000
000FFE0000
000FFE0000
000FFE0000
000FFE0000
000FFE0000
000FFE0000
000FFE0000
000FFE0000
000FFE0000
000FFE0000
000FFE0000
FFFFFFFFE0
FFFFFFFFE0
FFFFFFFFE0
FFFFFFFFE0
FFFFFFFFE0
FFFFFFFFE0
FFFFFFFFE0
FFFFFFFFE0
FFFFFFFFE0
ENDCHAR
STARTCHAR 00CF
ENCODING 207
SWIDTH 495 0
DWIDTH 44 0
BBX 35 72 5 0
BITMAP
03E001F800
0FF803FE00
1FFC07FE00
1FFC0FFF00
3FFE0FFF00
3FFE0FFF00
3FFE0FFF00
1FFC0FFF00
1FFC07FF00
1FFC07FE00
0FF003FC00
01C000F000
0000000000
0000000000
0000000000
0000000000
0000000000
FFFFFFFFE0
FFFFFFFFE0
FFFFFFFFE0
FFFFFFFFE0
FFFFFFFFE0
FFFFFFFFE0
FFFFFFFFE0
FFFFFFFFE0
FFFFFFFFE0
000FFE0000
000FFE0000
000FFE0000
000FFE0000
000FFE0000
000FFE0000
000FFE0000
000FFE0000
000FFE0000
000FFE0000
000FFE0000
000FFE0000
000FFE0000
000FFE0000
000FFE0000
000FFE0000
000FFE0000
000FFE0000
000FFE0000
000FFE0000
000FFE0000
000FFE0000
000FFE0000
000FFE0000
000FFE0000
000FFE0000
000FFE0000
000FFE0000
000FFE0000
000FFE0000
000FFE0000
000FFE0000
000FFE0000
000FFE0000
000FFE0000
000FFE0000
000FFE0000
FFFFFFFFE0
FFFFFFFFE0
FFFFFFFFE0
FFFFFFFFE0
FFFFFFFFE0
FFFFFFFFE0
FFFFFFFFE0
FFFFFFFFE0
FFFFFFFFE0
ENDCHAR
STARTCHAR 00D0
ENCODING 208
SWIDTH 495 0
DWIDTH 44 0
BBX 40 57 2 -1
BITMAP
0003E00000
07FFFF8000
0FFFFFF000
0FFFFFFC00
0FFFFFFE00
0FFFFFFF00
0FFFFFFF80
0FFFFFFFC0
0FFFFFFFE0
0FFFFFFFF0
0FFE03FFF0
0FFE00FFF8
0FFE007FF8
0FFE003FFC
0FFE003FFC
0FFE001FFC
0FFE001FFE
0FFE000FFE
0FFE000FFE
0FFE000FFE
0FFE000FFE
0FFE000FFF
0FFE0007FF
FFFFFC07FF
FFFFFC07FF
FFFFFC07FF
FFFFFC07FF
FFFFFC07FF
FFFFFC07FF
FFFFFC07FF
FFFFFC07FF
FFFFFC07FF
0FFE0007FF
0FFE0007FF
0FFE0007FF
0FFE000FFF
0FFE000FFE
0FFE000FFE
0FFE000FFE
0FFE001FFE
0FFE001FFE
0FFE003FFC
0FFE003FFC
0FFE007FF8
0FFE00FFF8
0FFE01FFF0
0FFE07FFF0
0FFFFFFFE0
0FFFFFFFE0
0FFFFFFFC0
0FFFFFFF80
0FFFFFFF00
0FFFFFFE00
0FFFFFF800
0FFFFFE000
07FFFF0000
000FE00000
ENDCHAR
STARTCHAR 00D1
ENCODING 209
SWIDTH 495 0
DWIDTH 44 0
BBX 36 72 4 0
BITMAP
000C001000
003FC03C00
00FFF07E00
01FFFFFF80
03FFFFFF00
07FFFFFF00
07FFFFFE00
0FFFFFFC00
0FFFFFFC00
07E07FF000
01C01FE000
0080000000
0000000000
0000000000
0000000000
0000000000
0000000000
FF80003FF0
FFC0003FF0
FFC0003FF0
FFE0003FF0
FFF0003FF0
FFF0003FF0
FFF8003FF0
FFF8003FF0
FFFC003FF0
FFFC003FF0
FFFE003FF0
FFFE003FF0
FFFF003FF0
FFFF803FF0
FFFF803FF0
FFFFC03FF0
FFFFC03FF0
FFFFE03FF0
FFFFE03FF0
FFDFF03FF0
FFDFF03FF0
FFCFF83FF0
FFCFF83FF0
FFC7FC3FF0
FFC7FC3FF0
FFC3FE3FF0
FFC3FE3FF0
FFC1FF3FF0
FFC1FF3FF0
FFC0FFBFF0
FFC0FFBFF0
FFC07FBFF0
FFC07FFFF0
FFC03FFFF0
FFC03FFFF0
FFC01FFFF0
FFC01FFFF0
FFC00FFFF0
FFC00FFFF0
FFC007FFF0
FFC007FFF0
FFC003FFF0
FFC003FFF0
FFC001FFF0
FFC001FFF0
FFC001FFF0
FFC000FFF0
FFC000FFF0
FFC0007FF0
FFC0007FF0
FFC0003FF0
FFC0003FF0
FFC0001FF0
FFC0001FF0
FFC0001FF0
ENDCHAR
STARTCHAR 00D2
ENCODING 210
SWIDTH 495 0
DWIDTH 44 0
BBX 40 75 2 -1
BITMAP
0001000000
0001800000
0003E00000
0007F00000
0007FC0000
000FFE0000
001FFF0000
001FFFC000
003FFFE000
000FFFF800
0003FFF800
0000FFF800
00003FF000
00000FE000
000003E000
000000C000
0000000000
0000000000
0001FFC000
000FFFF800
003FFFFC00
007FFFFF00
00FFFFFF80
01FFFFFFC0
03FFFFFFE0
07FFFFFFE0
07FFFFFFF0
0FFFE3FFF0
0FFF00FFF8
1FFE007FF8
1FFC003FFC
3FFC001FFC
3FF8001FFC
3FF8000FFE
3FF8000FFE
7FF0000FFE
7FF0000FFE
7FF0000FFE
7FF00007FF
7FF00007FF
7FF00007FF
7FF00007FF
FFF00007FF
FFF00007FF
FFF00007FF
FFF00007FF
FFF00007FF
FFF00007FF
FFF00007FF
FFF00007FF
7FF00007FF
7FF00007FF
7FF00007FF
7FF00007FF
7FF00007FF
7FF0000FFE
7FF0000FFE
7FF0000FFE
3FF8000FFE
3FF8000FFE
3FF8001FFC
3FFC001FFC
1FFC003FFC
1FFE007FF8
0FFF00FFF8
0FFFE7FFF0
07FFFFFFF0
07FFFFFFE0
03FFFFFFC0
01FFFFFFC0
00FFFFFF80
007FFFFF00
003FFFFC00
000FFFF000
0001FFC000
ENDCHAR
STARTCHAR 00D3
ENCODING 211
SWIDTH 495 0
DWIDTH 44 0
BBX 40 75 2 -1
BITMAP
0000008000
0000018000
000007C000
00000FE000
00003FE000
00007FF000
0000FFF800
0003FFF800
0007FFFC00
001FFFF000
001FFFC000
001FFF0000
000FFC0000
0007F00000
0007C00000
0003000000
0000000000
0000000000
0001FFC000
000FFFF800
003FFFFC00
007FFFFF00
00FFFFFF80
01FFFFFFC0
03FFFFFFE0
07FFFFFFE0
07FFFFFFF0
0FFFE3FFF0
0FFF00FFF8
1FFE007FF8
1FFC003FFC
3FFC001FFC
3FF8001FFC
3FF8000FFE
3FF8000FFE
7FF0000FFE
7FF0000FFE
7FF0000FFE
7FF00007FF
7FF00007FF
7FF00007FF
7FF00007FF
FFF00007FF
FFF00007FF
FFF00007FF
FFF00007FF
FFF00007FF
FFF00007FF
FFF00007FF
FFF00007FF
7FF00007FF
7FF00007FF
7FF00007FF
7FF00007FF
7FF00007FF
7FF0000FFE
7FF0000FFE
7FF0000FFE
3FF8000FFE
3FF8000FFE
3FF8001FFC
3FFC001FFC
1FFC003FFC
1FFE007FF8
0FFF00FFF8
0FFFE7FFF0
07FFFFFFF0
07FFFFFFE0
03FFFFFFC0
01FFFFFFC0
00FFFFFF80
007FFFFF00
003FFFFC00
000FFFF000
0001FFC000
ENDCHAR
STARTCHAR 00D4
ENCODING 212
SWIDTH 495 0
DWIDTH 44 0
BBX 40 75 2 -1
BITMAP
0000080000
00001C0000
00003E0000
00007F0000
0001FF8000
0003FFC000
0007FFF000
000FFFF800
001FFFFC00
003FFFFE00
007FF7FF00
00FFE3FF00
007F81FE00
003F007E00
001E003C00
000C001800
0000000000
0000000000
0001FFC000
000FFFF800
003FFFFC00
007FFFFF00
00FFFFFF80
01FFFFFFC0
03FFFFFFE0
07FFFFFFE0
07FFFFFFF0
0FFFE3FFF0
0FFF00FFF8
1FFE007FF8
1FFC003FFC
3FFC001FFC
3FF8001FFC
3FF8000FFE
3FF8000FFE
7FF0000FFE
7FF0000FFE
7FF0000FFE
7FF00007FF
7FF00007FF
7FF00007FF
7FF00007FF
FFF00007FF
FFF00007FF
FFF00007FF
FFF00007FF
FFF00007FF
FFF00007FF
FFF00007FF
FFF00007FF
7FF00007FF
7FF00007FF
7FF00007FF
7FF00007FF
7FF00007FF
7FF0000FFE
7FF0000FFE
7FF0000FFE
3FF8000FFE
3FF8000FFE
3FF8001FFC
3FFC001FFC
1FFC003FFC
1FFE007FF8
0FFF00FFF8
0FFFE7FFF0
07FFFFFFF0
07FFFFFFE0
03FFFFFFC0
01FFFFFFC0
00FFFFFF80
007FFFFF00
003FFFFC00
000FFFF000
0001FFC000
ENDCHAR
STARTCHAR 00D5
ENCODING 213
SWIDTH 495 0
DWIDTH 44 0
BBX 40 73 2 -1
BITMAP
0003000400
000FF00F00
003FFC1F80
007FFFFFE0
00FFFFFFC0
01FFFFFFC0
01FFFFFF80
03FFFFFF00
03FFFFFF00
01F81FFC00
007007F800
0020000000
0000000000
0000000000
0000000000
0000000000
0001FFC000
000FFFF800
003FFFFC00
007FFFFF00
00FFFFFF80
01FFFFFFC0
03FFFFFFE0
07FFFFFFE0
07FFFFFFF0
0FFFE3FFF0
0FFF00FFF8
1FFE007FF8
1FFC003FFC
3FFC001FFC
3FF8001FFC
3FF8000FFE
3FF8000FFE
7FF0000FFE
7FF0000FFE
7FF0000FFE
7FF00007FF
7FF00007FF
7FF00007FF
7FF00007FF
FFF00007FF
FFF00007FF
FFF00007FF
FFF00007FF
FFF00007FF
FFF00007FF
FFF00007FF
FFF00007FF
7FF00007FF
7FF00007FF
7FF00007FF
7FF00007FF
7FF00007FF
7FF0000FFE
7FF0000FFE
7FF0000FFE
3FF8000FFE
3FF8000FFE
3FF8001FFC
3FFC001FFC
1FFC003FFC
1FFE007FF8
0FFF00FFF8
0FFFE7FFF0
07FFFFFFF0
07FFFFFFE0
03FFFFFFC0
01FFFFFFC0
00FFFFFF80
007FFFFF00
003FFFFC00
000FFFF000
0001FFC000
ENDCHAR
STARTCHAR 00D6
ENCODING 214
SWIDTH 495 0
DWIDTH 44 0
BBX 40 73 2 -1
BITMAP
007C003F00
01FF007FC0
03FF80FFC0
03FF81FFE0
07FFC1FFE0
07FFC1FFE0
07FFC1FFE0
03FF81FFE0
03FF80FFE0
03FF80FFC0
01FE007F80
0038001E00
0000000000
0000000000
0000000000
0000000000
0001FFC000
000FFFF800
003FFFFC00
007FFFFF00
00FFFFFF80
01FFFFFFC0
03FFFFFFE0
07FFFFFFE0
07FFFFFFF0
0FFFE3FFF0
0FFF00FFF8
1FFE007FF8
1FFC003FFC
3FFC001FFC
3FF8001FFC
3FF8000FFE
3FF8000FFE
7FF0000FFE
7FF0000FFE
7FF0000FFE
7FF00007FF
7FF00007FF
7FF00007FF
7FF00007FF
FFF00007FF
FFF00007FF
FFF00007FF
FFF00007FF
FFF00007FF
FFF00007FF
FFF00007FF
FFF00007FF
7FF00007FF
7FF00007FF
7FF00007FF
7FF00007FF
7FF00007FF
7FF0000FFE
7FF0000FFE
7FF0000FFE
3FF8000FFE
3FF8000FFE
3FF8001FFC
3FFC001FFC
1FFC003FFC
1FFE007FF8
0FFF00FFF8
0FFFE7FFF0
07FFFFFFF0
07FFFFFFE0
03FFFFFFC0
01FFFFFFC0
00FFFFFF80
007FFFFF00
003FFFFC00
000FFFF000
0001FFC000
ENDCHAR
STARTCHAR 00D7
ENCODING 215
SWIDTH 495 0
DWIDTH 44 0
BBX 35 35 5 6
BITMAP
0200000800
0700001C00
0F80003E00
1FC0007F00
3FE000FF80
7FF001FFC0
FFF803FFE0
7FFC07FFC0
3FFE0FFF80
1FFF1FFF00
0FFFBFFE00
07FFFFFC00
03FFFFF800
01FFFFF000
00FFFFE000
007FFFC000
003FFF8000
001FFF0000
001FFF8000
003FFFC000
007FFFE000
00FFFFF000
01FFFFF800
03FFFFFC00
07FFBFFE00
0FFF1FFF00
1FFE0FFF80
3FFC07FFC0
7FF803FFE0
7FF001FFC0
3FE000FF80
1FC0007F00
0F80003E00
0700001C00
0200000800
ENDCHAR
STARTCHAR 00D8
ENCODING 216
SWIDTH 495 0
DWIDTH 44 0
BBX 40 61 2 -3
BITMAP
0000000380
00000003E0
0001FFC7F8
000FFFF7F8
001FFFFFF8
007FFFFFF0
00FFFFFFF0
01FFFFFFE0
03FFFFFFE0
07FFFFFFE0
07FFFFFFF0
0FFFF7FFF0
0FFF00FFF8
1FFE00FFF8
1FFC01FFFC
3FFC01FFFC
3FF803FFFC
3FF803FFFE
3FF807FFFE
7FF007FFFE
7FF00FFFFE
7FF00FFFFE
7FF01FF7FF
7FF01FF7FF
7FF01FE7FF
7FF03FE7FF
FFF03FC7FF
FFF07FC7FF
FFF07F87FF
FFF0FF87FF
FFF0FF07FF
FFF1FF07FF
FFF1FE07FF
FFF3FE07FF
FFF3FC07FF
7FF7FC07FF
7FF7F807FF
7FFFF807FF
7FFFF007FF
7FFFF00FFE
7FFFE00FFE
7FFFE00FFE
3FFFC00FFE
3FFFC00FFE
3FFF801FFC
3FFF801FFC
1FFF003FFC
1FFF003FF8
1FFF00FFF8
0FFFC3FFF0
07FFFFFFF0
07FFFFFFE0
07FFFFFFE0
0FFFFFFFC0
0FFFFFFF80
1FFFFFFF00
1FFFFFFC00
3FEFFFF800
1FE3FFC000
07C0000000
01C0000000
ENDCHAR
STARTCHAR 00D9
ENCODING 217
SWIDTH 495 0
DWIDTH 44 0
BBX 38 74 3 0
BITMAP
0007000000
000F800000
000FC00000
001FF00000
003FF80000
003FFE0000
007FFF0000
00FFFFC000
003FFFE000
000FFFE000
0003FFE000
0000FFC000
00003F8000
0000078000
0000010000
0000000000
0000000000
0000000000
FFE0001FFC
FFE0001FFC
FFE0001FFC
FFE0001FFC
FFE0001FFC
FFE0001FFC
FFE0001FFC
FFE0001FFC
FFE0001FFC
FFE0001FFC
FFE0001FFC
FFE0001FFC
FFE0001FFC
FFE0001FFC
FFE0001FFC
FFE0001FFC
FFE0001FFC
FFE0001FFC
FFE0001FFC
FFE0001FFC
FFE0001FFC
FFE0001FFC
FFE0001FFC
FFE0001FFC
FFE0001FFC
FFE0001FFC
FFE0001FFC
FFE0001FFC
FFE0001FFC
FFE0001FFC
FFE0001FFC
FFE0001FFC
FFE0001FFC
FFE0001FFC
FFE0001FFC
FFE0001FFC
FFF0001FFC
7FF0001FFC
7FF0001FFC
7FF0001FFC
7FF0001FFC
7FF0003FFC
7FF0003FF8
7FF8003FF8
3FF8007FF8
3FFC00FFF8
3FFF87FFF0
1FFFFFFFF0
1FFFFFFFE0
0FFFFFFFE0
0FFFFFFFC0
07FFFFFF80
03FFFFFF00
00FFFFFC00
003FFFF800
0007FF8000
ENDCHAR
STARTCHAR 00DA
ENCODING 218
SWIDTH 495 0
DWIDTH 44 0
BBX 38 74 3 0
BITMAP
000001C000
000003C000
00000FE000
00001FF000
00007FF000
0000FFF800
0001FFFC00
0007FFFC00
000FFFF000
001FFFC000
000FFF0000
000FFC0000
0007F00000
0003C00000
0001000000
0000000000
0000000000
0000000000
FFE0001FFC
FFE0001FFC
FFE0001FFC
FFE0001FFC
FFE0001FFC
FFE0001FFC
FFE0001FFC
FFE0001FFC
FFE0001FFC
FFE0001FFC
FFE0001FFC
FFE0001FFC
FFE0001FFC
FFE0001FFC
FFE0001FFC
FFE0001FFC
FFE0001FFC
FFE0001FFC
FFE0001FFC
FFE0001FFC
FFE0001FFC
FFE0001FFC
FFE0001FFC
FFE0001FFC
FFE0001FFC
FFE0001FFC
FFE0001FFC
FFE0001FFC
FFE0001FFC
FFE0001FFC
FFE0001FFC
FFE0001FFC
FFE0001FFC
FFE0001FFC
FFE0001FFC
FFE0001FFC
FFF0001FFC
7FF0001FFC
7FF0001FFC
7FF0001FFC
7FF0001FFC
7FF0003FFC
7FF0003FF8
7FF8003FF8
3FF8007FF8
3FFC00FFF8
3FFF87FFF0
1FFFFFFFF0
1FFFFFFFE0
0FFFFFFFE0
0FFFFFFFC0
07FFFFFF80
03FFFFFF00
00FFFFFC00
003FFFF800
0007FF8000
ENDCHAR
STARTCHAR 00DB
ENCODING 219
SWIDTH 495 0
DWIDTH 44 0
BBX 38 75 3 -1
BITMAP
0000100000
0000380000
00007C0000
0000FE0000
0003FF0000
0007FF8000
000FFFE000
001FFFF000
003FFFF800
007FFFFC00
00FFEFFE00
01FFC7FE00
00FF03FC00
007E00FC00
003C007800
0018003000
0000000000
0000000000
0000000000
FFE0001FFC
FFE0001FFC
FFE0001FFC
FFE0001FFC
FFE0001FFC
FFE0001FFC
FFE0001FFC
FFE0001FFC
FFE0001FFC
FFE0001FFC
FFE0001FFC
FFE0001FFC
FFE0001FFC
FFE0001FFC
FFE0001FFC
FFE0001FFC
FFE0001FFC
FFE0001FFC
FFE0001FFC
FFE0001FFC
FFE0001FFC
FFE0001FFC
FFE0001FFC
FFE0001FFC
FFE0001FFC
FFE0001FFC
FFE0001FFC
FFE0001FFC
FFE0001FFC
FFE0001FFC
FFE0001FFC
FFE0001FFC
FFE0001FFC
FFE0001FFC
FFE0001FFC
FFE0001FFC
FFF0001FFC
7FF0001FFC
7FF0001FFC
7FF0001FFC
7FF0001FFC
7FF0003FFC
7FF0003FF8
7FF8003FF8
3FF8007FF8
3FFC00FFF8
3FFF87FFF0
1FFFFFFFF0
1FFFFFFFE0
0FFFFFFFE0
0FFFFFFFC0
07FFFFFF80
03FFFFFF00
00FFFFFC00
003FFFF800
0007FF8000
ENDCHAR
STARTCHAR 00DC
ENCODING 220
SWIDTH 495 0
DWIDTH 44 0
BBX 38 73 3 -1
BITMAP
00F8007E00
03FE00FF80
07FF01FF80
07FF03FFC0
0FFF83FFC0
0FFF83FFC0
0FFF83FFC0
07FF03FFC0
07FF01FFC0
07FF01FF80
03FC00FF00
0070003C00
0000000000
0000000000
0000000000
0000000000
0000000000
FFE0001FFC
FFE0001FFC
FFE0001FFC
FFE0001FFC
FFE0001FFC
FFE0001FFC
FFE0001FFC
FFE0001FFC
FFE0001FFC
FFE0001FFC
FFE0001FFC
FFE0001FFC
FFE0001FFC
FFE0001FFC
FFE0001FFC
FFE0001FFC
FFE0001FFC
FFE0001FFC
FFE0001FFC
FFE0001FFC
FFE0001FFC
FFE0001FFC
FFE0001FFC
FFE0001FFC
FFE0001FFC
FFE0001FFC
FFE0001FFC
FFE0001FFC
FFE0001FFC
FFE0001FFC
FFE0001FFC
FFE0001FFC
FFE0001FFC
FFE0001FFC
FFE0001FFC
FFE0001FFC
FFF0001FFC
7FF0001FFC
7FF0001FFC
7FF0001FFC
7FF0001FFC
7FF0003FFC
7FF0003FF8
7FF8003FF8
3FF8007FF8
3FFC00FFF8
3FFF87FFF0
1FFFFFFFF0
1FFFFFFFE0
0FFFFFFFE0
0FFFFFFFC0
07FFFFFF80
03FFFFFF00
00FFFFFC00
003FFFF800
0007FF8000
ENDCHAR
STARTCHAR 00DD
ENCODING 221
SWIDTH 495 0
DWIDTH 44 0
BBX 42 73 1 1
BITMAP
000000700000
000000F00000
000003F80000
000007FC0000
00001FFC0000
00003FFE0000
00007FFF0000
0001FFFF0000
0003FFFC0000
0007FFF00000
0003FFC00000
0003FF000000
0001FC000000
0000F0000000
000040000000
000000000000
000000000000
000000000000
FFF00001FFC0
7FF00001FFC0
7FF80003FF80
7FF80003FF80
3FF80003FF80
3FFC0007FF00
1FFC0007FF00
1FFC0007FF00
1FFE000FFE00
0FFE000FFE00
0FFE001FFC00
07FF001FFC00
07FF001FF800
03FF803FF800
03FF803FF800
03FF803FF000
01FFC07FF000
01FFC07FE000
00FFE0FFE000
00FFE0FFC000
007FE0FFC000
007FF1FF8000
003FF1FF8000
003FFBFF0000
001FFBFF0000
001FFFFE0000
000FFFFE0000
000FFFFC0000
0007FFFC0000
0007FFF80000
0003FFF80000
0003FFF00000
0001FFF00000
0001FFE00000
0000FFE00000
0000FFE00000
0000FFE00000
0000FFE00000
0000FFE00000
0000FFE00000
0000FFE00000
0000FFE00000
0000FFE00000
0000FFE00000
0000FFE00000
0000FFE00000
0000FFE00000
0000FFE00000
0000FFE00000
0000FFE00000
0000FFE00000
0000FFE00000
0000FFE00000
0000FFE00000
0000FFE00000
ENDCHAR
STARTCHAR 00DE
ENCODING 222
SWIDTH 495 0
DWIDTH 44 0
BBX 37 55 5 0
BITMAP
FFE0000000
FFE0000000
FFE0000000
FFE0000000
FFE0000000
FFE0000000
FFE0000000
FFE0000000
FFFFFE0000
FFFFFFC000
FFFFFFF000
FFFFFFFC00
FFFFFFFE00
FFFFFFFF80
FFFFFFFF80
FFFFFFFFC0
FFFFFFFFE0
FFF03FFFE0
FFE003FFF0
FFE001FFF0
FFE000FFF0
FFE0007FF8
FFE0007FF8
FFE0007FF8
FFE0003FF8
FFE0003FF8
FFE0003FF8
FFE0003FF8
FFE0007FF8
FFE0007FF8
FFE0007FF8
FFE000FFF0
FFE000FFF0
FFE003FFF0
FFE007FFE0
FFFFFFFFE0
FFFFFFFFC0
FFFFFFFFC0
FFFFFFFF80
FFFFFFFF00
FFFFFFFE00
FFFFFFF800
FFFFFFE000
FFFFFF8000
FFFFF00000
FFE0000000
FFE0000000
FFE0000000
FFE0000000
FFE0000000
FFE0000000
FFE0000000
FFE0000000
FFE0000000
FFE0000000
ENDCHAR
STARTCHAR 00DF
ENCODING 223
SWIDTH 495 0
DWIDTH 44 0
BBX 41 63 3 -1
BITMAP
0000F0000000
003FFF800000
00FFFFE00000
03FFFFF80000
07FFFFFC0000
0FFFFFFE0000
1FFFFFFE0000
1FFFFFFF0000
3FFFFFFF0000
3FFFFFFF8000
7FFC07FF8000
7FF803FF8000
7FF003FF8000
FFF001FF8000
FFE001FF8000
FFE001FF8000
FFE001FF8000
FFE001FF8000
FFE003FF8000
FFE003FF0000
FFE007FF0000
FFE007FE0000
FFE00FFE0000
FFE00FFC0000
FFE01FFC0000
FFE03FF80000
FFE03FF00000
FFE07FF00000
FFE07FF00000
FFE07FE00000
FFE07FE00000
FFE07FE00000
FFE07FF00000
FFE07FF00000
FFE07FF80000
FFE07FFC0000
FFE07FFF0000
FFE03FFF8000
FFE03FFFE000
FFE01FFFF000
FFE00FFFF800
FFE003FFFC00
FFE001FFFE00
FFE0007FFE00
FFE0001FFF00
FFE0000FFF00
FFE00007FF80
FFE00007FF80
FFE00007FF80
FFE00003FF80
FFE00007FF80
FFE00007FF80
FFE0600FFF00
FFE0FE3FFF00
FFE0FFFFFF00
FFE0FFFFFF00
FFE0FFFFFE00
FFE0FFFFFE00
FFE1FFFFFC00
FFE1FFFFF800
FFE1FFFFF000
FFE07FFFC000
00000FFE0000
ENDCHAR
STARTCHAR 00E0
ENCODING 224
SWIDTH 495 0
DWIDTH 44 0
BBX 35 62 4 -1
BITMAP
0006000000
000F000000
000FC00000
001FE00000
003FF00000
003FFC0000
007FFE0000
00FFFF8000
007FFFC000
001FFFE000
0007FFE000
0001FFC000
00007F8000
00001F8000
0000030000
0000000000
0000000000
0000000000
001FFC0000
03FFFFC000
0FFFFFF000
0FFFFFFC00
0FFFFFFE00
0FFFFFFF00
07FFFFFF80
07FFFFFF80
07FFFFFFC0
07FC3FFFC0
040003FFC0
000001FFE0
000000FFE0
000000FFE0
000000FFE0
0000007FE0
0000007FE0
0007FC7FE0
007FFFFFE0
03FFFFFFE0
07FFFFFFE0
1FFFFFFFE0
3FFFFFFFE0
3FFFFFFFE0
7FFFFFFFE0
7FFC007FE0
FFF0007FE0
FFE0007FE0
FFE0007FE0
FFE0007FE0
FFE0007FE0
FFE0007FE0
FFE0007FE0
FFF0007FE0
FFFC007FE0
7FFFFFFFE0
7FFFFFFFE0
3FFFFFFFE0
3FFFFFFFE0
1FFFFFFFE0
0FFFFFFFE0
03FFFFFFE0
00FFFFFF80
001FFFE000
ENDCHAR
STARTCHAR 00E1
ENCODING 225
SWIDTH 495 0
DWIDTH 44 0
BBX 35 62 4 -1
BITMAP
0000030000
0000078000
00001F8000
00003FC000
00007FE000
0001FFE000
0003FFF000
000FFFF800
001FFFF000
003FFFC000
003FFF0000
001FFC0000
000FF00000
000F800000
0006000000
0000000000
0000000000
0000000000
001FFC0000
03FFFFC000
0FFFFFF000
0FFFFFFC00
0FFFFFFE00
0FFFFFFF00
07FFFFFF80
07FFFFFF80
07FFFFFFC0
07FC3FFFC0
040003FFC0
000001FFE0
000000FFE0
000000FFE0
000000FFE0
0000007FE0
0000007FE0
0007FC7FE0
007FFFFFE0
03FFFFFFE0
07FFFFFFE0
1FFFFFFFE0
3FFFFFFFE0
3FFFFFFFE0
7FFFFFFFE0
7FFC007FE0
FFF0007FE0
FFE0007FE0
FFE0007FE0
FFE0007FE0
FFE0007FE0
FFE0007FE0
FFE0007FE0
FFF0007FE0
FFFC007FE0
7FFFFFFFE0
7FFFFFFFE0
3FFFFFFFE0
3FFFFFFFE0
1FFFFFFFE0
0FFFFFFFE0
03FFFFFFE0
00FFFFFF80
001FFFE000
ENDCHAR
STARTCHAR 00E2
ENCODING 226
SWIDTH 495 0
DWIDTH 44 0
BBX 35 62 4 -1
BITMAP
0000600000
0000F80000
0001FC0000
0003FE0000
0007FF0000
000FFF8000
003FFFC000
007FFFE000
00FFFFF800
01FFFFFC00
03FF8FFE00
01FF07FC00
00FE03F800
007801F000
0070006000
0020000000
0000000000
0000000000
001FFC0000
03FFFFC000
0FFFFFF000
0FFFFFFC00
0FFFFFFE00
0FFFFFFF00
07FFFFFF80
07FFFFFF80
07FFFFFFC0
07FC3FFFC0
040003FFC0
000001FFE0
000000FFE0
000000FFE0
000000FFE0
0000007FE0
0000007FE0
0007FC7FE0
007FFFFFE0
03FFFFFFE0
07FFFFFFE0
1FFFFFFFE0
3FFFFFFFE0
3FFFFFFFE0
7FFFFFFFE0
7FFC007FE0
FFF0007FE0
FFE0007FE0
FFE0007FE0
FFE0007FE0
FFE0007FE0
FFE0007FE0
FFE0007FE0
FFF0007FE0
FFFC007FE0
7FFFFFFFE0
7FFFFFFFE0
3FFFFFFFE0
3FFFFFFFE0
1FFFFFFFE0
0FFFFFFFE0
03FFFFFFE0
00FFFFFF80
001FFFE000
ENDCHAR
STARTCHAR 00E3
ENCODING 227
SWIDTH 495 0
DWIDTH 44 0
BBX 35 61 4 -1
BITMAP
0000001000
003F801800
007FE03E00
01FFFEFF00
01FFFFFF80
03FFFFFF00
07FFFFFE00
07FFFFFE00
0FFFFFFC00
07F0FFF800
03E01FF000
00C007C000
0000000000
0000000000
0000000000
0000000000
0000000000
001FFC0000
03FFFFC000
0FFFFFF000
0FFFFFFC00
0FFFFFFE00
0FFFFFFF00
07FFFFFF80
07FFFFFF80
07FFFFFFC0
07FC3FFFC0
040003FFC0
000001FFE0
000000FFE0
000000FFE0
000000FFE0
0000007FE0
0000007FE0
0007FC7FE0
007FFFFFE0
03FFFFFFE0
07FFFFFFE0
1FFFFFFFE0
3FFFFFFFE0
3FFFFFFFE0
7FFFFFFFE0
7FFC007FE0
FFF0007FE0
FFE0007FE0
FFE0007FE0
FFE0007FE0
FFE0007FE0
FFE0007FE0
FFE0007FE0
FFF0007FE0
FFFC007FE0
7FFFFFFFE0
7FFFFFFFE0
3FFFFFFFE0
3FFFFFFFE0
1FFFFFFFE0
0FFFFFFFE0
03FFFFFFE0
00FFFFFF80
001FFFE000
ENDCHAR
STARTCHAR 00E4
ENCODING 228
SWIDTH 495 0
DWIDTH 44 0
BBX 35 61 4 -1
BITMAP
00F0007800
03F801FE00
0FFC03FF00
0FFE03FF80
0FFE07FF80
1FFF07FF80
1FFF07FF80
1FFF07FF80
0FFE07FF80
0FFE03FF00
07FC01FF00
01F800FC00
0000000000
0000000000
0000000000
0000000000
0000000000
001FFC0000
03FFFFC000
0FFFFFF000
0FFFFFFC00
0FFFFFFE00
0FFFFFFF00
07FFFFFF80
07FFFFFF80
07FFFFFFC0
07FC3FFFC0
040003FFC0
000001FFE0
000000FFE0
000000FFE0
000000FFE0
0000007FE0
0000007FE0
0007FC7FE0
007FFFFFE0
03FFFFFFE0
07FFFFFFE0
1FFFFFFFE0
3FFFFFFFE0
3FFFFFFFE0
7FFFFFFFE0
7FFC007FE0
FFF0007FE0
FFE0007FE0
FFE0007FE0
FFE0007FE0
FFE0007FE0
FFE0007FE0
FFE0007FE0
FFF0007FE0
FFFC007FE0
7FFFFFFFE0
7FFFFFFFE0
3FFFFFFFE0
3FFFFFFFE0
1FFFFFFFE0
0FFFFFFFE0
03FFFFFFE0
00FFFFFF80
001FFFE000
ENDCHAR
STARTCHAR 00E5
ENCODING 229
SWIDTH 495 0
DWIDTH 44 0
BBX 35 64 4 -1
BITMAP
0000F80000
0007FE0000
000FFF8000
001FFFC000
003FFFC000
003FFFE000
007F07E000
007E07E000
007E03F000
007E03F000
007E03F000
007E07E000
007F0FE000
003FFFE000
003FFFC000
001FFF8000
000FFF0000
0003FC0000
0000000000
0000000000
001FFC0000
03FFFFC000
0FFFFFF000
0FFFFFFC00
0FFFFFFE00
0FFFFFFF00
07FFFFFF80
07FFFFFF80
07FFFFFFC0
07FC3FFFC0
040003FFC0
000001FFE0
000000FFE0
000000FFE0
000000FFE0
0000007FE0
0000007FE0
0007FC7FE0
007FFFFFE0
03FFFFFFE0
07FFFFFFE0
1FFFFFFFE0
3FFFFFFFE0
3FFFFFFFE0
7FFFFFFFE0
7FFC007FE0
FFF0007FE0
FFE0007FE0
FFE0007FE0
FFE0007FE0
FFE0007FE0
FFE0007FE0
FFE0007FE0
FFF0007FE0
FFFC007FE0
7FFFFFFFE0
7FFFFFFFE0
3FFFFFFFE0
3FFFFFFFE0
1FFFFFFFE0
0FFFFFFFE0
03FFFFFFE0
00FFFFFF80
001FFFE000
ENDCHAR
STARTCHAR 00E6
ENCODING 230
SWIDTH 495 0
DWIDTH 44 0
BBX 41 44 2 -1
BITMAP
007E001F0000
07FFC07FE000
1FFFF0FFF000
1FFFF9FFF800
0FFFFFFFFC00
0FFFFFFFFC00
0FFFFFFFFE00
0FFFFFFFFE00
0FFFFFFFFF00
0703FFF1FF00
0000FFE0FF00
0000FFC0FF80
00007FC07F80
00007FC07F80
00007FC07F80
00007FC07F80
00007F807F80
007E7F807F80
03FFFFFFFF80
07FFFFFFFF80
0FFFFFFFFF80
1FFFFFFFFF80
3FFFFFFFFF80
7FFFFFFFFF80
7FFFFFFFFF80
7FE07FFFFF80
FF807F800000
FF807F800000
FF807FC00000
FF807FC00000
FF007FC00000
FF807FE00000
FF807FE00000
FF803FF00000
7FE07FFE1E00
7FFFFFFFFE00
7FFFFFFFFE00
3FFFFFFFFE00
3FFFFFFFFE00
1FFFFFFFFF00
0FFFF9FFFF00
07FFF0FFFF00
01FFE03FFE00
007F000FF000
ENDCHAR
STARTCHAR 00E7
ENCODING 231
SWIDTH 495 0
DWIDTH 44 0
BBX 37 58 4 -15
BITMAP
00001FF800
0003FFFFC0
000FFFFFF8
003FFFFFF0
00FFFFFFF0
01FFFFFFF0
03FFFFFFF0
07FFFFFFE0
0FFFFFFFE0
1FFFFFFFE0
1FFFE000E0
3FFF000000
3FFE000000
7FFC000000
7FF8000000
7FF0000000
FFF0000000
FFF0000000
FFE0000000
FFE0000000
FFE0000000
FFE0000000
FFE0000000
FFE0000000
FFE0000000
FFE0000000
FFF0000000
FFF0000000
7FF0000000
7FF8000000
7FFC000000
3FFE000000
3FFF000000
3FFFC00030
1FFFFFFFF0
0FFFFFFFF0
0FFFFFFFF0
07FFFFFFF8
03FFFFFFF8
00FFFFFFF8
007FFFFFF8
001FFFFFF8
0003FFFFF0
0000FFFE00
0000FE0000
0001FF0000
0001FFC000
00007FE000
00001FE000
00000FF000
00000FF000
00001FF000
001FFFF000
001FFFE000
001FFFE000
003FFFC000
003FFF8000
001FFC0000
ENDCHAR
STARTCHAR 00E8
ENCODING 232
SWIDTH 495 0
DWIDTH 44 0
BBX 38 62 3 -1
BITMAP
0003000000
0007800000
0007E00000
000FF00000
001FF80000
001FFE0000
003FFF0000
007FFFC000
003FFFE000
000FFFF000
0003FFF000
0000FFE000
00003FC000
00000FC000
0000018000
0000000000
0000000000
0000000000
0000FF0000
000FFFF000
003FFFFC00
007FFFFE00
01FFFFFF00
03FFFFFF80
07FFFFFFC0
0FFFFFFFE0
0FFFFFFFF0
1FFFC3FFF0
3FFE00FFF0
3FFC007FF8
3FF8003FF8
7FF0001FF8
7FF0001FFC
7FF0001FFC
FFE0000FFC
FFE0000FFC
FFFFFFFFFC
FFFFFFFFFC
FFFFFFFFFC
FFFFFFFFFC
FFFFFFFFFC
FFFFFFFFFC
FFFFFFFFFC
FFFFFFFFFC
FFE0000000
FFE0000000
FFF0000000
7FF0000000
7FF8000000
7FFC000000
3FFE000000
3FFF8003E0
1FFFFFFFE0
1FFFFFFFE0
0FFFFFFFE0
07FFFFFFE0
03FFFFFFE0
01FFFFFFF0
007FFFFFF0
003FFFFFF0
0007FFFF80
00007FF800
ENDCHAR
STARTCHAR 00E9
ENCODING 233
SWIDTH 495 0
DWIDTH 44 0
BBX 38 62 3 -1
BITMAP
000000C000
000001E000
000007E000
00000FF000
00003FF800
00007FF800
0001FFFC00
0003FFFE00
0007FFFC00
001FFFF000
000FFF8000
0007FE0000
0007F80000
0003E00000
0001800000
0000000000
0000000000
0000000000
0000FF0000
000FFFF000
003FFFFC00
007FFFFE00
01FFFFFF00
03FFFFFF80
07FFFFFFC0
0FFFFFFFE0
0FFFFFFFF0
1FFFC3FFF0
3FFE00FFF0
3FFC007FF8
3FF8003FF8
7FF0001FF8
7FF0001FFC
7FF0001FFC
FFE0000FFC
FFE0000FFC
FFFFFFFFFC
FFFFFFFFFC
FFFFFFFFFC
FFFFFFFFFC
FFFFFFFFFC
FFFFFFFFFC
FFFFFFFFFC
FFFFFFFFFC
FFE0000000
FFE0000000
FFF0000000
7FF0000000
7FF8000000
7FFC000000
3FFE000000
3FFF8003E0
1FFFFFFFE0
1FFFFFFFE0
0FFFFFFFE0
07FFFFFFE0
03FFFFFFE0
01FFFFFFF0
007FFFFFF0
003FFFFFF0
0007FFFF80
00007FF800
ENDCHAR
STARTCHAR 00EA
ENCODING 234
SWIDTH 495 0
DWIDTH 44 0
BBX 38 62 3 -1
BITMAP
0000180000
00003C0000
0000FE0000
0001FF0000
0003FF8000
0007FFC000
000FFFF000
001FFFF800
003FFFFC00
00FFFFFE00
01FFE7FF00
00FF83FE00
007F00FC00
003E007800
0018003800
0000001000
0000000000
0000000000
0000FF0000
000FFFF000
003FFFFC00
007FFFFE00
01FFFFFF00
03FFFFFF80
07FFFFFFC0
0FFFFFFFE0
0FFFFFFFF0
1FFFC3FFF0
3FFE00FFF0
3FFC007FF8
3FF8003FF8
7FF0001FF8
7FF0001FFC
7FF0001FFC
FFE0000FFC
FFE0000FFC
FFFFFFFFFC
FFFFFFFFFC
FFFFFFFFFC
FFFFFFFFFC
FFFFFFFFFC
FFFFFFFFFC
FFFFFFFFFC
FFFFFFFFFC
FFE0000000
FFE0000000
FFF0000000
7FF0000000
7FF8000000
7FFC000000
3FFE000000
3FFF8003E0
1FFFFFFFE0
1FFFFFFFE0
0FFFFFFFE0
07FFFFFFE0
03FFFFFFE0
01FFFFFFF0
007FFFFFF0
003FFFFFF0
0007FFFF80
00007FF800
ENDCHAR
STARTCHAR 00EB
ENCODING 235
SWIDTH 495 0
DWIDTH 44 0
BBX 38 61 3 -1
BITMAP
0078003C00
01FC00FF00
07FE01FF80
07FF01FFC0
07FF03FFC0
0FFF83FFC0
0FFF83FFC0
0FFF83FFC0
07FF03FFC0
07FF01FF80
03FE00FF80
00FC007E00
0000000000
0000000000
0000000000
0000000000
0000000000
0000FF0000
000FFFF000
003FFFFC00
007FFFFE00
01FFFFFF00
03FFFFFF80
07FFFFFFC0
0FFFFFFFE0
0FFFFFFFF0
1FFFC3FFF0
3FFE00FFF0
3FFC007FF8
3FF8003FF8
7FF0001FF8
7FF0001FFC
7FF0001FFC
FFE0000FFC
FFE0000FFC
FFFFFFFFFC
FFFFFFFFFC
FFFFFFFFFC
FFFFFFFFFC
FFFFFFFFFC
FFFFFFFFFC
FFFFFFFFFC
FFFFFFFFFC
FFE0000000
FFE0000000
FFF0000000
7FF0000000
7FF8000000
7FFC000000
3FFE000000
3FFF8003E0
1FFFFFFFE0
1FFFFFFFE0
0FFFFFFFE0
07FFFFFFE0
03FFFFFFE0
01FFFFFFF0
007FFFFFF0
003FFFFFF0
0007FFFF80
00007FF800
ENDCHAR
STARTCHAR 00EC
ENCODING 236
SWIDTH 495 0
DWIDTH 44 0
BBX 38 62 3 -1
BITMAP
000C000000
000F000000
001F800000
003FC00000
003FF00000
007FF80000
00FFFE0000
00FFFF0000
007FFFC000
001FFFE000
0007FFC000
0001FFC000
00007F8000
00001F0000
0000060000
0000000000
0000000000
0000000000
0000000000
FFFFFE0000
FFFFFE0000
FFFFFE0000
FFFFFE0000
FFFFFE0000
FFFFFE0000
FFFFFE0000
FFFFFE0000
FFFFFE0000
000FFE0000
000FFE0000
000FFE0000
000FFE0000
000FFE0000
000FFE0000
000FFE0000
000FFE0000
000FFE0000
000FFE0000
000FFE0000
000FFE0000
000FFE0000
000FFE0000
000FFE0000
000FFE0000
000FFE0000
000FFE0000
000FFE0000
000FFE0000
000FFE0000
000FFE0000
000FFF0000
000FFF8038
0007FFFFF8
0007FFFFFC
0007FFFFFC
0003FFFFFC
0003FFFFFC
0001FFFFFC
0000FFFFFC
00007FFFFC
00001FFFF0
000003FF00
ENDCHAR
STARTCHAR 00ED
ENCODING 237
SWIDTH 495 0
DWIDTH 44 0
BBX 38 62 3 -1
BITMAP
0000030000
0000078000
00001F8000
00003FC000
0000FFE000
0001FFE000
0003FFF000
000FFFF800
001FFFF000
007FFFC000
003FFF0000
001FFC0000
001FE00000
000F800000
0006000000
0000000000
0000000000
0000000000
0000000000
FFFFFE0000
FFFFFE0000
FFFFFE0000
FFFFFE0000
FFFFFE0000
FFFFFE0000
FFFFFE0000
FFFFFE0000
FFFFFE0000
000FFE0000
000FFE0000
000FFE0000
000FFE0000
000FFE0000
000FFE0000
000FFE0000
000FFE0000
000FFE0000
000FFE0000
000FFE0000
000FFE0000
000FFE0000
000FFE0000
000FFE0000
000FFE0000
000FFE0000
000FFE0000
000FFE0000
000FFE0000
000FFE0000
000FFE0000
000FFF0000
000FFF8038
0007FFFFF8
0007FFFFFC
0007FFFFFC
0003FFFFFC
0003FFFFFC
0001FFFFFC
0000FFFFFC
00007FFFFC
00001FFFF0
000003FF00
ENDCHAR
STARTCHAR 00EE
ENCODING 238
SWIDTH 495 0
DWIDTH 44 0
BBX 38 62 3 -1
BITMAP
0000600000
0000F00000
0001F80000
0007FC0000
000FFE0000
001FFF8000
003FFFC000
007FFFE000
00FFFFF000
03FFFFF800
07FF9FFC00
03FE0FF800
01FC03F000
00F801F000
006000E000
0000000000
0000000000
0000000000
0000000000
FFFFFE0000
FFFFFE0000
FFFFFE0000
FFFFFE0000
FFFFFE0000
FFFFFE0000
FFFFFE0000
FFFFFE0000
FFFFFE0000
000FFE0000
000FFE0000
000FFE0000
000FFE0000
000FFE0000
000FFE0000
000FFE0000
000FFE0000
000FFE0000
000FFE0000
000FFE0000
000FFE0000
000FFE0000
000FFE0000
000FFE0000
000FFE0000
000FFE0000
000FFE0000
000FFE0000
000FFE0000
000FFE0000
000FFE0000
000FFF0000
000FFF8038
0007FFFFF8
0007FFFFFC
0007FFFFFC
0003FFFFFC
0003FFFFFC
0001FFFFFC
0000FFFFFC
00007FFFFC
00001FFFF0
000003FF00
ENDCHAR
STARTCHAR 00EF
ENCODING 239
SWIDTH 495 0
DWIDTH 44 0
BBX 38 61 3 -1
BITMAP
01E0007800
07F801FE00
0FFC03FF00
1FFE07FF00
1FFE07FF80
1FFE07FF80
1FFE07FF80
1FFE07FF80
1FFE07FF00
0FFC07FF00
07F803FE00
03F000FC00
0000000000
0000000000
0000000000
0000000000
0000000000
0000000000
FFFFFE0000
FFFFFE0000
FFFFFE0000
FFFFFE0000
FFFFFE0000
FFFFFE0000
FFFFFE0000
FFFFFE0000
FFFFFE0000
000FFE0000
000FFE0000
000FFE0000
000FFE0000
000FFE0000
000FFE0000
000FFE0000
000FFE0000
000FFE0000
000FFE0000
000FFE0000
000FFE0000
000FFE0000
000FFE0000
000FFE0000
000FFE0000
000FFE0000
000FFE0000
000FFE0000
000FFE0000
000FFE0000
000FFE0000
000FFF0000
000FFF8038
0007FFFFF8
0007FFFFFC
0007FFFFFC
0003FFFFFC
0003FFFFFC
0001FFFFFC
0000FFFFFC
00007FFFFC
00001FFFF0
000003FF00
ENDCHAR
STARTCHAR 00F0
ENCODING 240
SWIDTH 495 0
DWIDTH 44 0
BBX 39 63 4 -1
BITMAP
0000400000
0000F00000
0001F80000
0003FC0000
0007FE0000
000FFF0018
001FFF80F8
000FFFC7F8
0007FFFFFC
0003FFFFFC
0001FFFFFC
0000FFFFFE
0001FFFFF8
000FFFFFC0
001FFFFE00
001FFFFE00
001FFFFF00
000FFFFF00
000FE7FF80
000F03FF80
000003FF80
000001FFC0
000001FFC0
000000FFC0
000000FFE0
001FFCFFE0
007FFFFFE0
01FFFFFFE0
03FFFFFFF0
07FFFFFFF0
0FFFFFFFF0
1FFFFFFFF0
3FFFFFFFF0
3FFF0FFFF0
7FFC01FFF0
7FF8007FF0
7FF0007FF0
FFF0007FF0
FFE0007FF0
FFE0007FF0
FFE0007FF0
FFE0007FF0
FFE0007FF0
FFE0007FF0
FFE0007FF0
FFE0007FF0
FFE000FFF0
FFE000FFE0
FFF000FFE0
FFF001FFE0
FFF801FFE0
7FF803FFC0
7FFC07FFC0
3FFF9FFF80
3FFFFFFF80
1FFFFFFF00
1FFFFFFF00
0FFFFFFE00
07FFFFFC00
03FFFFF800
00FFFFF000
003FFFC000
000FFE0000
ENDCHAR
STARTCHAR 00F1
ENCODING 241
SWIDTH 495 0
DWIDTH 44 0
BBX 33 60 6 0
BITMAP
0000004000
00FE006000
01FF80F800
07FFFBFC00
07FFFFFE00
0FFFFFFC00
1FFFFFF800
1FFFFFF800
3FFFFFF000
1FC3FFE000
0F807FC000
03001F0000
0000000000
0000000000
0000000000
0000000000
0000000000
000FC00000
0FFFFF0000
FFFFFFC000
FFFFFFF000
FFFFFFF800
FFFFFFFC00
FFFFFFFC00
FFFFFFFE00
FFFFFFFE00
FFFFFFFF00
FFE01FFF00
FFE00FFF00
FFE007FF80
FFE007FF80
FFE003FF80
FFE003FF80
FFE003FF80
FFE003FF80
FFE003FF80
FFE003FF80
FFE003FF80
FFE003FF80
FFE003FF80
FFE003FF80
FFE003FF80
FFE003FF80
FFE003FF80
FFE003FF80
FFE003FF80
FFE003FF80
FFE003FF80
FFE003FF80
FFE003FF80
FFE003FF80
FFE003FF80
FFE003FF80
FFE003FF80
FFE003FF80
FFE003FF80
FFE003FF80
FFE003FF80
FFE003FF80
FFE003FF80
ENDCHAR
STARTCHAR 00F2
ENCODING 242
SWIDTH 495 0
DWIDTH 44 0
BBX 39 62 3 -1
BITMAP
0003000000
0007800000
0007E00000
000FF00000
001FF80000
001FFE0000
003FFF0000
007FFFC000
003FFFE000
000FFFF000
0003FFF000
0000FFE000
00003FC000
00000FC000
0000018000
0000000000
0000000000
0000000000
0001FE0000
000FFFE000
003FFFF800
00FFFFFC00
01FFFFFF00
03FFFFFF80
07FFFFFFC0
0FFFFFFFE0
1FFFFFFFE0
1FFFFFFFF0
3FFF01FFF0
3FFC00FFF8
7FF8007FF8
7FF8003FFC
7FF0003FFC
FFF0001FFC
FFE0001FFC
FFE0001FFE
FFE0001FFE
FFE0000FFE
FFE0000FFE
FFE0000FFE
FFE0000FFE
FFE0000FFE
FFE0000FFE
FFE0001FFE
FFE0001FFE
FFE0001FFC
FFF0001FFC
FFF0003FFC
7FF0003FFC
7FF8007FF8
3FFC007FF8
3FFE01FFF0
1FFFCFFFF0
1FFFFFFFE0
0FFFFFFFE0
07FFFFFFC0
07FFFFFF80
03FFFFFF00
00FFFFFE00
007FFFF800
001FFFE000
0003FF8000
ENDCHAR
STARTCHAR 00F3
ENCODING 243
SWIDTH 495 0
DWIDTH 44 0
BBX 39 62 3 -1
BITMAP
0000010000
0000078000
00000FC000
00003FC000
00007FE000
0001FFF000
0003FFF000
0007FFF800
001FFFF000
003FFFC000
003FFF0000
001FFC0000
000FF00000
0007C00000
0007000000
0000000000
0000000000
0000000000
0001FE0000
000FFFE000
003FFFF800
00FFFFFC00
01FFFFFF00
03FFFFFF80
07FFFFFFC0
0FFFFFFFE0
1FFFFFFFE0
1FFFFFFFF0
3FFF01FFF0
3FFC00FFF8
7FF8007FF8
7FF8003FFC
7FF0003FFC
FFF0001FFC
FFE0001FFC
FFE0001FFE
FFE0001FFE
FFE0000FFE
FFE0000FFE
FFE0000FFE
FFE0000FFE
FFE0000FFE
FFE0000FFE
FFE0001FFE
FFE0001FFE
FFE0001FFC
FFF0001FFC
FFF0003FFC
7FF0003FFC
7FF8007FF8
3FFC007FF8
3FFE01FFF0
1FFFCFFFF0
1FFFFFFFE0
0FFFFFFFE0
07FFFFFFC0
07FFFFFF80
03FFFFFF00
00FFFFFE00
007FFFF800
001FFFE000
0003FF8000
ENDCHAR
STARTCHAR 00F4
ENCODING 244
SWIDTH 495 0
DWIDTH 44 0
BBX 39 62 3 -1
BITMAP
0000300000
00007C0000
0000FE0000
0001FF0000
0003FF8000
0007FFC000
001FFFE000
003FFFF000
007FFFFC00
00FFFFFE00
01FFC7FF00
00FF83FE00
007F01FC00
003C00F800
0038003000
0010000000
0000000000
0000000000
0001FE0000
000FFFE000
003FFFF800
00FFFFFC00
01FFFFFF00
03FFFFFF80
07FFFFFFC0
0FFFFFFFE0
1FFFFFFFE0
1FFFFFFFF0
3FFF01FFF0
3FFC00FFF8
7FF8007FF8
7FF8003FFC
7FF0003FFC
FFF0001FFC
FFE0001FFC
FFE0001FFE
FFE0001FFE
FFE0000FFE
FFE0000FFE
FFE0000FFE
FFE0000FFE
FFE0000FFE
FFE0000FFE
FFE0001FFE
FFE0001FFE
FFE0001FFC
FFF0001FFC
FFF0003FFC
7FF0003FFC
7FF8007FF8
3FFC007FF8
3FFE01FFF0
1FFFCFFFF0
1FFFFFFFE0
0FFFFFFFE0
07FFFFFFC0
07FFFFFF80
03FFFFFF00
00FFFFFE00
007FFFF800
001FFFE000
0003FF8000
ENDCHAR
STARTCHAR 00F5
ENCODING 245
SWIDTH 495 0
DWIDTH 44 0
BBX 39 61 3 -1
BITMAP
0000000800
001FC00C00
003FF01F00
00FFFF7F80
00FFFFFFC0
01FFFFFF80
03FFFFFF00
03FFFFFF00
07FFFFFE00
03F87FFC00
01F00FF800
006003E000
0000000000
0000000000
0000000000
0000000000
0000000000
0001FE0000
000FFFE000
003FFFF800
00FFFFFC00
01FFFFFF00
03FFFFFF80
07FFFFFFC0
0FFFFFFFE0
1FFFFFFFE0
1FFFFFFFF0
3FFF01FFF0
3FFC00FFF8
7FF8007FF8
7FF8003FFC
7FF0003FFC
FFF0001FFC
FFE0001FFC
FFE0001FFE
FFE0001FFE
FFE0000FFE
FFE0000FFE
FFE0000FFE
FFE0000FFE
FFE0000FFE
FFE0000FFE
FFE0001FFE
FFE0001FFE
FFE0001FFC
FFF0001FFC
FFF0003FFC
7FF0003FFC
7FF8007FF8
3FFC007FF8
3FFE01FFF0
1FFFCFFFF0
1FFFFFFFE0
0FFFFFFFE0
07FFFFFFC0
07FFFFFF80
03FFFFFF00
00FFFFFE00
007FFFF800
001FFFE000
0003FF8000
ENDCHAR
STARTCHAR 00F6
ENCODING 246
SWIDTH 495 0
DWIDTH 44 0
BBX 39 61 3 -1
BITMAP
0078003C00
01FC00FF00
07FE01FF80
07FF01FFC0
07FF03FFC0
0FFF83FFC0
0FFF83FFC0
0FFF83FFC0
07FF03FFC0
07FF01FF80
03FE00FF80
00FC007E00
0000000000
0000000000
0000000000
0000000000
0000000000
0001FE0000
000FFFE000
003FFFF800
00FFFFFC00
01FFFFFF00
03FFFFFF80
07FFFFFFC0
0FFFFFFFE0
1FFFFFFFE0
1FFFFFFFF0
3FFF01FFF0
3FFC00FFF8
7FF8007FF8
7FF8003FFC
7FF0003FFC
FFF0001FFC
FFE0001FFC
FFE0001FFE
FFE0001FFE
FFE0000FFE
FFE0000FFE
FFE0000FFE
FFE0000FFE
FFE0000FFE
FFE0000FFE
FFE0001FFE
FFE0001FFE
FFE0001FFC
FFF0001FFC
FFF0003FFC
7FF0003FFC
7FF8007FF8
3FFC007FF8
3FFE01FFF0
1FFFCFFFF0
1FFFFFFFE0
0FFFFFFFE0
07FFFFFFC0
07FFFFFF80
03FFFFFF00
00FFFFFE00
007FFFF800
001FFFE000
0003FF8000
ENDCHAR
STARTCHAR 00F7
ENCODING 247
SWIDTH 495 0
DWIDTH 44 0
BBX 37 46 4 0
BITMAP
0000F80000
0003FE0000
0007FE0000
0007FF0000
000FFF0000
000FFF0000
000FFF8000
000FFF0000
000FFF0000
0007FF0000
0007FE0000
0003FE0000
0000F80000
0000000000
0000000000
0000000000
0000000000
0000000000
FFFFFFFFF8
FFFFFFFFF8
FFFFFFFFF8
FFFFFFFFF8
FFFFFFFFF8
FFFFFFFFF8
FFFFFFFFF8
FFFFFFFFF8
FFFFFFFFF8
0000000000
0000000000
0000000000
0000000000
0000000000
0000600000
0001FC0000
0007FE0000
0007FF0000
000FFF0000
000FFF0000
000FFF8000
000FFF8000
000FFF0000
000FFF0000
0007FF0000
0003FE0000
0001FC0000
0000200000
ENDCHAR
STARTCHAR 00F8
ENCODING 248
SWIDTH 495 0
DWIDTH 44 0
BBX 39 48 3 -3
BITMAP
0000000080
00000000C0
00007C01E0
000FFFC3F8
003FFFFBFC
00FFFFFFF8
01FFFFFFF8
03FFFFFFF0
07FFFFFFE0
0FFFFFFFE0
1FFFFFFFE0
1FFFFFFFF0
3FFF01FFF0
3FFC01FFF8
7FF803FFF8
7FF807FFFC
7FF007FFFC
FFF00FFFFC
FFE01FFFFC
FFE03FFFFE
FFE03FCFFE
FFE07FCFFE
FFE0FF8FFE
FFE0FF0FFE
FFE1FE0FFE
FFE3FE0FFE
FFE7FC0FFE
FFE7F80FFE
FFEFF81FFE
FFFFF01FFE
FFFFE01FFC
FFFFC01FFC
7FFFC03FFC
7FFF807FF8
7FFF007FF8
3FFE00FFF8
3FFF83FFF0
1FFFFFFFF0
0FFFFFFFE0
0FFFFFFFC0
1FFFFFFF80
3FFFFFFF00
3FFFFFFE00
7FFFFFFC00
7F9FFFF000
3F07FF8000
1E00000000
0600000000
ENDCHAR
STARTCHAR 00F9
ENCODING 249
SWIDTH 495 0
DWIDTH 44 0
BBX 34 62 5 -1
BITMAP
000C000000
001E000000
001F800000
003FC00000
007FE00000
007FF80000
00FFFC0000
01FFFF0000
00FFFF8000
003FFFC000
000FFFC000
0003FF8000
0000FF0000
00003F0000
0000060000
0000000000
0000000000
0000000000
0000000000
FFE001FFC0
FFE001FFC0
FFE001FFC0
FFE001FFC0
FFE001FFC0
FFE001FFC0
FFE001FFC0
FFE001FFC0
FFE001FFC0
FFE001FFC0
FFE001FFC0
FFE001FFC0
FFE001FFC0
FFE001FFC0
FFE001FFC0
FFE001FFC0
FFE001FFC0
FFE001FFC0
FFE001FFC0
FFE001FFC0
FFE001FFC0
FFE001FFC0
FFE001FFC0
FFE001FFC0
FFE001FFC0
FFE001FFC0
FFE001FFC0
FFF001FFC0
7FF001FFC0
7FF001FFC0
7FF001FFC0
7FF801FFC0
7FFC01FFC0
7FFFFFFFC0
3FFFFFFFC0
3FFFFFFFC0
1FFFFFFFC0
0FFFFFFFC0
0FFFFFFFC0
07FFFFFFC0
01FFFFFFC0
007FFFFC00
000FFF8000
ENDCHAR
STARTCHAR 00FA
ENCODING 250
SWIDTH 495 0
DWIDTH 44 0
BBX 34 62 5 -1
BITMAP
00000C0000
00001E0000
00007E0000
0000FF0000
0003FF8000
0007FF8000
000FFFC000
003FFFE000
007FFFC000
01FFFF0000
00FFFC0000
007FF00000
007F800000
003E000000
0018000000
0000000000
0000000000
0000000000
0000000000
FFE001FFC0
FFE001FFC0
FFE001FFC0
FFE001FFC0
FFE001FFC0
FFE001FFC0
FFE001FFC0
FFE001FFC0
FFE001FFC0
FFE001FFC0
FFE001FFC0
FFE001FFC0
FFE001FFC0
FFE001FFC0
FFE001FFC0
FFE001FFC0
FFE001FFC0
FFE001FFC0
FFE001FFC0
FFE001FFC0
FFE001FFC0
FFE001FFC0
FFE001FFC0
FFE001FFC0
FFE001FFC0
FFE001FFC0
FFE001FFC0
FFF001FFC0
7FF001FFC0
7FF001FFC0
7FF001FFC0
7FF801FFC0
7FFC01FFC0
7FFFFFFFC0
3FFFFFFFC0
3FFFFFFFC0
1FFFFFFFC0
0FFFFFFFC0
0FFFFFFFC0
07FFFFFFC0
01FFFFFFC0
007FFFFC00
000FFF8000
ENDCHAR
STARTCHAR 00FB
ENCODING 251
SWIDTH 495 0
DWIDTH 44 0
BBX 34 62 5 -1
BITMAP
0000C00000
0001F00000
0003F80000
0007FC0000
000FFE0000
001FFF0000
007FFF8000
00FFFFC000
01FFFFF000
03FFFFF800
07FF1FFC00
03FE0FF800
01FC07F000
00F003E000
00E000C000
0040000000
0000000000
0000000000
0000000000
FFE001FFC0
FFE001FFC0
FFE001FFC0
FFE001FFC0
FFE001FFC0
FFE001FFC0
FFE001FFC0
FFE001FFC0
FFE001FFC0
FFE001FFC0
FFE001FFC0
FFE001FFC0
FFE001FFC0
FFE001FFC0
FFE001FFC0
FFE001FFC0
FFE001FFC0
FFE001FFC0
FFE001FFC0
FFE001FFC0
FFE001FFC0
FFE001FFC0
FFE001FFC0
FFE001FFC0
FFE001FFC0
FFE001FFC0
FFE001FFC0
FFF001FFC0
7FF001FFC0
7FF001FFC0
7FF001FFC0
7FF801FFC0
7FFC01FFC0
7FFFFFFFC0
3FFFFFFFC0
3FFFFFFFC0
1FFFFFFFC0
0FFFFFFFC0
0FFFFFFFC0
07FFFFFFC0
01FFFFFFC0
007FFFFC00
000FFF8000
ENDCHAR
STARTCHAR 00FC
ENCODING 252
SWIDTH 495 0
DWIDTH 44 0
BBX 34 61 5 -1
BITMAP
01E000F000
07F003FC00
1FF807FE00
1FFC07FF00
1FFC0FFF00
3FFE0FFF00
3FFE0FFF00
3FFE0FFF00
1FFC0FFF00
1FFC07FE00
0FF803FE00
03F001F800
0000000000
0000000000
0000000000
0000000000
0000000000
0000000000
FFE001FFC0
FFE001FFC0
FFE001FFC0
FFE001FFC0
FFE001FFC0
FFE001FFC0
FFE001FFC0
FFE001FFC0
FFE001FFC0
FFE001FFC0
FFE001FFC0
FFE001FFC0
FFE001FFC0
FFE001FFC0
FFE001FFC0
FFE001FFC0
FFE001FFC0
FFE001FFC0
FFE001FFC0
FFE001FFC0
FFE001FFC0
FFE001FFC0
FFE001FFC0
FFE001FFC0
FFE001FFC0
FFE001FFC0
FFE001FFC0
FFF001FFC0
7FF001FFC0
7FF001FFC0
7FF001FFC0
7FF801FFC0
7FFC01FFC0
7FFFFFFFC0
3FFFFFFFC0
3FFFFFFFC0
1FFFFFFFC0
0FFFFFFFC0
0FFFFFFFC0
07FFFFFFC0
01FFFFFFC0
007FFFFC00
000FFF8000
ENDCHAR
STARTCHAR 00FD
ENCODING 253
SWIDTH 495 0
DWIDTH 44 0
BBX 40 76 2 -15
BITMAP
0000018000
000003C000
00000FC000
00001FE000
00007FF000
0000FFF000
0001FFF800
0007FFFC00
000FFFF800
003FFFE000
001FFF8000
000FFE0000
000FF00000
0007C00000
0003000000
0000000000
0000000000
0000000000
0000000000
7FF80007FF
3FF8000FFF
3FF8000FFE
3FF8000FFE
3FFC000FFE
1FFC000FFC
1FFC001FFC
1FFE001FFC
0FFE001FFC
0FFE001FF8
0FFE003FF8
07FF003FF8
07FF003FF8
07FF003FF0
07FF803FF0
03FF807FF0
03FF807FE0
01FFC07FE0
01FFC07FE0
01FFC0FFC0
00FFE0FFC0
00FFE0FFC0
00FFE1FFC0
007FF1FF80
007FF1FF80
003FF1FF80
003FFBFF00
003FFBFF00
001FFFFF00
001FFFFE00
000FFFFE00
000FFFFE00
000FFFFC00
0007FFFC00
0007FFF800
0003FFF800
0003FFF800
0001FFF000
0001FFF000
0000FFE000
0000FFE000
0000FFE000
0001FFC000
0001FFC000
0003FF8000
0007FF8000
200FFF0000
3E7FFF0000
7FFFFE0000
7FFFFC0000
7FFFFC0000
7FFFF80000
FFFFF00000
FFFFE00000
FFFFC00000
FFFF000000
1FF8000000
ENDCHAR
STARTCHAR 00FE
ENCODING 254
SWIDTH 495 0
DWIDTH 44 0
BBX 36 77 6 -15
BITMAP
0060000000
0FE0000000
FFE0000000
FFE0000000
FFE0000000
FFE0000000
FFE0000000
FFE0000000
FFE0000000
FFE0000000
FFE0000000
FFE0000000
FFE0000000
FFE0000000
FFE0000000
FFE0000000
FFE0000000
FFE0000000
FFE0000000
FFE3C00000
FFFFFE0000
FFFFFFC000
FFFFFFE000
FFFFFFF800
FFFFFFFC00
FFFFFFFE00
FFFFFFFF00
FFFFFFFF00
FFFFFFFF80
FFE01FFF80
FFE007FFC0
FFE003FFC0
FFE003FFE0
FFE001FFE0
FFE001FFE0
FFE000FFE0
FFE000FFE0
FFE000FFE0
FFE000FFF0
FFE000FFF0
FFE0007FF0
FFE0007FF0
FFE0007FF0
FFE000FFF0
FFE000FFF0
FFE000FFE0
FFE000FFE0
FFE000FFE0
FFE000FFE0
FFE001FFE0
FFE001FFC0
FFE003FFC0
FFF007FFC0
FFFF3FFF80
FFFFFFFF80
FFFFFFFF00
FFFFFFFF00
FFFFFFFE00
FFFFFFFC00
FFFFFFF800
FFFFFFF000
FFEFFFC000
FFE1FE0000
FFE0000000
FFE0000000
FFE0000000
FFE0000000
FFE0000000
FFE0000000
FFE0000000
FFE0000000
FFE0000000
FFE0000000
FFE0000000
FFE0000000
FFE0000000
FFE0000000
ENDCHAR
STARTCHAR 00FF
ENCODING 255
SWIDTH 495 0
DWIDTH 44 0
BBX 40 75 2 -15
BITMAP
003C001E00
00FE007F80
03FF00FFC0
03FF80FFE0
03FF81FFE0
07FFC1FFE0
07FFC1FFE0
07FFC1FFE0
03FF81FFE0
03FF80FFC0
01FF007FC0
007E003F00
0000000000
0000000000
0000000000
0000000000
0000000000
0000000000
7FF80007FF
3FF8000FFF
3FF8000FFE
3FF8000FFE
3FFC000FFE
1FFC000FFC
1FFC001FFC
1FFE001FFC
0FFE001FFC
0FFE001FF8
0FFE003FF8
07FF003FF8
07FF003FF8
07FF003FF0
07FF803FF0
03FF807FF0
03FF807FE0
01FFC07FE0
01FFC07FE0
01FFC0FFC0
00FFE0FFC0
00FFE0FFC0
00FFE1FFC0
007FF1FF80
007FF1FF80
003FF1FF80
003FFBFF00
003FFBFF00
001FFFFF00
001FFFFE00
000FFFFE00
000FFFFE00
000FFFFC00
0007FFFC00
0007FFF800
0003FFF800
0003FFF800
0001FFF000
0001FFF000
0000FFE000
0000FFE000
0000FFE000
0001FFC000
0001FFC000
0003FF8000
0007FF8000
200FFF0000
3E7FFF0000
7FFFFE0000
7FFFFC0000
7FFFFC0000
7FFFF80000
FFFFF00000
FFFFE00000
FFFFC00000
FFFF000000
1FF8000000
ENDCHAR
STARTCHAR 0100
ENCODING 256
SWIDTH 495 0
DWIDTH 44 0
BBX 43 70 1 0
BITMAP
00FFFFFFC000
00FFFFFFC000
00FFFFFFC000
00FFFFFFC000
00FFFFFFC000
00FFFFFFC000
00FFFFFFC000
00FFFFFFC000
000000000000
000000000000
000000000000
000000000000
000000000000
000000000000
000000000000
0001FFF00000
0001FFF00000
0001FFF00000
0003FFF00000
0003FFF80000
0003FFF80000
0007FFF80000
0007FFFC0000
0007FFFC0000
000FFFFC0000
000FFFFE0000
000FFFFE0000
000FFBFE0000
001FF3FF0000
001FF3FF0000
001FF3FF0000
003FF1FF0000
003FE1FF8000
003FE1FF8000
007FE0FF8000
007FC0FFC000
007FC0FFC000
007FC0FFC000
00FFC07FE000
00FFC07FE000
00FF807FE000
01FF807FE000
01FF807FF000
01FF803FF000
03FF003FF000
03FF003FF000
03FF003FF800
03FF003FF800
07FFFFFFF800
07FFFFFFFC00
07FFFFFFFC00
07FFFFFFFC00
0FFFFFFFFC00
0FFFFFFFFE00
0FFFFFFFFE00
1FFFFFFFFE00
1FFFFFFFFE00
1FFC000FFF00
1FF80007FF00
3FF80007FF00
3FF80007FF00
3FF80007FF80
3FF80007FF80
7FF00003FF80
7FF00003FF80
7FF00003FFC0
7FF00003FFC0
FFF00003FFC0
FFE00001FFC0
FFE00001FFE0
ENDCHAR
STARTCHAR 0101
ENCODING 257
SWIDTH 495 0
DWIDTH 44 0
BBX 35 59 4 -1
BITMAP
07FFFFFE00
07FFFFFE00
07FFFFFE00
07FFFFFE00
07FFFFFE00
07FFFFFE00
07FFFFFE00
07FFFFFE00
0000000000
0000000000
0000000000
0000000000
0000000000
0000000000
0000000000
001FFC0000
03FFFFC000
0FFFFFF000
0FFFFFFC00
0FFFFFFE00
0FFFFFFF00
07FFFFFF80
07FFFFFF80
07FFFFFFC0
07FC3FFFC0
040003FFC0
000001FFE0
000000FFE0
000000FFE0
000000FFE0
0000007FE0
0000007FE0
0007FC7FE0
007FFFFFE0
03FFFFFFE0
07FFFFFFE0
1FFFFFFFE0
3FFFFFFFE0
3FFFFFFFE0
7FFFFFFFE0
7FFC007FE0
FFF0007FE0
FFE0007FE0
FFE0007FE0
FFE0007FE0
FFE0007FE0
FFE0007FE0
FFE0007FE0
FFF0007FE0
FFFC007FE0
7FFFFFFFE0
7FFFFFFFE0
3FFFFFFFE0
3FFFFFFFE0
1FFFFFFFE0
0FFFFFFFE0
03FFFFFFE0
00FFFFFF80
001FFFE000
ENDCHAR
STARTCHAR 0102
ENCODING 258
SWIDTH 495 0
DWIDTH 44 0
BBX 43 73 1 0
BITMAP
00FF803FC000
00FF803FC000
00FF803FC000
007F807FC000
007FC07FC000
007FF3FF8000
003FFFFF8000
003FFFFF0000
001FFFFF0000
000FFFFE0000
0007FFFC0000
0003FFF00000
00007FC00000
000000000000
000000000000
000000000000
000000000000
000000000000
0001FFF00000
0001FFF00000
0001FFF00000
0003FFF00000
0003FFF80000
0003FFF80000
0007FFF80000
0007FFFC0000
0007FFFC0000
000FFFFC0000
000FFFFE0000
000FFFFE0000
000FFBFE0000
001FF3FF0000
001FF3FF0000
001FF3FF0000
003FF1FF0000
003FE1FF8000
003FE1FF8000
007FE0FF8000
007FC0FFC000
007FC0FFC000
007FC0FFC000
00FFC07FE000
00FFC07FE000
00FF807FE000
01FF807FE000
01FF807FF000
01FF803FF000
03FF003FF000
03FF003FF000
03FF003FF800
03FF003FF800
07FFFFFFF800
07FFFFFFFC00
07FFFFFFFC00
07FFFFFFFC00
0FFFFFFFFC00
0FFFFFFFFE00
0FFFFFFFFE00
1FFFFFFFFE00
1FFFFFFFFE00
1FFC000FFF00
1FF80007FF00
3FF80007FF00
3FF80007FF00
3FF80007FF80
3FF80007FF80
7FF00003FF80
7FF00003FF80
7FF00003FFC0
7FF00003FFC0
FFF00003FFC0
FFE00001FFC0
FFE00001FFE0
ENDCHAR
STARTCHAR 0103
ENCODING 259
SWIDTH 495 0
DWIDTH 44 0
BBX 35 62 4 -1
BITMAP
07F801FE00
07F801FE00
07FC01FE00
03FC03FE00
03FE03FE00
03FF0FFC00
03FFFFFC00
01FFFFF800
00FFFFF800
00FFFFF000
007FFFE000
001FFFC000
0007FF0000
0000200000
0000000000
0000000000
0000000000
0000000000
001FFC0000
03FFFFC000
0FFFFFF000
0FFFFFFC00
0FFFFFFE00
0FFFFFFF00
07FFFFFF80
07FFFFFF80
07FFFFFFC0
07FC3FFFC0
040003FFC0
000001FFE0
000000FFE0
000000FFE0
000000FFE0
0000007FE0
0000007FE0
0007FC7FE0
007FFFFFE0
03FFFFFFE0
07FFFFFFE0
1FFFFFFFE0
3FFFFFFFE0
3FFFFFFFE0
7FFFFFFFE0
7FFC007FE0
FFF0007FE0
FFE0007FE0
FFE0007FE0
FFE0007FE0
FFE0007FE0
FFE0007FE0
FFE0007FE0
FFF0007FE0
FFFC007FE0
7FFFFFFFE0
7FFFFFFFE0
3FFFFFFFE0
3FFFFFFFE0
1FFFFFFFE0
0FFFFFFFE0
03FFFFFFE0
00FFFFFF80
001FFFE000
ENDCHAR
STARTCHAR 0104
ENCODING 260
SWIDTH 495 0
DWIDTH 44 0
BBX 44 70 1 -15
BITMAP
0001FFF00000
0001FFF00000
0001FFF00000
0003FFF00000
0003FFF80000
0003FFF80000
0007FFF80000
0007FFFC0000
0007FFFC0000
000FFFFC0000
000FFFFE0000
000FFFFE0000
000FFBFE0000
001FF3FF0000
001FF3FF0000
001FF3FF0000
003FF1FF0000
003FE1FF8000
003FE1FF8000
007FE0FF8000
007FC0FFC000
007FC0FFC000
007FC0FFC000
00FFC07FE000
00FFC07FE000
00FF807FE000
01FF807FE000
01FF807FF000
01FF803FF000
03FF003FF000
03FF003FF000
03FF003FF800
03FF003FF800
07FFFFFFF800
07FFFFFFFC00
07FFFFFFFC00
07FFFFFFFC00
0FFFFFFFFC00
0FFFFFFFFE00
0FFFFFFFFE00
1FFFFFFFFE00
1FFFFFFFFE00
1FFC000FFF00
1FF80007FF00
3FF80007FF00
3FF80007FF00
3FF80007FF80
3FF80007FF80
7FF00003FF80
7FF00003FF80
7FF00003FFC0
7FF00003FFC0
FFF00003FFC0
FFE00001FFC0
FFE00001FFE0
000000007FC0
00000001FF80
00000003FF00
00000003FE00
00000007FC00
00000007F800
0000000FF800
0000000FF800
0000000FF800
0000000FFFE0
0000000FFFE0
0000000FFFF0
00000007FFF0
00000003FFF0
00000001FFC0
ENDCHAR
STARTCHAR 0105
ENCODING 261
SWIDTH 495 0
DWIDTH 44 0
BBX 35 58 4 -15
BITMAP
001FFC0000
03FFFFC000
0FFFFFF000
0FFFFFFC00
0FFFFFFE00
0FFFFFFF00
07FFFFFF80
07FFFFFF80
07FFFFFFC0
07FC3FFFC0
040003FFC0
000001FFE0
000000FFE0
000000FFE0
000000FFE0
0000007FE0
0000007FE0
0007FC7FE0
007FFFFFE0
03FFFFFFE0
07FFFFFFE0
1FFFFFFFE0
3FFFFFFFE0
3FFFFFFFE0
7FFFFFFFE0
7FFC007FE0
FFF0007FE0
FFE0007FE0
FFE0007FE0
FFE0007FE0
FFE0007FE0
FFE0007FE0
FFE0007FE0
FFF0007FE0
FFFC007FE0
7FFFFFFFE0
7FFFFFFFE0
3FFFFFFFE0
3FFFFFFFE0
1FFFFFFFE0
0FFFFFFFE0
03FFFFFFE0
00FFFFFFC0
001FFFFF80
000001FF00
000003FE00
000007FC00
00000FF800
00000FF000
00001FF000
00001FF000
00001FF000
00001FFFE0
00001FFFE0
00001FFFE0
00000FFFE0
000007FFE0
000003FF80
ENDCHAR
STARTCHAR 0106
ENCODING 262
SWIDTH 495 0
DWIDTH 44 0
BBX 39 75 2 -1
BITMAP
0000000800
0000001C00
0000003C00
000000FE00
000001FF00
000007FF00
00000FFF80
00003FFFC0
00007FFFC0
0000FFFF00
0001FFFC00
0000FFF000
0000FFC000
00007F0000
00003C0000
0000300000
0000000000
0000000000
00001FFF00
0000FFFFE0
0003FFFFF8
000FFFFFFE
003FFFFFFE
007FFFFFFE
00FFFFFFFE
01FFFFFFFC
03FFFFFFFC
03FFFE07FC
07FFE00078
0FFFC00018
0FFF800000
1FFF000000
1FFE000000
1FFC000000
3FFC000000
3FF8000000
3FF8000000
7FF8000000
7FF0000000
7FF0000000
7FF0000000
7FF0000000
7FF0000000
FFF0000000
FFF0000000
FFF0000000
FFF0000000
FFF0000000
FFF0000000
FFF0000000
7FF0000000
7FF0000000
7FF0000000
7FF0000000
7FF0000000
7FF8000000
7FF8000000
3FF8000000
3FFC000000
3FFC000000
1FFE000000
1FFE000000
1FFF000000
0FFFC00018
0FFFE0007C
07FFFF0FFC
03FFFFFFFC
03FFFFFFFC
01FFFFFFFE
00FFFFFFFE
007FFFFFFE
001FFFFFFE
000FFFFFF8
0001FFFFE0
00003FFE00
ENDCHAR
STARTCHAR 0107
ENCODING 263
SWIDTH 495 0
DWIDTH 44 0
BBX 37 62 4 -1
BITMAP
0000006000
000001E000
000003F000
00000FF800
00001FF800
00003FFC00
0000FFFC00
0001FFFE00
0007FFFC00
000FFFF000
0007FFC000
0007FF0000
0003FC0000
0001F00000
0001C00000
0000000000
0000000000
0000000000
00001FF800
0003FFFFC0
000FFFFFF8
003FFFFFF0
00FFFFFFF0
01FFFFFFF0
03FFFFFFF0
07FFFFFFE0
0FFFFFFFE0
1FFFFFFFE0
1FFFE000E0
3FFF000000
3FFE000000
7FFC000000
7FF8000000
7FF0000000
FFF0000000
FFF0000000
FFE0000000
FFE0000000
FFE0000000
FFE0000000
FFE0000000
FFE0000000
FFE0000000
FFE0000000
FFF0000000
FFF0000000
7FF0000000
7FF8000000
7FFC000000
3FFE000000
3FFF000000
3FFFC00030
1FFFFFFFF0
0FFFFFFFF0
0FFFFFFFF0
07FFFFFFF8
03FFFFFFF8
00FFFFFFF8
007FFFFFF8
001FFFFFF8
0003FFFFF0
00003FFE00
ENDCHAR
STARTCHAR 0108
ENCODING 264
SWIDTH 495 0
DWIDTH 44 0
BBX 39 75 2 -1
BITMAP
0000004000
000000E000
000001F000
000007F800
00000FFC00
00001FFE00
00003FFF00
00007FFF80
0000FFFFE0
0001FFFFF0
0007FFBFF8
0007FF1FF8
0003FC0FF0
0001F807E0
0000F001E0
00004000C0
0000000000
0000000000
00001FFF00
0000FFFFE0
0003FFFFF8
000FFFFFFE
003FFFFFFE
007FFFFFFE
00FFFFFFFE
01FFFFFFFC
03FFFFFFFC
03FFFE07FC
07FFE00078
0FFFC00018
0FFF800000
1FFF000000
1FFE000000
1FFC000000
3FFC000000
3FF8000000
3FF8000000
7FF8000000
7FF0000000
7FF0000000
7FF0000000
7FF0000000
7FF0000000
FFF0000000
FFF0000000
FFF0000000
FFF0000000
FFF0000000
FFF0000000
FFF0000000
7FF0000000
7FF0000000
7FF0000000
7FF0000000
7FF0000000
7FF8000000
7FF8000000
3FF8000000
3FFC000000
3FFC000000
1FFE000000
1FFE000000
1FFF000000
0FFFC00018
0FFFE0007C
07FFFF0FFC
03FFFFFFFC
03FFFFFFFC
01FFFFFFFE
00FFFFFFFE
007FFFFFFE
001FFFFFFE
000FFFFFF8
0001FFFFE0
00003FFE00
ENDCHAR
STARTCHAR 0109
ENCODING 265
SWIDTH 495 0
DWIDTH 44 0
BBX 37 62 4 -1
BITMAP
0000060000
00000F8000
00001FC000
00003FE000
00007FF000
0000FFF800
0003FFFC00
0007FFFE00
000FFFFF80
001FFFFFC0
003FF8FFE0
001FF07FC0
000FE03F80
0007801F00
0007000600
0002000000
0000000000
0000000000
00001FF800
0003FFFFC0
000FFFFFF8
003FFFFFF0
00FFFFFFF0
01FFFFFFF0
03FFFFFFF0
07FFFFFFE0
0FFFFFFFE0
1FFFFFFFE0
1FFFE000E0
3FFF000000
3FFE000000
7FFC000000
7FF8000000
7FF0000000
FFF0000000
FFF0000000
FFE0000000
FFE0000000
FFE0000000
FFE0000000
FFE0000000
FFE0000000
FFE0000000
FFE0000000
FFF0000000
FFF0000000
7FF0000000
7FF8000000
7FFC000000
3FFE000000
3FFF000000
3FFFC00030
1FFFFFFFF0
0FFFFFFFF0
0FFFFFFFF0
07FFFFFFF8
03FFFFFFF8
00FFFFFFF8
007FFFFFF8
001FFFFFF8
0003FFFFF0
00003FFE00
ENDCHAR
STARTCHAR 010A
ENCODING 266
SWIDTH 495 0
DWIDTH 44 0
BBX 39 73 2 -1
BITMAP
000003F000
00000FFC00
00000FFC00
00001FFE00
00001FFE00
00001FFE00
00001FFE00
00001FFE00
00001FFE00
00000FFC00
000007F800
000003F000
0000000000
0000000000
0000000000
0000000000
00001FFF00
0000FFFFE0
0003FFFFF8
000FFFFFFE
003FFFFFFE
007FFFFFFE
00FFFFFFFE
01FFFFFFFC
03FFFFFFFC
03FFFE07FC
07FFE00078
0FFFC00018
0FFF800000
1FFF000000
1FFE000000
1FFC000000
3FFC000000
3FF8000000
3FF8000000
7FF8000000
7FF0000000
7FF0000000
7FF0000000
7FF0000000
7FF0000000
FFF0000000
FFF0000000
FFF0000000
FFF0000000
FFF0000000
FFF0000000
FFF0000000
7FF0000000
7FF0000000
7FF0000000
7FF0000000
7FF0000000
7FF8000000
7FF8000000
3FF8000000
3FFC000000
3FFC000000
1FFE000000
1FFE000000
1FFF000000
0FFFC00018
0FFFE0007C
07FFFF0FFC
03FFFFFFFC
03FFFFFFFC
01FFFFFFFE
00FFFFFFFE
007FFFFFFE
001FFFFFFE
000FFFFFF8
0001FFFFE0
00003FFE00
ENDCHAR
STARTCHAR 010B
ENCODING 267
SWIDTH 495 0
DWIDTH 44 0
BBX 37 61 4 -1
BITMAP
00000FC000
00001FE000
00003FF000
00007FF800
00007FF800
00007FF800
00007FF800
00007FF800
00007FF800
00003FF000
00003FF000
00000FC000
0000000000
0000000000
0000000000
0000000000
0000000000
00001FF800
0003FFFFC0
000FFFFFF8
003FFFFFF0
00FFFFFFF0
01FFFFFFF0
03FFFFFFF0
07FFFFFFE0
0FFFFFFFE0
1FFFFFFFE0
1FFFE000E0
3FFF000000
3FFE000000
7FFC000000
7FF8000000
7FF0000000
FFF0000000
FFF0000000
FFE0000000
FFE0000000
FFE0000000
FFE0000000
FFE0000000
FFE0000000
FFE0000000
FFE0000000
FFF0000000
FFF0000000
7FF0000000
7FF8000000
7FFC000000
3FFE000000
3FFF000000
3FFFC00030
1FFFFFFFF0
0FFFFFFFF0
0FFFFFFFF0
07FFFFFFF8
03FFFFFFF8
00FFFFFFF8
007FFFFFF8
001FFFFFF8
0003FFFFF0
00003FFE00
ENDCHAR
STARTCHAR 010C
ENCODING 268
SWIDTH 495 0
DWIDTH 44 0
BBX 39 74 2 0
BITMAP
0000E001C0
0001F003E0
0003F807F0
0003FE1FF8
0007FF3FF8
0003FFFFF0
0001FFFFE0
0000FFFFC0
00007FFF80
00003FFF00
00000FFE00
000007F800
000003F000
000001E000
000000C000
0000000000
0000000000
00001FFF00
0000FFFFE0
0003FFFFF8
000FFFFFFE
003FFFFFFE
007FFFFFFE
00FFFFFFFE
01FFFFFFFC
03FFFFFFFC
03FFFE07FC
07FFE00078
0FFFC00018
0FFF800000
1FFF000000
1FFE000000
1FFC000000
3FFC000000
3FF8000000
3FF8000000
7FF8000000
7FF0000000
7FF0000000
7FF0000000
7FF0000000
7FF0000000
FFF0000000
FFF0000000
FFF0000000
FFF0000000
FFF0000000
FFF0000000
FFF0000000
7FF0000000
7FF0000000
7FF0000000
7FF0000000
7FF0000000
7FF8000000
7FF8000000
3FF8000000
3FFC000000
3FFC000000
1FFE000000
1FFE000000
1FFF000000
0FFFC00018
0FFFE0007C
07FFFF0FFC
03FFFFFFFC
03FFFFFFFC
01FFFFFFFE
00FFFFFFFE
007FFFFFFE
001FFFFFFE
000FFFFFF8
0001FFFFE0
00003FFE00
ENDCHAR
STARTCHAR 010D
ENCODING 269
SWIDTH 495 0
DWIDTH 44 0
BBX 37 62 4 -1
BITMAP
0003000300
0007C00F80
0007E01F80
000FF03FC0
001FF87FE0
001FFFFFE0
0007FFFFC0
0003FFFF00
0001FFFE00
0000FFFC00
00007FF800
00003FF000
00001FE000
000007C000
0000030000
0000000000
0000000000
0000000000
00001FF800
0003FFFFC0
000FFFFFF8
003FFFFFF0
00FFFFFFF0
01FFFFFFF0
03FFFFFFF0
07FFFFFFE0
0FFFFFFFE0
1FFFFFFFE0
1FFFE000E0
3FFF000000
3FFE000000
7FFC000000
7FF8000000
7FF0000000
FFF0000000
FFF0000000
FFE0000000
FFE0000000
FFE0000000
FFE0000000
FFE0000000
FFE0000000
FFE0000000
FFE0000000
FFF0000000
FFF0000000
7FF0000000
7FF8000000
7FFC000000
3FFE000000
3FFF000000
3FFFC00030
1FFFFFFFF0
0FFFFFFFF0
0FFFFFFFF0
07FFFFFFF8
03FFFFFFF8
00FFFFFFF8
007FFFFFF8
001FFFFFF8
0003FFFFF0
00003FFE00
ENDCHAR
STARTCHAR 010E
ENCODING 270
SWIDTH 495 0
DWIDTH 44 0
BBX 37 75 5 -1
BITMAP
0200000000
07000E0000
0F801F0000
1FC03F8000
1FF0FFC000
3FF9FFE000
1FFFFF8000
0FFFFF0000
07FFFE0000
03FFFC0000
00FFF80000
007FF00000
003FE00000
001F800000
000F000000
0006000000
0000000000
0000000000
003E000000
7FFFF80000
FFFFFF0000
FFFFFFC000
FFFFFFF000
FFFFFFF800
FFFFFFFC00
FFFFFFFE00
FFFFFFFF00
FFFFFFFF00
FFE03FFF80
FFE00FFFC0
FFE007FFC0
FFE003FFC0
FFE001FFE0
FFE001FFE0
FFE000FFF0
FFE000FFF0
FFE0007FF0
FFE0007FF0
FFE0007FF0
FFE0007FF8
FFE0003FF8
FFE0003FF8
FFE0003FF8
FFE0003FF8
FFE0003FF8
FFE0003FF8
FFE0003FF8
FFE0003FF8
FFE0003FF8
FFE0003FF8
FFE0003FF8
FFE0003FF8
FFE0007FF8
FFE0007FF8
FFE0007FF0
FFE0007FF0
FFE0007FF0
FFE000FFF0
FFE000FFE0
FFE001FFE0
FFE001FFE0
FFE003FFC0
FFE007FFC0
FFE01FFF80
FFE07FFF80
FFFFFFFF00
FFFFFFFE00
FFFFFFFE00
FFFFFFFC00
FFFFFFF000
FFFFFFE000
FFFFFFC000
FFFFFE0000
FFFFF80000
00FE000000
ENDCHAR
STARTCHAR 010F
ENCODING 271
SWIDTH 495 0
DWIDTH 44 0
BBX 45 63 1 -1
BITMAP
000000011FF8
0000007F1FF8
000007FF1FF8
000007FF1FF8
000007FF1FF8
000007FF1FF0
000007FF1FF0
000007FF1FF0
000007FF1FF0
000007FF1FF0
000007FF1FF0
000007FF1FF0
000007FF1FE0
000007FF1FE0
000007FF1FE0
000007FF1FE0
000007FF1FE0
000007FF1FE0
000007FF1FE0
000707FF1FE0
007FF7FF0000
01FFFFFF0000
03FFFFFF0000
07FFFFFF0000
0FFFFFFF0000
0FFFFFFF0000
1FFFFFFF0000
1FFFFFFF0000
3FFFFFFF0000
3FFC1FFF0000
7FF807FF0000
7FF807FF0000
7FF007FF0000
7FF007FF0000
7FF007FF0000
FFF007FF0000
FFE007FF0000
FFE007FF0000
FFE007FF0000
FFE007FF0000
FFE007FF0000
FFE007FF0000
FFE007FF0000
FFE007FF0000
FFE007FF0000
FFF007FF0000
FFF007FF0000
7FF007FF0000
7FF007FF0000
7FF807FF0000
7FF807FF0000
3FFC07FF0000
3FFC07FF0000
3FFFBFFF0000
1FFFFFFF0000
1FFFFFFF0000
0FFFFFFF0000
07FFFFFF0000
03FFFFFF0000
01FFFFFF0000
00FFFFFF0000
003FFFF80000
0007FF000000
ENDCHAR
STARTCHAR 0110
ENCODING 272
SWIDTH 495 0
DWIDTH 44 0
BBX 40 57 2 -1
BITMAP
0003E00000
07FFFF8000
0FFFFFF000
0FFFFFFC00
0FFFFFFE00
0FFFFFFF00
0FFFFFFF80
0FFFFFFFC0
0FFFFFFFE0
0FFFFFFFF0
0FFE03FFF0
0FFE00FFF8
0FFE007FF8
0FFE003FFC
0FFE003FFC
0FFE001FFC
0FFE001FFE
0FFE000FFE
0FFE000FFE
0FFE000FFE
0FFE000FFE
0FFE000FFF
0FFE0007FF
FFFFFC07FF
FFFFFC07FF
FFFFFC07FF
FFFFFC07FF
FFFFFC07FF
FFFFFC07FF
FFFFFC07FF
FFFFFC07FF
FFFFFC07FF
0FFE0007FF
0FFE0007FF
0FFE0007FF
0FFE000FFF
0FFE000FFE
0FFE000FFE
0FFE000FFE
0FFE001FFE
0FFE001FFE
0FFE003FFC
0FFE003FFC
0FFE007FF8
0FFE00FFF8
0FFE01FFF0
0FFE07FFF0
0FFFFFFFE0
0FFFFFFFE0
0FFFFFFFC0
0FFFFFFF80
0FFFFFFF00
0FFFFFFE00
0FFFFFF800
0FFFFFE000
07FFFF0000
000FE00000
ENDCHAR
STARTCHAR 0111
ENCODING 273
SWIDTH 495 0
DWIDTH 44 0
BBX 41 63 2 -1
BITMAP
000000001000
00000007F000
0000007FF000
0000007FF000
0000007FF000
0000007FF000
0000007FF000
0003FFFFFF80
0003FFFFFF80
0003FFFFFF80
0003FFFFFF80
0003FFFFFF80
0003FFFFFF80
0003FFFFFF80
0003FFFFFF80
0000007FF000
0000007FF000
0000007FF000
0000007FF000
0001F07FF000
001FFF7FF000
007FFFFFF000
01FFFFFFF000
03FFFFFFF000
07FFFFFFF000
0FFFFFFFF000
0FFFFFFFF000
1FFFFFFFF000
1FFFFFFFF000
3FFF01FFF000
3FFC007FF000
3FFC007FF000
7FF8007FF000
7FF8007FF000
7FF0007FF000
7FF0007FF000
7FF0007FF000
7FF0007FF000
7FF0007FF000
7FF0007FF000
FFF0007FF000
FFF0007FF000
FFF0007FF000
7FF0007FF000
7FF0007FF000
7FF0007FF000
7FF0007FF000
7FF8007FF000
7FF8007FF000
7FF8007FF000
3FFC007FF000
3FFE007FF000
3FFF007FF000
1FFFF3FFF000
1FFFFFFFF000
0FFFFFFFF000
07FFFFFFF000
03FFFFFFF000
01FFFFFFF000
00FFFFFFF000
007FFFFFF000
001FFFFF8000
0001FFE00000
ENDCHAR
STARTCHAR 0112
ENCODING 274
SWIDTH 495 0
DWIDTH 44 0
BBX 35 70 6 0
BITMAP
0FFFFFF800
0FFFFFF800
0FFFFFF800
0FFFFFF800
0FFFFFF800
0FFFFFF800
0FFFFFF800
0FFFFFF800
0000000000
0000000000
0000000000
0000000000
0000000000
0000000000
0000000000
FFFFFFFF80
FFFFFFFF80
FFFFFFFF80
FFFFFFFF80
FFFFFFFF80
FFFFFFFF80
FFFFFFFF80
FFFFFFFF80
FFFFFFFF80
FFE0000000
FFE0000000
FFE0000000
FFE0000000
FFE0000000
FFE0000000
FFE0000000
FFE0000000
FFE0000000
FFE0000000
FFE0000000
FFE0000000
FFFFFFFC00
FFFFFFFC00
FFFFFFFC00
FFFFFFFC00
FFFFFFFC00
FFFFFFFC00
FFFFFFFC00
FFFFFFFC00
FFFFFFFC00
FFE0000000
FFE0000000
FFE0000000
FFE0000000
FFE0000000
FFE0000000
FFE0000000
FFE0000000
FFE0000000
FFE0000000
FFE0000000
FFE0000000
FFE0000000
FFE0000000
FFE0000000
FFE0000000
FFFFFFFFE0
FFFFFFFFE0
FFFFFFFFE0
FFFFFFFFE0
FFFFFFFFE0
FFFFFFFFE0
FFFFFFFFE0
FFFFFFFFE0
FFFFFFFFE0
ENDCHAR
STARTCHAR 0113
ENCODING 275
SWIDTH 495 0
DWIDTH 44 0
BBX 38 59 3 -1
BITMAP
03FFFFFF00
03FFFFFF00
03FFFFFF00
03FFFFFF00
03FFFFFF00
03FFFFFF00
03FFFFFF00
03FFFFFF00
0000000000
0000000000
0000000000
0000000000
0000000000
0000000000
0000000000
0000FF0000
000FFFF000
003FFFFC00
007FFFFE00
01FFFFFF00
03FFFFFF80
07FFFFFFC0
0FFFFFFFE0
0FFFFFFFF0
1FFFC3FFF0
3FFE00FFF0
3FFC007FF8
3FF8003FF8
7FF0001FF8
7FF0001FFC
7FF0001FFC
FFE0000FFC
FFE0000FFC
FFFFFFFFFC
FFFFFFFFFC
FFFFFFFFFC
FFFFFFFFFC
FFFFFFFFFC
FFFFFFFFFC
FFFFFFFFFC
FFFFFFFFFC
FFE0000000
FFE0000000
FFF0000000
7FF0000000
7FF8000000
7FFC000000
3FFE000000
3FFF8003E0
1FFFFFFFE0
1FFFFFFFE0
0FFFFFFFE0
07FFFFFFE0
03FFFFFFE0
01FFFFFFF0
007FFFFFF0
003FFFFFF0
0007FFFF80
00007FF800
ENDCHAR
STARTCHAR 0114
ENCODING 276
SWIDTH 495 0
DWIDTH 44 0
BBX 35 73 6 0
BITMAP
1FF007F800
1FF007F800
1FF007F800
0FF00FF800
0FF80FF800
0FFE7FF000
07FFFFF000
07FFFFE000
03FFFFE000
01FFFFC000
00FFFF8000
007FFE0000
000FF80000
0000000000
0000000000
0000000000
0000000000
0000000000
FFFFFFFF80
FFFFFFFF80
FFFFFFFF80
FFFFFFFF80
FFFFFFFF80
FFFFFFFF80
FFFFFFFF80
FFFFFFFF80
FFFFFFFF80
FFE0000000
FFE0000000
FFE0000000
FFE0000000
FFE0000000
FFE0000000
FFE0000000
FFE0000000
FFE0000000
FFE0000000
FFE0000000
FFE0000000
FFFFFFFC00
FFFFFFFC00
FFFFFFFC00
FFFFFFFC00
FFFFFFFC00
FFFFFFFC00
FFFFFFFC00
FFFFFFFC00
FFFFFFFC00
FFE0000000
FFE0000000
FFE0000000
FFE0000000
FFE0000000
FFE0000000
FFE0000000
FFE0000000
FFE0000000
FFE0000000
FFE0000000
FFE0000000
FFE0000000
FFE0000000
FFE0000000
FFE0000000
FFFFFFFFE0
FFFFFFFFE0
FFFFFFFFE0
FFFFFFFFE0
FFFFFFFFE0
FFFFFFFFE0
FFFFFFFFE0
FFFFFFFFE0
FFFFFFFFE0
ENDCHAR
STARTCHAR 0115
ENCODING 277
SWIDTH 495 0
DWIDTH 44 0
BBX 38 62 3 -1
BITMAP
03FC00FF00
03FC00FF00
03FE00FF00
01FE01FF00
01FF01FF00
01FF87FE00
01FFFFFE00
00FFFFFC00
007FFFFC00
007FFFF800
003FFFF000
000FFFE000
0003FF8000
0000100000
0000000000
0000000000
0000000000
0000000000
0000FF0000
000FFFF000
003FFFFC00
007FFFFE00
01FFFFFF00
03FFFFFF80
07FFFFFFC0
0FFFFFFFE0
0FFFFFFFF0
1FFFC3FFF0
3FFE00FFF0
3FFC007FF8
3FF8003FF8
7FF0001FF8
7FF0001FFC
7FF0001FFC
FFE0000FFC
FFE0000FFC
FFFFFFFFFC
FFFFFFFFFC
FFFFFFFFFC
FFFFFFFFFC
FFFFFFFFFC
FFFFFFFFFC
FFFFFFFFFC
FFFFFFFFFC
FFE0000000
FFE0000000
FFF0000000
7FF0000000
7FF8000000
7FFC000000
3FFE000000
3FFF8003E0
1FFFFFFFE0
1FFFFFFFE0
0FFFFFFFE0
07FFFFFFE0
03FFFFFFE0
01FFFFFFF0
007FFFFFF0
003FFFFFF0
0007FFFF80
00007FF800
ENDCHAR
STARTCHAR 0116
ENCODING 278
SWIDTH 495 0
DWIDTH 44 0
BBX 35 72 6 0
BITMAP
0007F00000
000FF80000
001FFC0000
003FFC0000
003FFC0000
003FFE0000
003FFE0000
003FFC0000
003FFC0000
001FF80000
000FF00000
0003E00000
0000000000
0000000000
0000000000
0000000000
0000000000
FFFFFFFF80
FFFFFFFF80
FFFFFFFF80
FFFFFFFF80
FFFFFFFF80
FFFFFFFF80
FFFFFFFF80
FFFFFFFF80
FFFFFFFF80
FFE0000000
FFE0000000
FFE0000000
FFE0000000
FFE0000000
FFE0000000
FFE0000000
FFE0000000
FFE0000000
FFE0000000
FFE0000000
FFE0000000
FFFFFFFC00
FFFFFFFC00
FFFFFFFC00
FFFFFFFC00
FFFFFFFC00
FFFFFFFC00
FFFFFFFC00
FFFFFFFC00
FFFFFFFC00
FFE0000000
FFE0000000
FFE0000000
FFE0000000
FFE0000000
FFE0000000
FFE0000000
FFE0000000
FFE0000000
FFE0000000
FFE0000000
FFE0000000
FFE0000000
FFE0000000
FFE0000000
FFE0000000
FFFFFFFFE0
FFFFFFFFE0
FFFFFFFFE0
FFFFFFFFE0
FFFFFFFFE0
FFFFFFFFE0
FFFFFFFFE0
FFFFFFFFE0
FFFFFFFFE0
ENDCHAR
STARTCHAR 0117
ENCODING 279
SWIDTH 495 0
DWIDTH 44 0
BBX 38 61 3 -1
BITMAP
00007C0000
0001FE0000
0003FF0000
0007FF8000
0007FF8000
0007FF8000
0007FFC000
0007FF8000
0007FF8000
0003FF8000
0001FF0000
0000FE0000
0000000000
0000000000
0000000000
0000000000
0000000000
0000FF0000
000FFFF000
003FFFFC00
007FFFFE00
01FFFFFF00
03FFFFFF80
07FFFFFFC0
0FFFFFFFE0
0FFFFFFFF0
1FFFC3FFF0
3FFE00FFF0
3FFC007FF8
3FF8003FF8
7FF0001FF8
7FF0001FFC
7FF0001FFC
FFE0000FFC
FFE0000FFC
FFFFFFFFFC
FFFFFFFFFC
FFFFFFFFFC
FFFFFFFFFC
FFFFFFFFFC
FFFFFFFFFC
FFFFFFFFFC
FFFFFFFFFC
FFE0000000
FFE0000000
FFF0000000
7FF0000000
7FF8000000
7FFC000000
3FFE000000
3FFF8003E0
1FFFFFFFE0
1FFFFFFFE0
0FFFFFFFE0
07FFFFFFE0
03FFFFFFE0
01FFFFFFF0
007FFFFFF0
003FFFFFF0
0007FFFF80
00007FF800
ENDCHAR
STARTCHAR 0118
ENCODING 280
SWIDTH 495 0
DWIDTH 44 0
BBX 36 70 6 -15
BITMAP
FFFFFFFF80
FFFFFFFF80
FFFFFFFF80
FFFFFFFF80
FFFFFFFF80
FFFFFFFF80
FFFFFFFF80
FFFFFFFF80
FFFFFFFF80
FFE0000000
FFE0000000
FFE0000000
FFE0000000
FFE0000000
FFE0000000
FFE0000000
FFE0000000
FFE0000000
FFE0000000
FFE0000000
FFE0000000
FFFFFFFC00
FFFFFFFC00
FFFFFFFC00
FFFFFFFC00
FFFFFFFC00
FFFFFFFC00
FFFFFFFC00
FFFFFFFC00
FFFFFFFC00
FFE0000000
FFE0000000
FFE0000000
FFE0000000
FFE0000000
FFE0000000
FFE0000000
FFE0000000
FFE0000000
FFE0000000
FFE0000000
FFE0000000
FFE0000000
FFE0000000
FFE0000000
FFE0000000
FFFFFFFFE0
FFFFFFFFE0
FFFFFFFFE0
FFFFFFFFE0
FFFFFFFFE0
FFFFFFFFE0
FFFFFFFFE0
FFFFFFFFE0
FFFFFFFFE0
0000007FC0
000000FF80
000001FF00
000003FE00
000007FC00
000007FC00
00000FF800
00000FF800
00000FF800
00000FFFF0
00000FFFF0
00000FFFF0
000007FFF0
000003FFF0
000001FFC0
ENDCHAR
STARTCHAR 0119
ENCODING 281
SWIDTH 495 0
DWIDTH 44 0
BBX 38 58 3 -15
BITMAP
0000FF0000
000FFFF000
003FFFFC00
007FFFFE00
01FFFFFF00
03FFFFFF80
07FFFFFFC0
0FFFFFFFE0
0FFFFFFFF0
1FFFC3FFF0
3FFE00FFF0
3FFC007FF8
3FF8003FF8
7FF0001FF8
7FF0001FFC
7FF0001FFC
FFE0000FFC
FFE0000FFC
FFFFFFFFFC
FFFFFFFFFC
FFFFFFFFFC
FFFFFFFFFC
FFFFFFFFFC
FFFFFFFFFC
FFFFFFFFFC
FFFFFFFFFC
FFE0000000
FFE0000000
FFF0000000
7FF0000000
7FF8000000
7FFC000000
3FFE000000
3FFF8003E0
1FFFFFFFE0
1FFFFFFFE0
0FFFFFFFE0
07FFFFFFE0
03FFFFFFE0
01FFFFFFF0
007FFFFFF0
003FFFFFF0
0007FFFFC0
00007FFF80
000001FF00
000003FE00
000007FC00
00000FF800
00000FF800
00001FF000
00001FF000
00001FF000
00001FFFE0
00001FFFE0
00001FFFE0
00000FFFE0
000007FFE0
000003FF80
ENDCHAR
STARTCHAR 011A
ENCODING 282
SWIDTH 495 0
DWIDTH 44 0
BBX 35 74 6 0
BITMAP
0080000000
01C0038000
03E007C000
03F80FE000
07FC1FF000
0FFE7FF800
07FFFFF000
03FFFFC000
01FFFF8000
007FFF0000
003FFE0000
001FFC0000
000FF80000
0007E00000
0003C00000
0001800000
0000000000
0000000000
0000000000
FFFFFFFF80
FFFFFFFF80
FFFFFFFF80
FFFFFFFF80
FFFFFFFF80
FFFFFFFF80
FFFFFFFF80
FFFFFFFF80
FFFFFFFF80
FFE0000000
FFE0000000
FFE0000000
FFE0000000
FFE0000000
FFE0000000
FFE0000000
FFE0000000
FFE0000000
FFE0000000
FFE0000000
FFE0000000
FFFFFFFC00
FFFFFFFC00
FFFFFFFC00
FFFFFFFC00
FFFFFFFC00
FFFFFFFC00
FFFFFFFC00
FFFFFFFC00
FFFFFFFC00
FFE0000000
FFE0000000
FFE0000000
FFE0000000
FFE0000000
FFE0000000
FFE0000000
FFE0000000
FFE0000000
FFE0000000
FFE0000000
FFE0000000
FFE0000000
FFE0000000
FFE0000000
FFE0000000
FFFFFFFFE0
FFFFFFFFE0
FFFFFFFFE0
FFFFFFFFE0
FFFFFFFFE0
FFFFFFFFE0
FFFFFFFFE0
FFFFFFFFE0
FFFFFFFFE0
ENDCHAR
STARTCHAR 011B
ENCODING 283
SWIDTH 495 0
DWIDTH 44 0
BBX 38 62 3 -1
BITMAP
0018003000
003C007800
007E01FC00
00FF03FE00
01FFC7FE00
00FFFFFE00
007FFFFC00
003FFFF800
001FFFE000
000FFFC000
0007FF8000
0003FF0000
0000FE0000
00007C0000
0000380000
0000000000
0000000000
0000000000
0000FF0000
000FFFF000
003FFFFC00
007FFFFE00
01FFFFFF00
03FFFFFF80
07FFFFFFC0
0FFFFFFFE0
0FFFFFFFF0
1FFFC3FFF0
3FFE00FFF0
3FFC007FF8
3FF8003FF8
7FF0001FF8
7FF0001FFC
7FF0001FFC
FFE0000FFC
FFE0000FFC
FFFFFFFFFC
FFFFFFFFFC
FFFFFFFFFC
FFFFFFFFFC
FFFFFFFFFC
FFFFFFFFFC
FFFFFFFFFC
FFFFFFFFFC
FFE0000000
FFE0000000
FFF0000000
7FF0000000
7FF8000000
7FFC000000
3FFE000000
3FFF8003E0
1FFFFFFFE0
1FFFFFFFE0
0FFFFFFFE0
07FFFFFFE0
03FFFFFFE0
01FFFFFFF0
007FFFFFF0
003FFFFFF0
0007FFFF80
00007FF800
ENDCHAR
STARTCHAR 011C
ENCODING 284
SWIDTH 495 0
DWIDTH 44 0
BBX 39 75 2 -1
BITMAP
0000008000
000001C000
000003E000
000007F000
00001FF800
00003FFC00
00007FFF00
0000FFFF80
0001FFFFC0
0003FFFFE0
0007FF7FF0
000FFE3FF0
0007F81FE0
0003F007E0
0001E003C0
0000C00180
0000000000
0000000000
00003FFE00
0001FFFFE0
0007FFFFF8
001FFFFFFE
003FFFFFFE
007FFFFFFE
00FFFFFFFC
01FFFFFFFC
03FFFFFFFC
07FFFE07F8
07FFF000F8
0FFFC00018
0FFF800000
1FFF000000
1FFE000000
3FFC000000
3FFC000000
3FF8000000
3FF8000000
7FF8000000
7FF0000000
7FF0000000
7FF0000000
7FF0000000
7FF0000000
FFF0000000
FFF0000000
FFF0000FFE
FFF0000FFE
FFF0000FFE
FFF0000FFE
FFF0000FFE
7FF0000FFE
7FF0000FFE
7FF0000FFE
7FF0000FFE
7FF0000FFE
7FF0000FFE
7FF8000FFE
3FF8000FFE
3FF8000FFE
3FFC000FFE
3FFC000FFE
1FFE000FFE
1FFF000FFE
0FFF800FFE
0FFFE00FFE
07FFFC3FFE
07FFFFFFFE
03FFFFFFFE
01FFFFFFFE
00FFFFFFFE
007FFFFFFE
003FFFFFFE
000FFFFFFE
0003FFFFF0
00007FFF00
ENDCHAR
STARTCHAR 011D
ENCODING 285
SWIDTH 495 0
DWIDTH 44 0
BBX 36 76 3 -15
BITMAP
0000300000
00007C0000
0000FE0000
0001FF0000
0003FF8000
0007FFC000
001FFFE000
003FFFF000
007FFFFC00
00FFFFFE00
01FFC7FF00
00FF83FE00
007F01FC00
003C00F800
0038003000
0010000000
0000000000
0000000000
00001F8000
0007FFFF00
003FFFFFF0
00FFFFFFF0
01FFFFFFF0
03FFFFFFF0
07FFFFFFF0
0FFFFFFFF0
1FFFFFFFF0
3FFFC0FFF0
3FFE007FF0
7FFC007FF0
7FF8007FF0
7FF0007FF0
7FF0007FF0
FFF0007FF0
FFE0007FF0
FFE0007FF0
FFE0007FF0
FFE0007FF0
FFE0007FF0
FFE0007FF0
FFE0007FF0
FFE0007FF0
FFE0007FF0
FFF0007FF0
FFF0007FF0
7FF0007FF0
7FF8007FF0
7FFC007FF0
3FFE01FFF0
3FFFFFFFF0
3FFFFFFFF0
1FFFFFFFF0
0FFFFFFFF0
0FFFFFFFF0
07FFFFFFF0
01FFFFFFF0
00FFFFFFF0
001FFC7FF0
0000007FF0
0000007FF0
0000007FF0
000000FFE0
000000FFE0
000001FFE0
100001FFE0
3E0007FFC0
3FF03FFFC0
3FFFFFFFC0
3FFFFFFF80
3FFFFFFF00
7FFFFFFF00
7FFFFFFC00
7FFFFFF800
7FFFFFF000
07FFFF8000
007FF80000
ENDCHAR
STARTCHAR 011E
ENCODING 286
SWIDTH 495 0
DWIDTH 44 0
BBX 39 74 2 -1
BITMAP
001FF007F8
001FF007F8
001FF007F8
000FF00FF8
000FF80FF8
000FFE7FF0
0007FFFFF0
0007FFFFE0
0003FFFFE0
0001FFFFC0
0000FFFF80
00007FFE00
00000FF800
0000000000
0000000000
0000000000
0000000000
00003FFE00
0001FFFFE0
0007FFFFF8
001FFFFFFE
003FFFFFFE
007FFFFFFE
00FFFFFFFC
01FFFFFFFC
03FFFFFFFC
07FFFE07F8
07FFF000F8
0FFFC00018
0FFF800000
1FFF000000
1FFE000000
3FFC000000
3FFC000000
3FF8000000
3FF8000000
7FF8000000
7FF0000000
7FF0000000
7FF0000000
7FF0000000
7FF0000000
FFF0000000
FFF0000000
FFF0000FFE
FFF0000FFE
FFF0000FFE
FFF0000FFE
FFF0000FFE
7FF0000FFE
7FF0000FFE
7FF0000FFE
7FF0000FFE
7FF0000FFE
7FF0000FFE
7FF8000FFE
3FF8000FFE
3FF8000FFE
3FFC000FFE
3FFC000FFE
1FFE000FFE
1FFF000FFE
0FFF800FFE
0FFFE00FFE
07FFFC3FFE
07FFFFFFFE
03FFFFFFFE
01FFFFFFFE
00FFFFFFFE
007FFFFFFE
003FFFFFFE
000FFFFFFE
0003FFFFF0
00007FFF00
ENDCHAR
STARTCHAR 011F
ENCODING 287
SWIDTH 495 0
DWIDTH 44 0
BBX 36 76 3 -15
BITMAP
03FC00FF00
03FC00FF00
03FE00FF00
01FE01FF00
01FF01FF00
01FF87FE00
01FFFFFE00
00FFFFFC00
007FFFFC00
007FFFF800
003FFFF000
000FFFE000
0003FF8000
0000100000
0000000000
0000000000
0000000000
0000000000
00001F8000
0007FFFF00
003FFFFFF0
00FFFFFFF0
01FFFFFFF0
03FFFFFFF0
07FFFFFFF0
0FFFFFFFF0
1FFFFFFFF0
3FFFC0FFF0
3FFE007FF0
7FFC007FF0
7FF8007FF0
7FF0007FF0
7FF0007FF0
FFF0007FF0
FFE0007FF0
FFE0007FF0
FFE0007FF0
FFE0007FF0
FFE0007FF0
FFE0007FF0
FFE0007FF0
FFE0007FF0
FFE0007FF0
FFF0007FF0
FFF0007FF0
7FF0007FF0
7FF8007FF0
7FFC007FF0
3FFE01FFF0
3FFFFFFFF0
3FFFFFFFF0
1FFFFFFFF0
0FFFFFFFF0
0FFFFFFFF0
07FFFFFFF0
01FFFFFFF0
00FFFFFFF0
001FFC7FF0
0000007FF0
0000007FF0
0000007FF0
000000FFE0
000000FFE0
000001FFE0
100001FFE0
3E0007FFC0
3FF03FFFC0
3FFFFFFFC0
3FFFFFFF80
3FFFFFFF00
7FFFFFFF00
7FFFFFFC00
7FFFFFF800
7FFFFFF000
07FFFF8000
007FF80000
ENDCHAR
STARTCHAR 0120
ENCODING 288
SWIDTH 495 0
DWIDTH 44 0
BBX 39 73 2 -1
BITMAP
000007F000
00000FF800
00001FFC00
00003FFC00
00003FFC00
00003FFE00
00003FFE00
00003FFC00
00003FFC00
00001FF800
00000FF000
000003E000
0000000000
0000000000
0000000000
0000000000
00003FFE00
0001FFFFE0
0007FFFFF8
001FFFFFFE
003FFFFFFE
007FFFFFFE
00FFFFFFFC
01FFFFFFFC
03FFFFFFFC
07FFFE07F8
07FFF000F8
0FFFC00018
0FFF800000
1FFF000000
1FFE000000
3FFC000000
3FFC000000
3FF8000000
3FF8000000
7FF8000000
7FF0000000
7FF0000000
7FF0000000
7FF0000000
7FF0000000
FFF0000000
FFF0000000
FFF0000FFE
FFF0000FFE
FFF0000FFE
FFF0000FFE
FFF0000FFE
7FF0000FFE
7FF0000FFE
7FF0000FFE
7FF0000FFE
7FF0000FFE
7FF0000FFE
7FF8000FFE
3FF8000FFE
3FF8000FFE
3FFC000FFE
3FFC000FFE
1FFE000FFE
1FFF000FFE
0FFF800FFE
0FFFE00FFE
07FFFC3FFE
07FFFFFFFE
03FFFFFFFE
01FFFFFFFE
00FFFFFFFE
007FFFFFFE
003FFFFFFE
000FFFFFFE
0003FFFFF0
00007FFF00
ENDCHAR
STARTCHAR 0121
ENCODING 289
SWIDTH 495 0
DWIDTH 44 0
BBX 36 75 3 -15
BITMAP
00007C0000
0001FE0000
0003FF0000
0007FF8000
0007FF8000
0007FF8000
0007FFC000
0007FF8000
0007FF8000
0003FF8000
0001FF0000
0000FE0000
0000000000
0000000000
0000000000
0000000000
0000000000
00001F8000
0007FFFF00
003FFFFFF0
00FFFFFFF0
01FFFFFFF0
03FFFFFFF0
07FFFFFFF0
0FFFFFFFF0
1FFFFFFFF0
3FFFC0FFF0
3FFE007FF0
7FFC007FF0
7FF8007FF0
7FF0007FF0
7FF0007FF0
FFF0007FF0
FFE0007FF0
FFE0007FF0
FFE0007FF0
FFE0007FF0
FFE0007FF0
FFE0007FF0
FFE0007FF0
FFE0007FF0
FFE0007FF0
FFF0007FF0
FFF0007FF0
7FF0007FF0
7FF8007FF0
7FFC007FF0
3FFE01FFF0
3FFFFFFFF0
3FFFFFFFF0
1FFFFFFFF0
0FFFFFFFF0
0FFFFFFFF0
07FFFFFFF0
01FFFFFFF0
00FFFFFFF0
001FFC7FF0
0000007FF0
0000007FF0
0000007FF0
000000FFE0
000000FFE0
000001FFE0
100001FFE0
3E0007FFC0
3FF03FFFC0
3FFFFFFFC0
3FFFFFFF80
3FFFFFFF00
7FFFFFFF00
7FFFFFFC00
7FFFFFF800
7FFFFFF000
07FFFF8000
007FF80000
ENDCHAR
STARTCHAR 0122
ENCODING 290
SWIDTH 495 0
DWIDTH 44 0
BBX 39 71 2 -15
BITMAP
00003FFE00
0001FFFFE0
0007FFFFF8
001FFFFFFE
003FFFFFFE
007FFFFFFE
00FFFFFFFC
01FFFFFFFC
03FFFFFFFC
07FFFE07F8
07FFF000F8
0FFFC00018
0FFF800000
1FFF000000
1FFE000000
3FFC000000
3FFC000000
3FF8000000
3FF8000000
7FF8000000
7FF0000000
7FF0000000
7FF0000000
7FF0000000
7FF0000000
FFF0000000
FFF0000000
FFF0000FFE
FFF0000FFE
FFF0000FFE
FFF0000FFE
FFF0000FFE
7FF0000FFE
7FF0000FFE
7FF0000FFE
7FF0000FFE
7FF0000FFE
7FF0000FFE
7FF8000FFE
3FF8000FFE
3FF8000FFE
3FFC000FFE
3FFC000FFE
1FFE000FFE
1FFF000FFE
0FFF800FFE
0FFFE00FFE
07FFFC3FFE
07FFFFFFFE
03FFFFFFFE
01FFFFFFFE
00FFFFFFFE
007FFFFFFE
003FFFFFFE
000FFFFFFE
0003FFFFF0
00007FFF00
0000000000
0000000000
0000000000
00001FF000
00001FF000
00001FF000
00003FF000
00007FF000
0007FFF000
0007FFE000
0007FFE000
0007FFC000
0007FF8000
0007FC0000
ENDCHAR
STARTCHAR 0123
ENCODING 291
SWIDTH 495 0
DWIDTH 44 0
BBX 36 78 3 -15
BITMAP
000000C000
000003E000
00000FF000
00001FF000
00003FF800
00007FFC00
00007FF000
0000FFE000
0000FFC000
0001FFC000
0001FF8000
0001FF8000
0001FF8000
0001FF8000
0001FF8000
0000000000
0000000000
0000000000
0000000000
0000000000
00001F8000
0007FFFF00
003FFFFFF0
00FFFFFFF0
01FFFFFFF0
03FFFFFFF0
07FFFFFFF0
0FFFFFFFF0
1FFFFFFFF0
3FFFC0FFF0
3FFE007FF0
7FFC007FF0
7FF8007FF0
7FF0007FF0
7FF0007FF0
FFF0007FF0
FFE0007FF0
FFE0007FF0
FFE0007FF0
FFE0007FF0
FFE0007FF0
FFE0007FF0
FFE0007FF0
FFE0007FF0
FFE0007FF0
FFF0007FF0
FFF0007FF0
7FF0007FF0
7FF8007FF0
7FFC007FF0
3FFE01FFF0
3FFFFFFFF0
3FFFFFFFF0
1FFFFFFFF0
0FFFFFFFF0
0FFFFFFFF0
07FFFFFFF0
01FFFFFFF0
00FFFFFFF0
001FFC7FF0
0000007FF0
0000007FF0
0000007FF0
000000FFE0
000000FFE0
000001FFE0
100001FFE0
3E0007FFC0
3FF03FFFC0
3FFFFFFFC0
3FFFFFFF80
3FFFFFFF00
7FFFFFFF00
7FFFFFFC00
7FFFFFF800
7FFFFFF000
07FFFF8000
007FF80000
ENDCHAR
STARTCHAR 0124
ENCODING 292
SWIDTH 495 0
DWIDTH 44 0
BBX 36 74 4 0
BITMAP
0000200000
0000700000
0000F80000
0001FC0000
0007FE0000
000FFF0000
001FFFC000
003FFFE000
007FFFF000
00FFFFF800
01FFDFFC00
03FF8FFC00
01FE07F800
00FC01F800
007800F000
0030006000
0000000000
0000000000
0000000000
FFE0003FF0
FFE0003FF0
FFE0003FF0
FFE0003FF0
FFE0003FF0
FFE0003FF0
FFE0003FF0
FFE0003FF0
FFE0003FF0
FFE0003FF0
FFE0003FF0
FFE0003FF0
FFE0003FF0
FFE0003FF0
FFE0003FF0
FFE0003FF0
FFE0003FF0
FFE0003FF0
FFE0003FF0
FFE0003FF0
FFE0003FF0
FFE0003FF0
FFFFFFFFF0
FFFFFFFFF0
FFFFFFFFF0
FFFFFFFFF0
FFFFFFFFF0
FFFFFFFFF0
FFFFFFFFF0
FFFFFFFFF0
FFFFFFFFF0
FFE0003FF0
FFE0003FF0
FFE0003FF0
FFE0003FF0
FFE0003FF0
FFE0003FF0
FFE0003FF0
FFE0003FF0
FFE0003FF0
FFE0003FF0
FFE0003FF0
FFE0003FF0
FFE0003FF0
FFE0003FF0
FFE0003FF0
FFE0003FF0
FFE0003FF0
FFE0003FF0
FFE0003FF0
FFE0003FF0
FFE0003FF0
FFE0003FF0
FFE0003FF0
FFE0003FF0
ENDCHAR
STARTCHAR 0125
ENCODING 293
SWIDTH 495 0
DWIDTH 44 0
BBX 34 74 5 0
BITMAP
0010000000
0038000000
007E000000
01FF000000
03FF800000
0FFFE00000
1FFFF00000
3FFFF80000
FFFFFE0000
FFEFFE0000
7F83FC0000
3E00F80000
3C00380000
1000100000
0000000000
0000000000
00F0000000
3FF0000000
7FF0000000
7FF0000000
7FF0000000
7FF0000000
7FF0000000
7FF0000000
7FF0000000
7FF0000000
7FF0000000
7FF0000000
7FF0000000
7FF0000000
7FF0000000
7FF0700000
7FFFFF8000
7FFFFFE000
7FFFFFF800
7FFFFFFC00
7FFFFFFE00
7FFFFFFE00
7FFFFFFF00
7FFFFFFF00
7FFFFFFF80
7FF80FFF80
7FF007FF80
7FF003FFC0
7FF003FFC0
7FF001FFC0
7FF001FFC0
7FF001FFC0
7FF001FFC0
7FF001FFC0
7FF001FFC0
7FF001FFC0
7FF001FFC0
7FF001FFC0
7FF001FFC0
7FF001FFC0
7FF001FFC0
7FF001FFC0
7FF001FFC0
7FF001FFC0
7FF001FFC0
7FF001FFC0
7FF001FFC0
7FF001FFC0
7FF001FFC0
7FF001FFC0
7FF001FFC0
7FF001FFC0
7FF001FFC0
7FF001FFC0
7FF001FFC0
7FF001FFC0
7FF001FFC0
7FF001FFC0
ENDCHAR
STARTCHAR 0126
ENCODING 294
SWIDTH 495 0
DWIDTH 44 0
BBX 41 55 2 0
BITMAP
0FFE003FF800
0FFE003FF800
0FFE003FF800
0FFE003FF800
0FFE003FF800
0FFE003FF800
FFFFFFFFFF80
FFFFFFFFFF80
FFFFFFFFFF80
FFFFFFFFFF80
FFFFFFFFFF80
FFFFFFFFFF80
FFFFFFFFFF80
FFFFFFFFFF80
FFFFFFFFFF80
0FFE003FF800
0FFE003FF800
0FFE003FF800
0FFE003FF800
0FFE003FF800
0FFE003FF800
0FFE003FF800
0FFE003FF800
0FFFFFFFF800
0FFFFFFFF800
0FFFFFFFF800
0FFFFFFFF800
0FFFFFFFF800
0FFFFFFFF800
0FFFFFFFF800
0FFFFFFFF800
0FFFFFFFF800
0FFE003FF800
0FFE003FF800
0FFE003FF800
0FFE003FF800
0FFE003FF800
0FFE003FF800
0FFE003FF800
0FFE003FF800
0FFE003FF800
0FFE003FF800
0FFE003FF800
0FFE003FF800
0FFE003FF800
0FFE003FF800
0FFE003FF800
0FFE003FF800
0FFE003FF800
0FFE003FF800
0FFE003FF800
0FFE003FF800
0FFE003FF800
0FFE003FF800
0FFE003FF800
ENDCHAR
STARTCHAR 0127
ENCODING 295
SWIDTH 495 0
DWIDTH 44 0
BBX 37 62 2 0
BITMAP
0001000000
007F000000
07FF000000
07FF000000
07FF000000
07FF000000
07FF000000
FFFFFFE000
FFFFFFE000
FFFFFFE000
FFFFFFE000
FFFFFFE000
FFFFFFE000
FFFFFFE000
FFFFFFE000
07FF000000
07FF000000
07FF000000
07FF000000
07FF070000
07FFFFF800
07FFFFFE00
07FFFFFF00
07FFFFFF80
07FFFFFFC0
07FFFFFFC0
07FFFFFFE0
07FFFFFFE0
07FFFFFFF0
07FF81FFF0
07FF007FF0
07FF007FF8
07FF007FF8
07FF003FF8
07FF003FF8
07FF003FF8
07FF003FF8
07FF003FF8
07FF003FF8
07FF003FF8
07FF003FF8
07FF003FF8
07FF003FF8
07FF003FF8
07FF003FF8
07FF003FF8
07FF003FF8
07FF003FF8
07FF003FF8
07FF003FF8
07FF003FF8
07FF003FF8
07FF003FF8
07FF003FF8
07FF003FF8
07FF003FF8
07FF003FF8
07FF003FF8
07FF003FF8
07FF003FF8
07FF003FF8
07FF003FF8
ENDCHAR
STARTCHAR 0128
ENCODING 296
SWIDTH 495 0
DWIDTH 44 0
BBX 35 72 5 0
BITMAP
0018002000
007F807800
01FFE0FC00
03FFFFFF00
07FFFFFE00
0FFFFFFE00
0FFFFFFC00
1FFFFFF800
1FFFFFF800
0FC0FFE000
03803FC000
0100000000
0000000000
0000000000
0000000000
0000000000
0000000000
FFFFFFFFE0
FFFFFFFFE0
FFFFFFFFE0
FFFFFFFFE0
FFFFFFFFE0
FFFFFFFFE0
FFFFFFFFE0
FFFFFFFFE0
FFFFFFFFE0
000FFE0000
000FFE0000
000FFE0000
000FFE0000
000FFE0000
000FFE0000
000FFE0000
000FFE0000
000FFE0000
000FFE0000
000FFE0000
000FFE0000
000FFE0000
000FFE0000
000FFE0000
000FFE0000
000FFE0000
000FFE0000
000FFE0000
000FFE0000
000FFE0000
000FFE0000
000FFE0000
000FFE0000
000FFE0000
000FFE0000
000FFE0000
000FFE0000
000FFE0000
000FFE0000
000FFE0000
000FFE0000
000FFE0000
000FFE0000
000FFE0000
000FFE0000
000FFE0000
FFFFFFFFE0
FFFFFFFFE0
FFFFFFFFE0
FFFFFFFFE0
FFFFFFFFE0
FFFFFFFFE0
FFFFFFFFE0
FFFFFFFFE0
FFFFFFFFE0
ENDCHAR
STARTCHAR 0129
ENCODING 297
SWIDTH 495 0
DWIDTH 44 0
BBX 38 60 3 0
BITMAP
003F003800
00FFE07C00
01FFFDFF00
03FFFFFF00
07FFFFFE00
0FFFFFFE00
0FFFFFFC00
1FFFFFF800
0FE1FFF000
03C03FE000
0180078000
0000000000
0000000000
0000000000
0000000000
0000000000
0000000000
FFFFFE0000
FFFFFE0000
FFFFFE0000
FFFFFE0000
FFFFFE0000
FFFFFE0000
FFFFFE0000
FFFFFE0000
FFFFFE0000
000FFE0000
000FFE0000
000FFE0000
000FFE0000
000FFE0000
000FFE0000
000FFE0000
000FFE0000
000FFE0000
000FFE0000
000FFE0000
000FFE0000
000FFE0000
000FFE0000
000FFE0000
000FFE0000
000FFE0000
000FFE0000
000FFE0000
000FFE0000
000FFE0000
000FFE0000
000FFF0000
000FFF8038
0007FFFFF8
0007FFFFFC
0007FFFFFC
0003FFFFFC
0003FFFFFC
0001FFFFFC
0000FFFFFC
00007FFFFC
00001FFFF0
000003FF00
ENDCHAR
STARTCHAR 012A
ENCODING 298
SWIDTH 495 0
DWIDTH 44 0
BBX 35 70 5 0
BITMAP
0FFFFFFC00
0FFFFFFC00
0FFFFFFC00
0FFFFFFC00
0FFFFFFC00
0FFFFFFC00
0FFFFFFC00
0FFFFFFC00
0000000000
0000000000
0000000000
0000000000
0000000000
0000000000
0000000000
FFFFFFFFE0
FFFFFFFFE0
FFFFFFFFE0
FFFFFFFFE0
FFFFFFFFE0
FFFFFFFFE0
FFFFFFFFE0
FFFFFFFFE0
FFFFFFFFE0
000FFE0000
000FFE0000
000FFE0000
000FFE0000
000FFE0000
000FFE0000
000FFE0000
000FFE0000
000FFE0000
000FFE0000
000FFE0000
000FFE0000
000FFE0000
000FFE0000
000FFE0000
000FFE0000
000FFE0000
000FFE0000
000FFE0000
000FFE0000
000FFE0000
000FFE0000
000FFE0000
000FFE0000
000FFE0000
000FFE0000
000FFE0000
000FFE0000
000FFE0000
000FFE0000
000FFE0000
000FFE0000
000FFE0000
000FFE0000
000FFE0000
000FFE0000
000FFE0000
FFFFFFFFE0
FFFFFFFFE0
FFFFFFFFE0
FFFFFFFFE0
FFFFFFFFE0
FFFFFFFFE0
FFFFFFFFE0
FFFFFFFFE0
FFFFFFFFE0
ENDCHAR
STARTCHAR 012B
ENCODING 299
SWIDTH 495 0
DWIDTH 44 0
BBX 38 59 3 -1
BITMAP
07FFFFFE00
07FFFFFE00
07FFFFFE00
07FFFFFE00
07FFFFFE00
07FFFFFE00
07FFFFFE00
07FFFFFE00
0000000000
0000000000
0000000000
0000000000
0000000000
0000000000
0000000000
0000000000
FFFFFE0000
FFFFFE0000
FFFFFE0000
FFFFFE0000
FFFFFE0000
FFFFFE0000
FFFFFE0000
FFFFFE0000
FFFFFE0000
000FFE0000
000FFE0000
000FFE0000
000FFE0000
000FFE0000
000FFE0000
000FFE0000
000FFE0000
000FFE0000
000FFE0000
000FFE0000
000FFE0000
000FFE0000
000FFE0000
000FFE0000
000FFE0000
000FFE0000
000FFE0000
000FFE0000
000FFE0000
000FFE0000
000FFE0000
000FFF0000
000FFF8038
0007FFFFF8
0007FFFFFC
0007FFFFFC
0003FFFFFC
0003FFFFFC
0001FFFFFC
0000FFFFFC
00007FFFFC
00001FFFF0
000003FF00
ENDCHAR
STARTCHAR 012C
ENCODING 300
SWIDTH 495 0
DWIDTH 44 0
BBX 35 73 5 0
BITMAP
0FF803FC00
0FF803FC00
0FF803FC00
07F807FC00
07FC07FC00
07FF3FF800
03FFFFF800
03FFFFF000
01FFFFF000
00FFFFE000
007FFFC000
003FFF0000
0007FC0000
0000000000
0000000000
0000000000
0000000000
0000000000
FFFFFFFFE0
FFFFFFFFE0
FFFFFFFFE0
FFFFFFFFE0
FFFFFFFFE0
FFFFFFFFE0
FFFFFFFFE0
FFFFFFFFE0
FFFFFFFFE0
000FFE0000
000FFE0000
000FFE0000
000FFE0000
000FFE0000
000FFE0000
000FFE0000
000FFE0000
000FFE0000
000FFE0000
000FFE0000
000FFE0000
000FFE0000
000FFE0000
000FFE0000
000FFE0000
000FFE0000
000FFE0000
000FFE0000
000FFE0000
000FFE0000
000FFE0000
000FFE0000
000FFE0000
000FFE0000
000FFE0000
000FFE0000
000FFE0000
000FFE0000
000FFE0000
000FFE0000
000FFE0000
000FFE0000
000FFE0000
000FFE0000
000FFE0000
000FFE0000
FFFFFFFFE0
FFFFFFFFE0
FFFFFFFFE0
FFFFFFFFE0
FFFFFFFFE0
FFFFFFFFE0
FFFFFFFFE0
FFFFFFFFE0
FFFFFFFFE0
ENDCHAR
STARTCHAR 012D
ENCODING 301
SWIDTH 495 0
DWIDTH 44 0
BBX 38 62 3 -1
BITMAP
07F801FE00
07F803FE00
07F803FE00
07FC03FC00
07FC07FC00
07FE0FFC00
03FFFFFC00
03FFFFF800
01FFFFF000
00FFFFF000
007FFFE000
003FFF8000
000FFE0000
0000C00000
0000000000
0000000000
0000000000
0000000000
0000000000
FFFFFE0000
FFFFFE0000
FFFFFE0000
FFFFFE0000
FFFFFE0000
FFFFFE0000
FFFFFE0000
FFFFFE0000
FFFFFE0000
000FFE0000
000FFE0000
000FFE0000
000FFE0000
000FFE0000
000FFE0000
000FFE0000
000FFE0000
000FFE0000
000FFE0000
000FFE0000
000FFE0000
000FFE0000
000FFE0000
000FFE0000
000FFE0000
000FFE0000
000FFE0000
000FFE0000
000FFE0000
000FFE0000
000FFE0000
000FFF0000
000FFF8038
0007FFFFF8
0007FFFFFC
0007FFFFFC
0003FFFFFC
0003FFFFFC
0001FFFFFC
0000FFFFFC
00007FFFFC
00001FFFF0
000003FF00
ENDCHAR
STARTCHAR 012E
ENCODING 302
SWIDTH 495 0
DWIDTH 44 0
BBX 35 70 5 -15
BITMAP
FFFFFFFFE0
FFFFFFFFE0
FFFFFFFFE0
FFFFFFFFE0
FFFFFFFFE0
FFFFFFFFE0
FFFFFFFFE0
FFFFFFFFE0
FFFFFFFFE0
000FFE0000
000FFE0000
000FFE0000
000FFE0000
000FFE0000
000FFE0000
000FFE0000
000FFE0000
000FFE0000
000FFE0000
000FFE0000
000FFE0000
000FFE0000
000FFE0000
000FFE0000
000FFE0000
000FFE0000
000FFE0000
000FFE0000
000FFE0000
000FFE0000
000FFE0000
000FFE0000
000FFE0000
000FFE0000
000FFE0000
000FFE0000
000FFE0000
000FFE0000
000FFE0000
000FFE0000
000FFE0000
000FFE0000
000FFE0000
000FFE0000
000FFE0000
000FFE0000
FFFFFFFFE0
FFFFFFFFE0
FFFFFFFFE0
FFFFFFFFE0
FFFFFFFFE0
FFFFFFFFE0
FFFFFFFFE0
FFFFFFFFE0
FFFFFFFFE0
0007FE0000
000FFC0000
001FF80000
001FF00000
003FE00000
007FC00000
007FC00000
007FC00000
00FFC00000
00FFFF0000
007FFF0000
007FFF0000
007FFF8000
003FFF8000
000FFC0000
ENDCHAR
STARTCHAR 012F
ENCODING 303
SWIDTH 495 0
DWIDTH 44 0
BBX 38 76 3 -15
BITMAP
0003800000
001FE00000
003FF80000
007FF80000
007FFC0000
007FFC0000
00FFFC0000
00FFFC0000
007FFC0000
007FFC0000
007FFC0000
003FF80000
001FF00000
000FC00000
0000000000
0000000000
0000000000
0000000000
0000000000
FFFFFE0000
FFFFFE0000
FFFFFE0000
FFFFFE0000
FFFFFE0000
FFFFFE0000
FFFFFE0000
FFFFFE0000
FFFFFE0000
000FFE0000
000FFE0000
000FFE0000
000FFE0000
000FFE0000
000FFE0000
000FFE0000
000FFE0000
000FFE0000
000FFE0000
000FFE0000
000FFE0000
000FFE0000
000FFE0000
000FFE0000
000FFE0000
000FFE0000
000FFE0000
000FFE0000
000FFE0000
000FFE0000
000FFE0000
000FFF0000
0007FF8038
0007FFFFF8
0007FFFFFC
0007FFFFFC
0003FFFFFC
0001FFFFFC
0001FFFFFC
0000FFFFFC
00007FFFFC
00001FFFF8
000003FFF0
0000007FE0
000000FFC0
000000FF80
000001FF00
000003FE00
000003FE00
000003FE00
000007FE00
000007FFF8
000003FFF8
000003FFF8
000001FFFC
000000FFFC
0000003FF0
ENDCHAR
STARTCHAR 0130
ENCODING 304
SWIDTH 495 0
DWIDTH 44 0
BBX 35 74 5 0
BITMAP
0000C00000
0007F80000
000FFC0000
000FFE0000
001FFE0000
001FFE0000
001FFF0000
001FFE0000
001FFE0000
000FFE0000
000FFC0000
0007F80000
0000C00000
0000000000
0000000000
0000000000
0000000000
0000000000
0000000000
FFFFFFFFE0
FFFFFFFFE0
FFFFFFFFE0
FFFFFFFFE0
FFFFFFFFE0
FFFFFFFFE0
FFFFFFFFE0
FFFFFFFFE0
FFFFFFFFE0
000FFE0000
000FFE0000
000FFE0000
000FFE0000
000FFE0000
000FFE0000
000FFE0000
000FFE0000
000FFE0000
000FFE0000
000FFE0000
000FFE0000
000FFE0000
000FFE0000
000FFE0000
000FFE0000
000FFE0000
000FFE0000
000FFE0000
000FFE0000
000FFE0000
000FFE0000
000FFE0000
000FFE0000
000FFE0000
000FFE0000
000FFE0000
000FFE0000
000FFE0000
000FFE0000
000FFE0000
000FFE0000
000FFE0000
000FFE0000
000FFE0000
000FFE0000
000FFE0000
FFFFFFFFE0
FFFFFFFFE0
FFFFFFFFE0
FFFFFFFFE0
FFFFFFFFE0
FFFFFFFFE0
FFFFFFFFE0
FFFFFFFFE0
FFFFFFFFE0
ENDCHAR
STARTCHAR 0131
ENCODING 305
SWIDTH 495 0
DWIDTH 44 0
BBX 38 43 3 -1
BITMAP
FFFFFE0000
FFFFFE0000
FFFFFE0000
FFFFFE0000
FFFFFE0000
FFFFFE0000
FFFFFE0000
FFFFFE0000
FFFFFE0000
000FFE0000
000FFE0000
000FFE0000
000FFE0000
000FFE0000
000FFE0000
000FFE0000
000FFE0000
000FFE0000
000FFE0000
000FFE0000
000FFE0000
000FFE0000
000FFE0000
000FFE0000
000FFE0000
000FFE0000
000FFE0000
000FFE0000
000FFE0000
000FFE0000
000FFE0000
000FFF0000
000FFF8038
0007FFFFF8
0007FFFFFC
0007FFFFFC
0003FFFFFC
0003FFFFFC
0001FFFFFC
0000FFFFFC
00007FFFFC
00001FFFF0
000003FF00
ENDCHAR
STARTCHAR 0132
ENCODING 306
SWIDTH 495 0
DWIDTH 44 0
BBX 41 56 2 -1
BITMAP
FFE00003FF80
FFE00003FF80
FFE00003FF80
FFE00003FF80
FFE00003FF80
FFE00003FF80
FFE00003FF80
FFE00003FF80
FFE00003FF80
FFE00003FF80
FFE00003FF80
FFE00003FF80
FFE00003FF80
FFE00003FF80
FFE00003FF80
FFE00003FF80
FFE00003FF80
FFE00003FF80
FFE00003FF80
FFE00003FF80
FFE00003FF80
FFE00003FF80
FFE00003FF80
FFE00003FF80
FFE00003FF80
FFE00003FF80
FFE00003FF80
FFE00003FF80
FFE00003FF80
FFE00003FF80
FFE00003FF80
FFE00003FF80
FFE00003FF80
FFE00003FF80
FFE00003FF80
FFE00003FF80
FFE00003FF80
FFE00003FF80
FFE00003FF80
FFE00003FF80
FFE00007FF80
FFE00007FF80
FFE00007FF00
FFE00007FF00
FFE0600FFF00
FFE0700FFF00
FFE0FE7FFF00
FFE0FFFFFE00
FFE1FFFFFE00
FFE1FFFFFC00
FFE3FFFFFC00
FFE3FFFFF800
FFE7FFFFF000
FFE1FFFFE000
FFE07FFF8000
00000FFC0000
ENDCHAR
STARTCHAR 0133
ENCODING 307
SWIDTH 495 0
DWIDTH 44 0
BBX 34 76 5 -15
BITMAP
0780003800
1FE001FF00
7FF003FF80
7FF807FF80
FFFC07FFC0
FFFC0FFFC0
FFFC0FFFC0
FFFC0FFFC0
FFFC0FFFC0
FFFC07FFC0
7FF807FFC0
7FF803FF80
3FF003FF00
0FC000FC00
0000000000
0000000000
0000000000
0000000000
0000000000
7FF003FF80
7FF003FF80
7FF003FF80
7FF003FF80
7FF003FF80
7FF003FF80
7FF003FF80
7FF003FF80
7FF003FF80
7FF003FF80
7FF003FF80
7FF003FF80
7FF003FF80
7FF003FF80
7FF003FF80
7FF003FF80
7FF003FF80
7FF003FF80
7FF003FF80
7FF003FF80
7FF003FF80
7FF003FF80
7FF003FF80
7FF003FF80
7FF003FF80
7FF003FF80
7FF003FF80
7FF003FF80
7FF003FF80
7FF003FF80
7FF003FF80
7FF003FF80
7FF003FF80
7FF003FF80
7FF003FF80
7FF003FF80
7FF003FF80
7FF003FF80
7FF003FF80
7FF003FF80
7FF003FF80
7FF003FF80
000003FF80
000003FF80
000007FF80
000007FF00
00000FFF00
000FFFFF00
000FFFFF00
000FFFFE00
001FFFFE00
001FFFFC00
001FFFFC00
001FFFF800
001FFFE000
001FFF8000
0003F00000
ENDCHAR
STARTCHAR 0134
ENCODING 308
SWIDTH 495 0
DWIDTH 44 0
BBX 35 75 4 -1
BITMAP
0000010000
0000038000
000007C000
00001FE000
00003FF000
00007FF800
0000FFFC00
0001FFFE00
0003FFFF80
0007FFFFC0
001FFEFFE0
001FFC7FE0
000FF03FC0
0007E01F80
0003C00780
0001000300
0000000000
0000000000
0000000000
03FFFFFFE0
03FFFFFFE0
03FFFFFFE0
03FFFFFFE0
03FFFFFFE0
03FFFFFFE0
03FFFFFFE0
03FFFFFFE0
03FFFFFFE0
000000FFE0
000000FFE0
000000FFE0
000000FFE0
000000FFE0
000000FFE0
000000FFE0
000000FFE0
000000FFE0
000000FFE0
000000FFE0
000000FFE0
000000FFE0
000000FFE0
000000FFE0
000000FFE0
000000FFE0
000000FFE0
000000FFE0
000000FFE0
000000FFE0
000000FFE0
000000FFE0
000000FFE0
000000FFE0
000000FFE0
000000FFE0
000000FFE0
000000FFE0
000000FFE0
000000FFE0
000001FFE0
000001FFE0
000001FFC0
180003FFC0
1E0007FFC0
3F800FFF80
3FF8FFFF80
3FFFFFFF80
7FFFFFFF00
7FFFFFFE00
FFFFFFFC00
FFFFFFF800
7FFFFFF000
1FFFFFE000
07FFFF8000
00FFFC0000
ENDCHAR
STARTCHAR 0135
ENCODING 309
SWIDTH 495 0
DWIDTH 44 0
BBX 31 76 5 -15
BITMAP
00003000
00007800
0000FC00
0003FE00
0007FF80
000FFFC0
001FFFE0
003FFFF0
007FFFF8
00FFFFFC
01FFCFFE
01FF03FC
00FE01FC
007C00F8
00380070
00000000
00000000
00000000
00000000
1FFFFFFE
1FFFFFFE
1FFFFFFE
1FFFFFFE
1FFFFFFE
1FFFFFFE
1FFFFFFE
1FFFFFFE
1FFFFFFE
00000FFE
00000FFE
00000FFE
00000FFE
00000FFE
00000FFE
00000FFE
00000FFE
00000FFE
00000FFE
00000FFE
00000FFE
00000FFE
00000FFE
00000FFE
00000FFE
00000FFE
00000FFE
00000FFE
00000FFE
00000FFE
00000FFE
00000FFE
00000FFE
00000FFE
00000FFE
00000FFE
00000FFE
00000FFE
00000FFE
00000FFE
00000FFE
00000FFC
00001FFC
00001FFC
10001FFC
3C003FFC
3F007FFC
7FFFFFF8
7FFFFFF8
7FFFFFF8
FFFFFFF0
FFFFFFE0
FFFFFFE0
FFFFFFC0
3FFFFF00
07FFFE00
00FFF000
ENDCHAR
STARTCHAR 0136
ENCODING 310
SWIDTH 495 0
DWIDTH 44 0
BBX 39 70 4 -15
BITMAP
FFE0007FF8
FFE0007FF8
FFE000FFF0
FFE000FFF0
FFE001FFE0
FFE003FFE0
FFE003FFC0
FFE007FF80
FFE007FF80
FFE00FFF00
FFE00FFF00
FFE01FFE00
FFE03FFC00
FFE03FFC00
FFE07FF800
FFE0FFF000
FFE0FFE000
FFE1FFE000
FFE3FFC000
FFE7FF8000
FFE7FF8000
FFEFFF0000
FFFFFE0000
FFFFFC0000
FFFFF80000
FFFFF80000
FFFFFC0000
FFFFFE0000
FFFFFF0000
FFFFFF8000
FFEFFF8000
FFE7FFC000
FFE3FFE000
FFE3FFF000
FFE1FFF800
FFE0FFF800
FFE07FFC00
FFE03FFE00
FFE03FFE00
FFE01FFF00
FFE00FFF80
FFE00FFF80
FFE007FFC0
FFE003FFC0
FFE003FFE0
FFE001FFE0
FFE001FFF0
FFE000FFF0
FFE000FFF8
FFE0007FF8
FFE0007FFC
FFE0003FFC
FFE0003FFE
FFE0001FFE
FFE0001FFE
0000000000
0000000000
0000000000
0000000000
0000FF0000
0000FF0000
0001FF0000
0001FF0000
0003FF0000
007FFF0000
007FFF0000
007FFE0000
007FFC0000
007FF80000
007FE00000
ENDCHAR
STARTCHAR 0137
ENCODING 311
SWIDTH 495 0
DWIDTH 44 0
BBX 37 77 6 -15
BITMAP
0060000000
0FE0000000
FFE0000000
FFE0000000
FFE0000000
FFE0000000
FFE0000000
FFE0000000
FFE0000000
FFE0000000
FFE0000000
FFE0000000
FFE0000000
FFE0000000
FFE0000000
FFE0000000
FFE0000000
FFE0000000
FFE0000000
FFE0000000
FFE003FFE0
FFE003FFE0
FFE007FFC0
FFE00FFF80
FFE00FFF00
FFE01FFE00
FFE03FFE00
FFE03FFC00
FFE07FF800
FFE0FFF000
FFE0FFE000
FFE1FFC000
FFE3FF8000
FFE7FF0000
FFEFFE0000
FFEFFC0000
FFFFFC0000
FFFFF80000
FFFFF00000
FFFFF00000
FFFFF80000
FFFFFC0000
FFFFFE0000
FFEFFF0000
FFE7FF8000
FFE3FFC000
FFE3FFE000
FFE1FFE000
FFE0FFF000
FFE07FF800
FFE03FFC00
FFE03FFE00
FFE01FFE00
FFE00FFF00
FFE00FFF80
FFE007FF80
FFE003FFC0
FFE003FFE0
FFE001FFE0
FFE001FFF0
FFE000FFF0
FFE000FFF8
0000000000
0000000000
0000000000
0000000000
0003FC0000
0003FC0000
0007FC0000
0007FC0000
000FFC0000
01FFFC0000
01FFFC0000
01FFF80000
01FFF00000
01FFE00000
01FF800000
ENDCHAR
STARTCHAR 0138
ENCODING 312
SWIDTH 495 0
DWIDTH 44 0
BBX 37 42 6 0
BITMAP
FFE003FFE0
FFE003FFE0
FFE007FFC0
FFE00FFF80
FFE00FFF00
FFE01FFE00
FFE03FFE00
FFE03FFC00
FFE07FF800
FFE0FFF000
FFE0FFE000
FFE1FFC000
FFE3FF8000
FFE7FF0000
FFEFFE0000
FFEFFC0000
FFFFFC0000
FFFFF80000
FFFFF00000
FFFFF00000
FFFFF80000
FFFFFC0000
FFFFFE0000
FFEFFF0000
FFE7FF8000
FFE3FFC000
FFE3FFE000
FFE1FFE000
FFE0FFF000
FFE07FF800
FFE03FFC00
FFE03FFE00
FFE01FFE00
FFE00FFF00
FFE00FFF80
FFE007FF80
FFE003FFC0
FFE003FFE0
FFE001FFE0
FFE001FFF0
FFE000FFF0
FFE000FFF8
ENDCHAR
STARTCHAR 0139
ENCODING 313
SWIDTH 495 0
DWIDTH 44 0
BBX 35 74 6 0
BITMAP
0000800000
0001C00000
0003C00000
000FE00000
001FF00000
007FF00000
00FFF80000
03FFFC0000
07FFFC0000
0FFFF00000
1FFFC00000
0FFF000000
0FFC000000
07F0000000
03C0000000
0300000000
0000000000
0000000000
0000000000
FFE0000000
FFE0000000
FFE0000000
FFE0000000
FFE0000000
FFE0000000
FFE0000000
FFE0000000
FFE0000000
FFE0000000
FFE0000000
FFE0000000
FFE0000000
FFE0000000
FFE0000000
FFE0000000
FFE0000000
FFE0000000
FFE0000000
FFE0000000
FFE0000000
FFE0000000
FFE0000000
FFE0000000
FFE0000000
FFE0000000
FFE0000000
FFE0000000
FFE0000000
FFE0000000
FFE0000000
FFE0000000
FFE0000000
FFE0000000
FFE0000000
FFE0000000
FFE0000000
FFE0000000
FFE0000000
FFE0000000
FFE0000000
FFE0000000
FFE0000000
FFE0000000
FFE0000000
FFE0000000
FFFFFFFFE0
FFFFFFFFE0
FFFFFFFFE0
FFFFFFFFE0
FFFFFFFFE0
FFFFFFFFE0
FFFFFFFFE0
FFFFFFFFE0
FFFFFFFFE0
ENDCHAR
STARTCHAR 013A
ENCODING 314
SWIDTH 495 0
DWIDTH 44 0
BBX 38 75 3 -1
BITMAP
0000004000
000001C000
000007C000
00001FE000
00007FE000
0003FFE000
000FFFF000
003FFFF000
007FFFF000
007FFF8000
003FF80000
003FC00000
003E000000
0010000000
0000000000
0000000000
0000000000
FFFFFE0000
FFFFFE0000
FFFFFE0000
FFFFFE0000
FFFFFE0000
FFFFFE0000
FFFFFE0000
FFFFFE0000
FFFFFE0000
000FFE0000
000FFE0000
000FFE0000
000FFE0000
000FFE0000
000FFE0000
000FFE0000
000FFE0000
000FFE0000
000FFE0000
000FFE0000
000FFE0000
000FFE0000
000FFE0000
000FFE0000
000FFE0000
000FFE0000
000FFE0000
000FFE0000
000FFE0000
000FFE0000
000FFE0000
000FFE0000
000FFE0000
000FFE0000
000FFE0000
000FFE0000
000FFE0000
000FFE0000
000FFE0000
000FFE0000
000FFE0000
000FFE0000
000FFE0000
000FFE0000
000FFE0000
000FFE0000
000FFF0000
000FFF8038
0007FFFFF8
0007FFFFFC
0007FFFFFC
0003FFFFFC
0001FFFFFC
0001FFFFFC
0000FFFFFC
00007FFFFC
00001FFFF0
000003FF00
ENDCHAR
STARTCHAR 013B
ENCODING 315
SWIDTH 495 0
DWIDTH 44 0
BBX 35 70 6 -15
BITMAP
FFE0000000
FFE0000000
FFE0000000
FFE0000000
FFE0000000
FFE0000000
FFE0000000
FFE0000000
FFE0000000
FFE0000000
FFE0000000
FFE0000000
FFE0000000
FFE0000000
FFE0000000
FFE0000000
FFE0000000
FFE0000000
FFE0000000
FFE0000000
FFE0000000
FFE0000000
FFE0000000
FFE0000000
FFE0000000
FFE0000000
FFE0000000
FFE0000000
FFE0000000
FFE0000000
FFE0000000
FFE0000000
FFE0000000
FFE0000000
FFE0000000
FFE0000000
FFE0000000
FFE0000000
FFE0000000
FFE0000000
FFE0000000
FFE0000000
FFE0000000
FFE0000000
FFE0000000
FFE0000000
FFFFFFFFE0
FFFFFFFFE0
FFFFFFFFE0
FFFFFFFFE0
FFFFFFFFE0
FFFFFFFFE0
FFFFFFFFE0
FFFFFFFFE0
FFFFFFFFE0
0000000000
0000000000
0000000000
0000000000
0001FF0000
0001FF0000
0001FF0000
0003FF0000
0007FF0000
007FFF0000
007FFE0000
007FFE0000
007FFC0000
007FF80000
007FC00000
ENDCHAR
STARTCHAR 013C
ENCODING 316
SWIDTH 495 0
DWIDTH 44 0
BBX 38 76 3 -15
BITMAP
FFFFFE0000
FFFFFE0000
FFFFFE0000
FFFFFE0000
FFFFFE0000
FFFFFE0000
FFFFFE0000
FFFFFE0000
FFFFFE0000
000FFE0000
000FFE0000
000FFE0000
000FFE0000
000FFE0000
000FFE0000
000FFE0000
000FFE0000
000FFE0000
000FFE0000
000FFE0000
000FFE0000
000FFE0000
000FFE0000
000FFE0000
000FFE0000
000FFE0000
000FFE0000
000FFE0000
000FFE0000
000FFE0000
000FFE0000
000FFE0000
000FFE0000
000FFE0000
000FFE0000
000FFE0000
000FFE0000
000FFE0000
000FFE0000
000FFE0000
000FFE0000
000FFE0000
000FFE0000
000FFE0000
000FFE0000
000FFE0000
000FFE0000
000FFE0000
000FFE0000
000FFE0000
000FFF0000
000FFF8038
0007FFFFF8
0007FFFFFC
0007FFFFFC
0003FFFFFC
0001FFFFFC
0001FFFFFC
0000FFFFFC
00007FFFFC
00001FFFF0
000003FF00
0000000000
0000000000
0000000000
000003FE00
000003FE00
000003FE00
000007FE00
00000FFE00
0000FFFE00
0000FFFC00
0000FFFC00
0000FFF800
0000FFF000
0000FF8000
ENDCHAR
STARTCHAR 013D
ENCODING 317
SWIDTH 495 0
DWIDTH 44 0
BBX 35 55 6 0
BITMAP
FFE01FF800
FFE01FF800
FFE01FF800
FFE01FF800
FFE01FF000
FFE01FF000
FFE01FF000
FFE01FF000
FFE01FF000
FFE01FF000
FFE01FF000
FFE01FE000
FFE01FE000
FFE01FE000
FFE01FE000
FFE01FE000
FFE01FE000
FFE01FE000
FFE01FC000
FFE0000000
FFE0000000
FFE0000000
FFE0000000
FFE0000000
FFE0000000
FFE0000000
FFE0000000
FFE0000000
FFE0000000
FFE0000000
FFE0000000
FFE0000000
FFE0000000
FFE0000000
FFE0000000
FFE0000000
FFE0000000
FFE0000000
FFE0000000
FFE0000000
FFE0000000
FFE0000000
FFE0000000
FFE0000000
FFE0000000
FFE0000000
FFFFFFFFE0
FFFFFFFFE0
FFFFFFFFE0
FFFFFFFFE0
FFFFFFFFE0
FFFFFFFFE0
FFFFFFFFE0
FFFFFFFFE0
FFFFFFFFE0
ENDCHAR
STARTCHAR 013E
ENCODING 318
SWIDTH 495 0
DWIDTH 44 0
BBX 39 63 3 -1
BITMAP
00000003FE
FFFFFE03FE
FFFFFE03FE
FFFFFE03FE
FFFFFE03FE
FFFFFE03FE
FFFFFE03FE
FFFFFE03FC
FFFFFE03FC
FFFFFE03FC
000FFE03FC
000FFE03FC
000FFE03FC
000FFE03FC
000FFE03F8
000FFE03F8
000FFE03F8
000FFE03F8
000FFE03F8
000FFE03F8
000FFE0000
000FFE0000
000FFE0000
000FFE0000
000FFE0000
000FFE0000
000FFE0000
000FFE0000
000FFE0000
000FFE0000
000FFE0000
000FFE0000
000FFE0000
000FFE0000
000FFE0000
000FFE0000
000FFE0000
000FFE0000
000FFE0000
000FFE0000
000FFE0000
000FFE0000
000FFE0000
000FFE0000
000FFE0000
000FFE0000
000FFE0000
000FFE0000
000FFE0000
000FFE0000
000FFE0000
000FFF0000
000FFF8038
0007FFFFF8
0007FFFFFC
0007FFFFFC
0003FFFFFC
0001FFFFFC
0001FFFFFC
0000FFFFFC
00007FFFFC
00001FFFF0
000003FF00
ENDCHAR
STARTCHAR 013F
ENCODING 319
SWIDTH 495 0
DWIDTH 44 0
BBX 35 55 6 0
BITMAP
FFE0000000
FFE0000000
FFE0000000
FFE0000000
FFE0000000
FFE0000000
FFE0000000
FFE0000000
FFE0000000
FFE0000000
FFE0000000
FFE0000000
FFE0000000
FFE0000000
FFE0000000
FFE0000000
FFE000FE00
FFE003FF00
FFE007FF80
FFE007FFC0
FFE00FFFC0
FFE00FFFE0
FFE00FFFE0
FFE00FFFE0
FFE00FFFE0
FFE00FFFC0
FFE007FFC0
FFE007FF80
FFE003FF00
FFE000FE00
FFE0000000
FFE0000000
FFE0000000
FFE0000000
FFE0000000
FFE0000000
FFE0000000
FFE0000000
FFE0000000
FFE0000000
FFE0000000
FFE0000000
FFE0000000
FFE0000000
FFE0000000
FFE0000000
FFFFFFFFE0
FFFFFFFFE0
FFFFFFFFE0
FFFFFFFFE0
FFFFFFFFE0
FFFFFFFFE0
FFFFFFFFE0
FFFFFFFFE0
FFFFFFFFE0
ENDCHAR
STARTCHAR 0140
ENCODING 320
SWIDTH 495 0
DWIDTH 44 0
BBX 47 63 3 -1
BITMAP
FFFFFE000000
FFFFFE000000
FFFFFE000000
FFFFFE000000
FFFFFE000000
FFFFFE000000
FFFFFE000000
FFFFFE000000
FFFFFE000000
000FFE000000
000FFE000000
000FFE000000
000FFE000000
000FFE000000
000FFE000000
000FFE000000
000FFE000000
000FFE000000
000FFE000000
000FFE000000
000FFE000000
000FFE000000
000FFE0007E0
000FFE001FF8
000FFE003FFC
000FFE003FFE
000FFE007FFE
000FFE007FFE
000FFE007FFE
000FFE007FFE
000FFE007FFE
000FFE007FFE
000FFE007FFE
000FFE003FFC
000FFE001FF8
000FFE000FF0
000FFE000080
000FFE000000
000FFE000000
000FFE000000
000FFE000000
000FFE000000
000FFE000000
000FFE000000
000FFE000000
000FFE000000
000FFE000000
000FFE000000
000FFE000000
000FFE000000
000FFE000000
000FFF000000
000FFF803800
0007FFFFF800
0007FFFFFC00
0007FFFFFC00
0003FFFFFC00
0001FFFFFC00
0001FFFFFC00
0000FFFFFC00
00007FFFFC00
00001FFFF000
000003FF0000
ENDCHAR
STARTCHAR 0141
ENCODING 321
SWIDTH 495 0
DWIDTH 44 0
BBX 42 55 -1 0
BITMAP
007FF0000000
007FF0000000
007FF0000000
007FF0000000
007FF0000000
007FF0000000
007FF0000000
007FF0000000
007FF0000000
007FF0000000
007FF0000000
007FF0000000
007FF0000000
007FF0000000
007FF0040000
007FF01C0000
007FF07E0000
007FF1FE0000
007FF7FF0000
007FFFFF0000
007FFFFF8000
007FFFFF8000
007FFFFF8000
007FFFFE0000
007FFFF80000
01FFFFE00000
07FFFF800000
1FFFFE000000
7FFFF8000000
FFFFF0000000
7FFFF0000000
7FFFF0000000
3FFFF0000000
3FFFF0000000
1FFFF0000000
1E7FF0000000
087FF0000000
007FF0000000
007FF0000000
007FF0000000
007FF0000000
007FF0000000
007FF0000000
007FF0000000
007FF0000000
007FF0000000
007FFFFFFFC0
007FFFFFFFC0
007FFFFFFFC0
007FFFFFFFC0
007FFFFFFFC0
007FFFFFFFC0
007FFFFFFFC0
007FFFFFFFC0
007FFFFFFFC0
ENDCHAR
STARTCHAR 0142
ENCODING 322
SWIDTH 495 0
DWIDTH 44 0
BBX 38 62 3 -1
BITMAP
FFFFFE0000
FFFFFE0000
FFFFFE0000
FFFFFE0000
FFFFFE0000
FFFFFE0000
FFFFFE0000
FFFFFE0000
FFFFFE0000
000FFE0000
000FFE0000
000FFE0000
000FFE0000
000FFE0000
000FFE0000
000FFE0000
000FFE0000
000FFE0800
000FFE3800
000FFEFC00
000FFFFC00
000FFFFE00
000FFFFE00
000FFFFF00
000FFFFF00
001FFFFC00
007FFFF000
01FFFFC000
07FFFF0000
1FFFFE0000
0FFFFE0000
0FFFFE0000
07FFFE0000
07FFFE0000
03FFFE0000
03CFFE0000
010FFE0000
000FFE0000
000FFE0000
000FFE0000
000FFE0000
000FFE0000
000FFE0000
000FFE0000
000FFE0000
000FFE0000
000FFE0000
000FFE0000
000FFE0000
000FFE0000
000FFF0000
000FFF8038
0007FFFFF8
0007FFFFFC
0007FFFFFC
0003FFFFFC
0001FFFFFC
0001FFFFFC
0000FFFFFC
00007FFFFC
00001FFFF0
000003FF00
ENDCHAR
STARTCHAR 0143
ENCODING 323
SWIDTH 495 0
DWIDTH 44 0
BBX 36 74 4 0
BITMAP
0000010000
0000030000
00000F8000
00001FC000
00007FC000
0000FFE000
0001FFF000
0007FFF000
000FFFF800
003FFFE000
003FFF8000
003FFE0000
001FF80000
000FE00000
000F800000
0006000000
0000000000
0000000000
0000000000
FF80003FF0
FFC0003FF0
FFC0003FF0
FFE0003FF0
FFF0003FF0
FFF0003FF0
FFF8003FF0
FFF8003FF0
FFFC003FF0
FFFC003FF0
FFFE003FF0
FFFE003FF0
FFFF003FF0
FFFF803FF0
FFFF803FF0
FFFFC03FF0
FFFFC03FF0
FFFFE03FF0
FFFFE03FF0
FFDFF03FF0
FFDFF03FF0
FFCFF83FF0
FFCFF83FF0
FFC7FC3FF0
FFC7FC3FF0
FFC3FE3FF0
FFC3FE3FF0
FFC1FF3FF0
FFC1FF3FF0
FFC0FFBFF0
FFC0FFBFF0
FFC07FBFF0
FFC07FFFF0
FFC03FFFF0
FFC03FFFF0
FFC01FFFF0
FFC01FFFF0
FFC00FFFF0
FFC00FFFF0
FFC007FFF0
FFC007FFF0
FFC003FFF0
FFC003FFF0
FFC001FFF0
FFC001FFF0
FFC001FFF0
FFC000FFF0
FFC000FFF0
FFC0007FF0
FFC0007FF0
FFC0003FF0
FFC0003FF0
FFC0001FF0
FFC0001FF0
FFC0001FF0
ENDCHAR
STARTCHAR 0144
ENCODING 324
SWIDTH 495 0
DWIDTH 44 0
BBX 33 61 6 0
BITMAP
0000080000
00003C0000
00007E0000
0001FE0000
0003FF0000
000FFF8000
001FFF8000
003FFFC000
00FFFF8000
01FFFE0000
01FFF80000
00FFE00000
007F800000
003E000000
0038000000
0000000000
0000000000
0000000000
000FC00000
0FFFFF0000
FFFFFFC000
FFFFFFF000
FFFFFFF800
FFFFFFFC00
FFFFFFFC00
FFFFFFFE00
FFFFFFFE00
FFFFFFFF00
FFE01FFF00
FFE00FFF00
FFE007FF80
FFE007FF80
FFE003FF80
FFE003FF80
FFE003FF80
FFE003FF80
FFE003FF80
FFE003FF80
FFE003FF80
FFE003FF80
FFE003FF80
FFE003FF80
FFE003FF80
FFE003FF80
FFE003FF80
FFE003FF80
FFE003FF80
FFE003FF80
FFE003FF80
FFE003FF80
FFE003FF80
FFE003FF80
FFE003FF80
FFE003FF80
FFE003FF80
FFE003FF80
FFE003FF80
FFE003FF80
FFE003FF80
FFE003FF80
FFE003FF80
ENDCHAR
STARTCHAR 0145
ENCODING 325
SWIDTH 495 0
DWIDTH 44 0
BBX 36 70 4 -15
BITMAP
FF80003FF0
FFC0003FF0
FFC0003FF0
FFE0003FF0
FFF0003FF0
FFF0003FF0
FFF8003FF0
FFF8003FF0
FFFC003FF0
FFFC003FF0
FFFE003FF0
FFFE003FF0
FFFF003FF0
FFFF803FF0
FFFF803FF0
FFFFC03FF0
FFFFC03FF0
FFFFE03FF0
FFFFE03FF0
FFDFF03FF0
FFDFF03FF0
FFCFF83FF0
FFCFF83FF0
FFC7FC3FF0
FFC7FC3FF0
FFC3FE3FF0
FFC3FE3FF0
FFC1FF3FF0
FFC1FF3FF0
FFC0FFBFF0
FFC0FFBFF0
FFC07FBFF0
FFC07FFFF0
FFC03FFFF0
FFC03FFFF0
FFC01FFFF0
FFC01FFFF0
FFC00FFFF0
FFC00FFFF0
FFC007FFF0
FFC007FFF0
FFC003FFF0
FFC003FFF0
FFC001FFF0
FFC001FFF0
FFC001FFF0
FFC000FFF0
FFC000FFF0
FFC0007FF0
FFC0007FF0
FFC0003FF0
FFC0003FF0
FFC0001FF0
FFC0001FF0
FFC0001FF0
0000000000
0000000000
0000000000
0000000000
0000FF0000
0000FF0000
0001FF0000
0001FF0000
0003FF0000
007FFF0000
007FFF0000
007FFE0000
007FFC0000
007FF80000
007FE00000
ENDCHAR
STARTCHAR 0146
ENCODING 326
SWIDTH 495 0
DWIDTH 44 0
BBX 33 58 6 -15
BITMAP
000FC00000
0FFFFF0000
FFFFFFC000
FFFFFFF000
FFFFFFF800
FFFFFFFC00
FFFFFFFC00
FFFFFFFE00
FFFFFFFE00
FFFFFFFF00
FFE01FFF00
FFE00FFF00
FFE007FF80
FFE007FF80
FFE003FF80
FFE003FF80
FFE003FF80
FFE003FF80
FFE003FF80
FFE003FF80
FFE003FF80
FFE003FF80
FFE003FF80
FFE003FF80
FFE003FF80
FFE003FF80
FFE003FF80
FFE003FF80
FFE003FF80
FFE003FF80
FFE003FF80
FFE003FF80
FFE003FF80
FFE003FF80
FFE003FF80
FFE003FF80
FFE003FF80
FFE003FF80
FFE003FF80
FFE003FF80
FFE003FF80
FFE003FF80
FFE003FF80
0000000000
0000000000
0000000000
0000000000
0007F80000
0007F80000
0007FC0000
000FFC0000
001FF80000
03FFF80000
03FFF80000
03FFF00000
03FFE00000
03FFC00000
03FF000000
ENDCHAR
STARTCHAR 0147
ENCODING 327
SWIDTH 495 0
DWIDTH 44 0
BBX 36 74 4 0
BITMAP
0020000000
007000E000
00F801F000
00FE03F800
01FF07FC00
03FF9FFE00
01FFFFFC00
00FFFFF000
007FFFE000
001FFFC000
000FFF8000
0007FF0000
0003FE0000
0001F80000
0000F00000
0000600000
0000000000
0000000000
0000000000
FF80003FF0
FFC0003FF0
FFC0003FF0
FFE0003FF0
FFF0003FF0
FFF0003FF0
FFF8003FF0
FFF8003FF0
FFFC003FF0
FFFC003FF0
FFFE003FF0
FFFE003FF0
FFFF003FF0
FFFF803FF0
FFFF803FF0
FFFFC03FF0
FFFFC03FF0
FFFFE03FF0
FFFFE03FF0
FFDFF03FF0
FFDFF03FF0
FFCFF83FF0
FFCFF83FF0
FFC7FC3FF0
FFC7FC3FF0
FFC3FE3FF0
FFC3FE3FF0
FFC1FF3FF0
FFC1FF3FF0
FFC0FFBFF0
FFC0FFBFF0
FFC07FBFF0
FFC07FFFF0
FFC03FFFF0
FFC03FFFF0
FFC01FFFF0
FFC01FFFF0
FFC00FFFF0
FFC00FFFF0
FFC007FFF0
FFC007FFF0
FFC003FFF0
FFC003FFF0
FFC001FFF0
FFC001FFF0
FFC001FFF0
FFC000FFF0
FFC000FFF0
FFC0007FF0
FFC0007FF0
FFC0003FF0
FFC0003FF0
FFC0001FF0
FFC0001FF0
FFC0001FF0
ENDCHAR
STARTCHAR 0148
ENCODING 328
SWIDTH 495 0
DWIDTH 44 0
BBX 33 61 6 0
BITMAP
00C0018000
01E003C000
03F00FE000
07F81FF000
0FFE3FF000
07FFFFF000
03FFFFE000
01FFFFC000
00FFFF0000
007FFE0000
003FFC0000
001FF80000
0007F00000
0003E00000
0001C00000
0000000000
0000000000
0000000000
000FC00000
0FFFFF0000
FFFFFFC000
FFFFFFF000
FFFFFFF800
FFFFFFFC00
FFFFFFFC00
FFFFFFFE00
FFFFFFFE00
FFFFFFFF00
FFE01FFF00
FFE00FFF00
FFE007FF80
FFE007FF80
FFE003FF80
FFE003FF80
FFE003FF80
FFE003FF80
FFE003FF80
FFE003FF80
FFE003FF80
FFE003FF80
FFE003FF80
FFE003FF80
FFE003FF80
FFE003FF80
FFE003FF80
FFE003FF80
FFE003FF80
FFE003FF80
FFE003FF80
FFE003FF80
FFE003FF80
FFE003FF80
FFE003FF80
FFE003FF80
FFE003FF80
FFE003FF80
FFE003FF80
FFE003FF80
FFE003FF80
FFE003FF80
FFE003FF80
ENDCHAR
STARTCHAR 0149
ENCODING 329
SWIDTH 495 0
DWIDTH 44 0
BBX 43 62 -2 0
BITMAP
3FF800000000
1FF800000000
1FF800000000
1FF800000000
1FF800000000
1FF800000000
1FF000000000
3FF000000000
3FF000000000
3FF000000000
3FF000000000
3FE000000000
7FE000000000
7FE000000000
7FC000000000
FFC000000000
FF8000000000
7F0000000000
070000000000
000007F00000
0003FFFFC000
007FFFFFF000
007FFFFFF800
007FFFFFFC00
007FFFFFFE00
007FFFFFFF00
007FFFFFFF00
007FFFFFFF80
007FFFFFFF80
007FF00FFFC0
007FF003FFC0
007FF001FFC0
007FF001FFC0
007FF001FFC0
007FF001FFE0
007FF000FFE0
007FF000FFE0
007FF000FFE0
007FF000FFE0
007FF000FFE0
007FF000FFE0
007FF000FFE0
007FF000FFE0
007FF000FFE0
007FF000FFE0
007FF000FFE0
007FF000FFE0
007FF000FFE0
007FF000FFE0
007FF000FFE0
007FF000FFE0
007FF000FFE0
007FF000FFE0
007FF000FFE0
007FF000FFE0
007FF000FFE0
007FF000FFE0
007FF000FFE0
007FF000FFE0
007FF000FFE0
007FF000FFE0
007FF000FFE0
ENDCHAR
STARTCHAR 014A
ENCODING 330
SWIDTH 495 0
DWIDTH 44 0
BBX 36 70 4 -15
BITMAP
FF80003FF0
FFC0003FF0
FFC0003FF0
FFE0003FF0
FFF0003FF0
FFF0003FF0
FFF8003FF0
FFF8003FF0
FFFC003FF0
FFFC003FF0
FFFE003FF0
FFFE003FF0
FFFF003FF0
FFFF803FF0
FFFF803FF0
FFFFC03FF0
FFFFC03FF0
FFFFE03FF0
FFFFE03FF0
FFDFF03FF0
FFDFF03FF0
FFCFF83FF0
FFCFF83FF0
FFC7FC3FF0
FFC7FC3FF0
FFC3FE3FF0
FFC3FE3FF0
FFC1FF3FF0
FFC1FF3FF0
FFC0FFBFF0
FFC0FFBFF0
FFC07FBFF0
FFC07FFFF0
FFC03FFFF0
FFC03FFFF0
FFC01FFFF0
FFC01FFFF0
FFC00FFFF0
FFC00FFFF0
FFC007FFF0
FFC007FFF0
FFC003FFF0
FFC003FFF0
FFC001FFF0
FFC001FFF0
FFC001FFF0
FFC000FFF0
FFC000FFF0
FFC0007FF0
FFC0007FF0
FFC0003FF0
FFC0003FF0
FFC0003FF0
FFC0003FF0
FFC0003FF0
0000003FF0
0000003FF0
0000003FF0
0000003FF0
0000007FF0
00001FFFF0
00001FFFE0
00003FFFE0
00003FFFE0
00003FFFC0
00003FFFC0
00003FFF80
00003FFF00
00007FFC00
00001FE000
ENDCHAR
STARTCHAR 014B
ENCODING 331
SWIDTH 495 0
DWIDTH 44 0
BBX 33 58 6 -15
BITMAP
000FC00000
0FFFFF0000
FFFFFFC000
FFFFFFF000
FFFFFFF800
FFFFFFFC00
FFFFFFFC00
FFFFFFFE00
FFFFFFFE00
FFFFFFFF00
FFE01FFF00
FFE00FFF00
FFE007FF80
FFE007FF80
FFE003FF80
FFE003FF80
FFE003FF80
FFE003FF80
FFE003FF80
FFE003FF80
FFE003FF80
FFE003FF80
FFE003FF80
FFE003FF80
FFE003FF80
FFE003FF80
FFE003FF80
FFE003FF80
FFE003FF80
FFE003FF80
FFE003FF80
FFE003FF80
FFE003FF80
FFE003FF80
FFE003FF80
FFE003FF80
FFE003FF80
FFE003FF80
FFE003FF80
FFE003FF80
FFE003FF80
FFE003FF80
FFE003FF80
000003FF80
000003FF80
000003FF80
000003FF80
000007FF80
00021FFF80
0003FFFF00
0003FFFF00
0003FFFF00
0003FFFE00
0007FFFC00
0007FFF800
0007FFF000
0007FFC000
0000FC0000
ENDCHAR
STARTCHAR 014C
ENCODING 332
SWIDTH 495 0
DWIDTH 44 0
BBX 40 71 2 -1
BITMAP
00FFFFFF80
00FFFFFF80
00FFFFFF80
00FFFFFF80
00FFFFFF80
00FFFFFF80
00FFFFFF80
00FFFFFF80
0000000000
0000000000
0000000000
0000000000
0000000000
0000000000
0001FFC000
000FFFF800
003FFFFC00
007FFFFF00
00FFFFFF80
01FFFFFFC0
03FFFFFFE0
07FFFFFFE0
07FFFFFFF0
0FFFE3FFF0
0FFF00FFF8
1FFE007FF8
1FFC003FFC
3FFC001FFC
3FF8001FFC
3FF8000FFE
3FF8000FFE
7FF0000FFE
7FF0000FFE
7FF0000FFE
7FF00007FF
7FF00007FF
7FF00007FF
7FF00007FF
FFF00007FF
FFF00007FF
FFF00007FF
FFF00007FF
FFF00007FF
FFF00007FF
FFF00007FF
FFF00007FF
7FF00007FF
7FF00007FF
7FF00007FF
7FF00007FF
7FF00007FF
7FF0000FFE
7FF0000FFE
7FF0000FFE
3FF8000FFE
3FF8000FFE
3FF8001FFC
3FFC001FFC
1FFC003FFC
1FFE007FF8
0FFF00FFF8
0FFFE7FFF0
07FFFFFFF0
07FFFFFFE0
03FFFFFFC0
01FFFFFFC0
00FFFFFF80
007FFFFF00
003FFFFC00
000FFFF000
0001FFC000
ENDCHAR
STARTCHAR 014D
ENCODING 333
SWIDTH 495 0
DWIDTH 44 0
BBX 39 59 3 -1
BITMAP
03FFFFFF00
03FFFFFF00
03FFFFFF00
03FFFFFF00
03FFFFFF00
03FFFFFF00
03FFFFFF00
03FFFFFF00
0000000000
0000000000
0000000000
0000000000
0000000000
0000000000
0000000000
0001FE0000
000FFFE000
003FFFF800
00FFFFFC00
01FFFFFF00
03FFFFFF80
07FFFFFFC0
0FFFFFFFE0
1FFFFFFFE0
1FFFFFFFF0
3FFF01FFF0
3FFC00FFF8
7FF8007FF8
7FF8003FFC
7FF0003FFC
FFF0001FFC
FFE0001FFC
FFE0001FFE
FFE0001FFE
FFE0000FFE
FFE0000FFE
FFE0000FFE
FFE0000FFE
FFE0000FFE
FFE0000FFE
FFE0001FFE
FFE0001FFE
FFE0001FFC
FFF0001FFC
FFF0003FFC
7FF0003FFC
7FF8007FF8
3FFC007FF8
3FFE01FFF0
1FFFCFFFF0
1FFFFFFFE0
0FFFFFFFE0
07FFFFFFC0
07FFFFFF80
03FFFFFF00
00FFFFFE00
007FFFF800
001FFFE000
0003FF8000
ENDCHAR
STARTCHAR 014E
ENCODING 334
SWIDTH 495 0
DWIDTH 44 0
BBX 40 74 2 -1
BITMAP
01FF007F80
01FF007F80
01FF007F80
00FF00FF80
00FF80FF80
00FFE7FF00
007FFFFF00
007FFFFE00
003FFFFE00
001FFFFC00
000FFFF800
0007FFE000
0000FF8000
0000000000
0000000000
0000000000
0000000000
0001FFC000
000FFFF800
003FFFFC00
007FFFFF00
00FFFFFF80
01FFFFFFC0
03FFFFFFE0
07FFFFFFE0
07FFFFFFF0
0FFFE3FFF0
0FFF00FFF8
1FFE007FF8
1FFC003FFC
3FFC001FFC
3FF8001FFC
3FF8000FFE
3FF8000FFE
7FF0000FFE
7FF0000FFE
7FF0000FFE
7FF00007FF
7FF00007FF
7FF00007FF
7FF00007FF
FFF00007FF
FFF00007FF
FFF00007FF
FFF00007FF
FFF00007FF
FFF00007FF
FFF00007FF
FFF00007FF
7FF00007FF
7FF00007FF
7FF00007FF
7FF00007FF
7FF00007FF
7FF0000FFE
7FF0000FFE
7FF0000FFE
3FF8000FFE
3FF8000FFE
3FF8001FFC
3FFC001FFC
1FFC003FFC
1FFE007FF8
0FFF00FFF8
0FFFE7FFF0
07FFFFFFF0
07FFFFFFE0
03FFFFFFC0
01FFFFFFC0
00FFFFFF80
007FFFFF00
003FFFFC00
000FFFF000
0001FFC000
ENDCHAR
STARTCHAR 014F
ENCODING 335
SWIDTH 495 0
DWIDTH 44 0
BBX 39 62 3 -1
BITMAP
03FC00FF00
03FC00FF00
03FE00FF00
01FE01FF00
01FF01FF00
01FF87FE00
01FFFFFE00
00FFFFFC00
007FFFFC00
007FFFF800
003FFFF000
000FFFE000
0003FF8000
0000100000
0000000000
0000000000
0000000000
0000000000
0001FE0000
000FFFE000
003FFFF800
00FFFFFC00
01FFFFFF00
03FFFFFF80
07FFFFFFC0
0FFFFFFFE0
1FFFFFFFE0
1FFFFFFFF0
3FFF01FFF0
3FFC00FFF8
7FF8007FF8
7FF8003FFC
7FF0003FFC
FFF0001FFC
FFE0001FFC
FFE0001FFE
FFE0001FFE
FFE0000FFE
FFE0000FFE
FFE0000FFE
FFE0000FFE
FFE0000FFE
FFE0000FFE
FFE0001FFE
FFE0001FFE
FFE0001FFC
FFF0001FFC
FFF0003FFC
7FF0003FFC
7FF8007FF8
3FFC007FF8
3FFE01FFF0
1FFFCFFFF0
1FFFFFFFE0
0FFFFFFFE0
07FFFFFFC0
07FFFFFF80
03FFFFFF00
00FFFFFE00
007FFFF800
001FFFE000
0003FF8000
ENDCHAR
STARTCHAR 0150
ENCODING 336
SWIDTH 495 0
DWIDTH 44 0
BBX 40 74 2 0
BITMAP
0000600060
0000F000F0
0001F801F8
0003FC03FC
0007FE07FE
000FFF0FFF
001FFE1FFE
003FFC3FFC
007FF07FF0
007FE07FE0
00FFC0FFC0
00FF00FF00
007E007E00
007C007C00
0038003800
0000000000
0000000000
0001FFC000
000FFFF800
003FFFFC00
007FFFFF00
00FFFFFF80
01FFFFFFC0
03FFFFFFE0
07FFFFFFE0
07FFFFFFF0
0FFFE3FFF0
0FFF00FFF8
1FFE007FF8
1FFC003FFC
3FFC001FFC
3FF8001FFC
3FF8000FFE
3FF8000FFE
7FF0000FFE
7FF0000FFE
7FF0000FFE
7FF00007FF
7FF00007FF
7FF00007FF
7FF00007FF
FFF00007FF
FFF00007FF
FFF00007FF
FFF00007FF
FFF00007FF
FFF00007FF
FFF00007FF
FFF00007FF
7FF00007FF
7FF00007FF
7FF00007FF
7FF00007FF
7FF00007FF
7FF0000FFE
7FF0000FFE
7FF0000FFE
3FF8000FFE
3FF8000FFE
3FF8001FFC
3FFC001FFC
1FFC003FFC
1FFE007FF8
0FFF00FFF8
0FFFE7FFF0
07FFFFFFF0
07FFFFFFE0
03FFFFFFC0
01FFFFFFC0
00FFFFFF80
007FFFFF00
003FFFFC00
000FFFF000
0001FFC000
ENDCHAR
STARTCHAR 0151
ENCODING 337
SWIDTH 495 0
DWIDTH 44 0
BBX 39 62 3 0
BITMAP
0000C000C0
0001E001E0
0003F003F0
0007F807F8
000FFC0FFC
001FFE0FFE
001FFC1FFC
003FF83FF8
007FF07FF0
00FFC0FFC0
01FF81FF80
03FF03FF00
01FC01FC00
00F800F800
0070007000
0020002000
0000000000
0000000000
0001FE0000
000FFFE000
003FFFF800
00FFFFFC00
01FFFFFF00
03FFFFFF80
07FFFFFFC0
0FFFFFFFE0
1FFFFFFFE0
1FFFFFFFF0
3FFF01FFF0
3FFC00FFF8
7FF8007FF8
7FF8003FFC
7FF0003FFC
FFF0001FFC
FFE0001FFC
FFE0001FFE
FFE0001FFE
FFE0000FFE
FFE0000FFE
FFE0000FFE
FFE0000FFE
FFE0000FFE
FFE0000FFE
FFE0001FFE
FFE0001FFE
FFE0001FFC
FFF0001FFC
FFF0003FFC
7FF0003FFC
7FF8007FF8
3FFC007FF8
3FFE01FFF0
1FFFCFFFF0
1FFFFFFFE0
0FFFFFFFE0
07FFFFFFC0
07FFFFFF80
03FFFFFF00
00FFFFFE00
007FFFF800
001FFFE000
0003FF8000
ENDCHAR
STARTCHAR 0152
ENCODING 338
SWIDTH 495 0
DWIDTH 44 0
BBX 42 56 2 0
BITMAP
0000E0000000
000FFFFFFF00
007FFFFFFF00
00FFFFFFFF00
01FFFFFFFF00
03FFFFFFFF00
07FFFFFFFF00
0FFFFFFFFF00
1FFFFFFFFF00
1FFFFFFFFF00
3FFE07FE0000
3FFC07FE0000
3FF807FE0000
7FF007FE0000
7FF007FE0000
7FE007FE0000
7FE007FE0000
FFE007FE0000
FFC007FE0000
FFC007FE0000
FFC007FE0000
FFC007FE0000
FFC007FFFC00
FFC007FFFC00
FFC007FFFC00
FFC007FFFC00
FFC007FFFC00
FFC007FFFC00
FFC007FFFC00
FFC007FFFC00
FFC007FFFC00
FFC007FE0000
FFC007FE0000
FFC007FE0000
FFC007FE0000
FFC007FE0000
FFC007FE0000
FFC007FE0000
FFC007FE0000
FFE007FE0000
7FE007FE0000
7FE007FE0000
7FF007FE0000
7FF007FE0000
3FF807FE0000
3FFC07FE0000
3FFE07FE0000
1FFFFFFFFFC0
1FFFFFFFFFC0
0FFFFFFFFFC0
07FFFFFFFFC0
03FFFFFFFFC0
01FFFFFFFFC0
00FFFFFFFFC0
007FFFFFFFC0
000FFFFFFFC0
ENDCHAR
STARTCHAR 0153
ENCODING 339
SWIDTH 495 0
DWIDTH 44 0
BBX 41 44 2 -1
BITMAP
003E001F0000
01FF807FE000
03FFE0FFF000
07FFF1FFF800
0FFFF3FFFC00
1FFFFBFFFC00
1FFFFFFFFE00
3FFFFFFFFE00
3FFFFFFFFF00
3FF3FFF1FF00
7FC1FFE0FF00
7FC1FFC0FF80
7F80FFC07F80
7F80FFC07F80
FF80FFC07F80
FF807FC07F80
FF807F807F80
FF007F807F80
FF007FFFFF80
FF007FFFFF80
FF007FFFFF80
FF007FFFFF80
FF007FFFFF80
FF007FFFFF80
FF007FFFFF80
FF007FFFFF80
FF007F800000
FF807F800000
FF807FC00000
FF80FFC00000
7F80FFC00000
7F80FFE00000
7FC1FFE00000
7FC1FFF00000
7FF3FFFE1E00
3FFFFFFFFE00
3FFFFFFFFE00
1FFFFFFFFE00
1FFFFFFFFE00
0FFFFBFFFF00
0FFFF1FFFF00
07FFE0FFFF00
01FFC07FFE00
007F000FF000
ENDCHAR
ENDFONT
